<svg xmlns="http://www.w3.org/2000/svg" width="174" height="174" viewBox="0 0 174 174">
  <defs>
    <radialGradient id="a" cx="100%" cy="0%" r="141.421356%" fx="100%" fy="0%">
      <stop stop-color="#fff" offset="0%"/>
      <stop stop-color="#fff" stop-opacity=".41629869" offset="100%"/>
    </radialGradient>
  </defs>
  <g fill="none" fill-rule="evenodd">
    <g>
      <path fill="#fff" d="M134.998,0 L39.001,0 C17.462,0 0,17.461 0,39 L0,135 C0,156.539 17.462,174 39.001,174 L134.999,174 C156.539,174 174.001,156.539 174.001,135 L174.001,39 C174,17.461 156.538,0 134.998,0 Z M86.9999998,37 L45.9999999,44.7692308 C45.9999999,44.7692308 46,74.7362637 45.9999999,88.0549451 C46,119.131868 84.7837837,138 86.9999998,138 C87,124.681319 86.9999998,37 86.9999998,37 Z M87.0000001,37 L128,44.7692308 C128,44.7692308 128,74.7362637 128,88.0549451 C128,119.131868 89.2162162,138 87.0000001,138 C86.9999999,124.681319 87.0000001,37 87.0000001,37 Z" transform="translate(-1028 -861) translate(1028 861)"/>
      <path fill="url(#a)" d="M86.9999999,44 L52,50.7816011 C52,50.7816011 52.0000001,77.0221208 52,88.3858848 C52.0000001,114.901334 85.1081081,131 86.9999999,131 C87.0000001,119.636236 86.9999999,44 86.9999999,44 Z" transform="translate(-1028 -861) translate(1028 861)"/>
      <path fill="url(#a)" d="M122,44 L87,50.7816011 C87,50.7816011 87.0000001,77.0221208 87,88.3858848 C87.0000001,114.901334 120.108108,131 122,131 C122,119.636236 122,44 122,44 Z" opacity=".59999996" transform="matrix(-1 0 0 1 209 0)"/>
    </g>
  </g>
</svg>