<svg xmlns="http://www.w3.org/2000/svg" width="48" height="48" viewBox="0 0 48 48" xmlns:xlink="http://www.w3.org/1999/xlink">
  <defs>
    <circle id="a" cx="24" cy="24" r="24"/>
  </defs>
  <g fill="none" fill-rule="evenodd">
    <mask id="b" fill="white">
      <use xlink:href="#a"/>
    </mask>
    <g mask="url(#b)">
      <rect width="48" height="48" fill="#DE2910"/>
      <g fill="#FFDE00" transform="translate(5 7)">
        <polygon points="6 10.28 2.473 12.854 3.832 8.705 .294 6.146 4.66 6.155 6 2 7.34 6.155 11.706 6.146 8.168 8.705 9.527 12.854"/>
        <polygon points="16 3.76 14.824 4.618 15.277 3.235 14.098 2.382 15.553 2.385 16 1 16.447 2.385 17.902 2.382 16.723 3.235 17.176 4.618" transform="rotate(23 16 3)"/>
        <polygon points="20 6.76 18.824 7.618 19.277 6.235 18.098 5.382 19.553 5.385 20 4 20.447 5.385 21.902 5.382 20.723 6.235 21.176 7.618" transform="rotate(46 20 6)"/>
        <polygon points="20.005 12.765 18.829 13.623 19.282 12.239 18.102 11.387 19.558 11.39 20.005 10.005 20.451 11.39 21.907 11.387 20.727 12.239 21.18 13.623" transform="rotate(-2 20.005 12.005)"/>
        <polygon points="16.009 16.769 14.833 17.627 15.286 16.243 14.106 15.391 15.562 15.394 16.009 14.009 16.455 15.394 17.911 15.391 16.731 16.243 17.184 17.627" transform="rotate(21 16.009 16.009)"/>
      </g>
    </g>
  </g>
</svg>
