<svg xmlns="http://www.w3.org/2000/svg" width="48" height="48" viewBox="0 0 48 48">
  <g fill="none" fill-rule="evenodd">
    <rect width="48" height="48" fill="#FFFFFF"/>
    <path fill="#00247D" d="M-3.55271368e-15,34.6406272 L-3.55271368e-15,29.5999999 L8.30220965,29.5999999 L-1.0658141e-14,34.6406272 Z M-3.55271368e-15,42.5022299 L-3.55271368e-15,48 L18.4000001,48 L18.4000001,31.3308013 L-1.99840144e-15,42.5022299 Z M48,13.3593728 L48,18.4000001 L39.6977903,18.4000001 L48,13.3593728 Z M48,5.49777005 L48,0 L29.5999999,0 L29.5999999,16.6691987 L48,5.49777005 Z M-3.55271368e-15,13.3593728 L-3.55271368e-15,18.4000001 L8.30220965,18.4000001 L-3.33066907e-15,13.3593728 Z M-3.55271368e-15,5.49777005 L-3.55271368e-15,0 L18.4000001,0 L18.4000001,16.6691987 L-2.55351296e-15,5.49777005 Z M48,34.6406272 L48,29.5999999 L39.6977903,29.5999999 L48,34.6406272 Z M48,42.5022299 L48,48 L29.5999999,48 L29.5999999,31.3308013 L48,42.5022299 Z"/>
    <polygon fill="#CF142B" points="0 10.435 22.343 24 0 37.565 0 39.578 24 25.006 48 39.578 48 37.565 25.657 24 48 10.435 48 8.422 24 22.994 0 8.422 0 10.435"/>
    <path fill="#CF142B" d="M20.6400001,-3.33066907e-16 L20.6400001,20.6400001 L-1.11022302e-16,20.6400001 L0,27.3599999 L20.6400001,27.3599999 L20.6400001,48 L27.3599999,48 L27.3599999,27.3599999 L48,27.3599999 L48,20.6400001 L27.3599999,20.6400001 L27.3599999,2.22044605e-16 L20.6400001,0 Z"/>
  </g>
</svg>
