<svg xmlns="http://www.w3.org/2000/svg" width="48" height="48" viewBox="0 0 48 48">
  <g fill="none" fill-rule="evenodd">
    <rect width="48" height="48" fill="#FF0000"/>
    <rect width="16.8" height="48" fill="#006600"/>
    <g fill="#FFFF00" stroke="#000000" stroke-width=".5" transform="translate(4.68 11.88)">
      <path d="M21.5088,19.5648 C17.8836,19.4556 1.26,9.0792 1.146,7.4268 L2.063952,5.89596 C3.712872,8.29188 20.707152,18.38316 22.376352,18.02556 L21.508764,19.56432"/>
      <path d="M1.8708,5.688 C1.545588,6.563244 6.20868,9.44616 11.81916,12.85848 C17.4294,16.27056 22.26696,18.3792 22.62552,18.0768 C22.6474272,18.0377472 22.801932,17.771892 22.78776,17.774016 C22.7205588,17.8752984 22.556952,17.907264 22.301688,17.8337052 C20.785968,17.3965092 16.832688,15.5819052 11.936808,12.6129852 C7.041048,9.6438252 2.781528,6.9077052 2.119488,5.7451452 C2.0734524,5.664606 2.0406456,5.5176012 2.0473128,5.4033012 L2.0312268,5.4030612 L1.8902628,5.6494452 L1.870896,5.6880744 L1.8707904,5.6880744 L1.8708,5.688 Z M21.594,19.6128 C21.5325144,19.7243484 21.4179,19.7280528 21.200208,19.7041344 C19.844208,19.5540624 15.729528,17.5531344 10.860768,14.6385744 C5.195568,11.2473744 0.516768,8.1573744 1.024368,7.3497744 L1.162476,7.1056224 L1.189674,7.1140944 C0.73323,8.4826944 10.423434,14.0234544 10.993914,14.3767344 C16.600794,17.8503744 21.327714,19.8788544 21.746034,19.3516944 L21.59385,19.6134144 L21.59385,19.6131744 L21.594,19.6128 Z"/>
      <path d="M12.1404,8.4276 C15.76884,8.3989188 20.2464,7.931772 22.82316,6.9048 L22.26798,6.002784 C20.74494,6.845748 16.24278,7.400064 12.10974,7.482984 C7.22142,7.4380044 3.77094,6.982812 2.0421,5.822784 L1.518036,6.783324 C4.696116,8.128164 7.952796,8.413764 12.140436,8.427684"/>
      <path d="M22.9728 6.9252C22.8841152 7.067016 21.20364 7.646556 18.72804 8.074236 17.04948 8.330136 14.85996 8.548896 12.12756 8.551548 9.5316 8.553984 7.41096 8.369196 5.80548 8.1516 3.20676 7.74414 1.86552 7.177188 1.36968 6.976848 1.4170908 6.8825508 1.4475696 6.816408 1.493292 6.728352 2.920692 7.296672 4.268172 7.639368 5.846772 7.882248 7.441692 8.098248 9.536772 8.285688 12.119892 8.283252 14.839572 8.280504 17.004972 8.045124 18.673812 7.796844 21.212412 7.38738 22.599132 6.860436 22.793892 6.615744L22.973172 6.9252 22.972932 6.9252 22.9728 6.9252zM22.485564 6.010488C22.210404 6.231468 20.839404 6.717672 18.427284 7.102896 16.817484 7.333608 14.770644 7.540092 12.155484 7.542636 9.671004 7.545072 7.641204 7.377636 6.097284 7.152744 3.647604 6.832812 2.343804 6.255696 1.873764 6.087432 1.92054 6.0065748 1.9681632 5.926356 2.017056 5.845812 2.382804 6.029964 3.641016 6.54072 6.124176 6.8925 7.650576 7.108932 9.683496 7.270224 12.155616 7.26768 14.758416 7.265028 16.781976 7.054536 18.381576 6.825084 20.806176 6.491496 22.110816 5.87142 22.308936 5.716164L22.485672 6.010272 22.485672 6.010512 22.485564 6.010488zM.2256 12.7992C2.45736 13.99956 7.4142 14.60448 12.10488 14.64612 16.3758 14.652888 21.93984 13.985928 24.02052 12.88332L23.9632656 11.68188C23.3123136 12.699156 17.3497056 13.67496 12.0585456 13.635 6.7673856 13.5951 1.8539856 12.777852.2161056 11.71992L.2256336 12.798888"/>
      <path d="M24.1344 12.6264L24.1345056 12.912888C23.8217856 13.286796 21.8609856 13.851948 19.4020656 14.249928 17.5306656 14.536848 15.0908256 14.753268 12.0506256 14.753268 9.1623456 14.753268 6.8590656 14.547312 5.0728656 14.2731 2.2493856 13.861932.4433856 13.141956.0808656 12.92706L.0824496 12.592836C1.1714256 13.316844 4.1217696 13.846476 5.1124896 14.008596 6.8870496 14.281008 9.1766496 14.48538 12.0505296 14.48538 15.0764496 14.48538 17.5026096 14.270436 19.3622496 13.985424 21.1263696 13.73058 23.6395296 13.067844 24.1342896 12.626544L24.1343952 12.626544 24.1344 12.6264zM24.1356 11.607336L24.1357056 11.893824C23.8229856 12.267528 21.8621856 12.832668 19.4032656 13.230624 17.5318656 13.517544 15.0920256 13.733964 12.0518256 13.733964 9.1635456 13.733964 6.8602656 13.528224 5.0740656 13.253796 2.2505856 12.842844.4445856 12.122856.0820656 11.907876L.0836496 11.573652C1.1726256 12.297552 4.1229696 12.827292 5.1136896 12.989172 6.8882496 13.2618 9.1778496 13.466268 12.0517296 13.466268 15.0776496 13.466268 17.5038096 13.251216 19.3634496 12.965988 21.1275696 12.711144 23.6407296 12.048408 24.1354896 11.607108L24.1355952 11.607348 24.1356 11.607336zM12.0948 19.3584C6.96216 19.3278132 2.56428 17.95932 1.6356 17.73312L2.312796 18.793248C3.953196 19.483284 8.243676 20.511648 12.144036 20.397768 16.044516 20.2839972 19.453236 19.981848 21.855396 18.812448L22.54974 17.713788C20.9127 18.484788 15.34158 19.350468 12.09474 19.358388"/>
      <path d="M22.116,18.5664 C22.0139808,18.722292 21.909948,18.876276 21.804444,19.025928 C20.67144,19.425444 18.886164,19.844868 18.132804,19.967208 C16.593924,20.284284 14.213004,20.518488 12.099924,20.519556 C7.553124,20.4529872 3.831324,19.562928 2.080404,18.803676 L1.939128,18.560784 L1.962198,18.5242716 L2.20179,18.6171936 C5.31555,19.7312016 8.81271,20.1756336 12.12555,20.2554336 C14.23011,20.2628376 16.33695,20.0142336 18.04059,19.7095416 C20.65311,19.1860896 21.70947,18.7915416 22.03359,18.6126816 L22.1160312,18.5664324 L22.1159256,18.5664324 L22.116,18.5664 Z M22.718064,17.573364 C22.720704,17.576436 22.723356,17.5794 22.7259,17.582676 C22.649598,17.711472 22.570968,17.8425 22.490436,17.974152 C21.886152,18.190152 20.246196,18.670008 17.851356,19.004868 C16.273476,19.219812 15.292716,19.427988 12.153876,19.488948 C6.272076,19.339296 2.463876,18.189228 1.559196,17.905548 L1.425108,17.648376 C4.833828,18.538224 8.315748,19.159416 12.154068,19.222896 C15.025788,19.1617248 16.247508,18.950268 17.812308,18.736908 C20.604828,18.302676 22.011828,17.842932 22.434108,17.710212 C22.428816,17.702592 22.422576,17.6945484 22.4155884,17.6862936 L22.7183604,17.5731576 L22.7181204,17.5733976 L22.718064,17.573364 Z"/>
      <path d="M22.7796,11.8512 C22.7962476,15.22764 21.0684,18.25752 19.67664,19.5942 C17.70768,21.48528 15.09708,22.70172 12.04836,22.75776 C8.64396,22.8203004 5.43396,20.60088 4.57296,19.62588 C2.8896,17.71968 1.51908,15.29904 1.47516,12.03672 C1.683672,8.35164 3.13032,5.78472 5.22732,4.02444 C7.32432,2.26416 10.11648,1.40688 12.44184,1.4682 C15.1248,1.5390036 18.25884,2.85516 20.42436,5.46804 C21.84312,7.17996 22.45752,9.0378 22.7796,11.8512 Z M12.07728,0.29016 C18.61548,0.29016 23.9928,5.61072 23.9928,12.13452 C23.9928,18.6582 18.61548,23.979 12.07728,23.979 C5.53908,23.979 0.2064,18.65832 0.2064,12.13452 C0.2064,5.61072 5.53908,0.29016 12.07728,0.29016 L12.07728,0.29016 Z"/>
      <path d="M12.1092,0.2496 C18.65328,0.2496 23.99052,5.58756 23.99052,12.13224 C23.99052,18.6768 18.65316,24.01464 12.1092,24.01464 C5.56512,24.01464 0.22788,18.67692 0.22788,12.13224 C0.22788,5.58756 5.56524,0.2496 12.1092,0.2496 L12.1092,0.2496 Z M0.48936,12.132288 C0.48936,18.523488 5.73768,23.753328 12.1092,23.753328 C18.48084,23.753328 23.72916,18.523488 23.72916,12.132288 C23.72916,5.740848 18.48072,0.511008 12.1092,0.511008 C5.73768,0.511008 0.48936,5.741088 0.48936,12.132288 Z"/>
      <path d="M12.1188,1.2372 C18.08652,1.2372 23.00196,6.13572 23.00196,12.12168 C23.00196,18.10776 18.0864,23.00604 12.1188,23.00604 C6.1512,23.00604 1.23564,18.10776 1.23564,12.12168 C1.23564,6.13572 6.15132,1.2372 12.1188,1.2372 L12.1188,1.2372 Z M1.497,12.121608 C1.497,17.963808 6.29448,22.744488 12.1188,22.744488 C17.94312,22.744488 22.7406,17.963808 22.7406,12.121608 C22.7406,6.279288 17.94324,1.498608 12.1188,1.498608 C6.29448,1.498608 1.497,6.279288 1.497,12.121608 Z"/>
      <polygon points="12.598 .202 11.579 .202 11.581 24.077 12.602 24.077"/>
      <path d="M12.4956,0.06552 L12.754776,0.06552 L12.756996,24.21552 L12.497604,24.21552 L12.495696,0.06552 L12.4956,0.06552 Z M11.485044,0.065736 L11.746236,0.065736 L11.746596,24.215736 L11.4852,24.215736 L11.4852,0.065736 L11.485044,0.065736 Z"/>
      <polygon points="23.999 12.592 23.999 11.71 23.28 11.04 19.2 9.96 13.32 9.36 6.24 9.72 1.2 10.92 .182 11.674 .182 12.556 2.76 11.4 8.88 10.44 14.76 10.44 19.08 10.92 22.08 11.64"/>
      <path d="M12.114 10.2924C14.91996 10.287216 17.6424 10.558248 19.8018 10.978728 22.03008 11.42418 23.59824 11.9814 24.1344 12.607248L24.1338 12.917124C23.487192 12.1383 21.37704 11.567364 19.75164 11.240964 17.60868 10.824084 14.90448 10.554948 12.114 10.560132 9.16944 10.56564 6.42756 10.844508 4.31592 11.256516 2.62152 11.592744.3618 12.260664.07968 12.919476L.07968 12.596796C.234612 12.14076 1.91724 11.459292 4.27776 10.986756 6.40524 10.571892 9.15216 10.297776 12.114 10.292388L12.114 10.2924zM12.1152 9.273336C14.92116 9.26826 17.6436 9.5394 19.803 9.959664 22.03128 10.405332 23.59944 10.962336 24.1356 11.588184L24.135 11.89806C23.488392 11.11944 21.37824 10.54842 19.75284 10.22214 17.60988 9.805056 14.90568 9.53592 12.1152 9.541308 9.17064 9.5466 6.44208 9.825684 4.3302 10.237476 2.69508 10.54746.34308 11.241828.08076 11.900676L.08076 11.57778C.235692 11.126724 1.9524 10.420812 4.27896 9.96774 6.40644 9.552876 9.15336 9.278976 12.1152 9.273372L12.1152 9.273336zM12.0576 4.0752C16.47948 4.0530804 20.3364 4.693476 22.101 5.5974L22.744656 6.71088C21.210936 5.88432 17.049936 5.02488 12.064056 5.1534 8.001576 5.1783768 3.660816 5.600652 1.482936 6.7626L2.251356 5.47752C4.038756 4.550628 8.253996 4.08036 12.057756 4.07544"/>
      <path d="M12.1164 4.9944C14.63844 4.987728 17.0754 5.129976 19.01352 5.479644 20.81844 5.81556 22.53972 6.319752 22.78584 6.590892L22.976652 6.92808C22.37808 6.53724 20.888532 6.102048 18.975972 5.73936 17.055252 5.378364 14.619972 5.258772 12.111972 5.265336 9.265332 5.255604 7.053732 5.40588 5.155692 5.736828 3.148332 6.112428 1.755612 6.649008 1.412052 6.90396L1.599048 6.547512C2.26662 6.20694 3.325848 5.796408 5.105808 5.475948 7.068648 5.117388 9.303768 5.009856 12.116568 4.994412L12.1164624 4.994412 12.1164 4.9944zM12.11532 3.976284C14.52888 3.969936 16.91196 4.104444 18.76956 4.438356 20.23464 4.723572 21.68352 5.16882 22.21404 5.56506L22.493112 6.008508C22.01868 5.481144 20.232792 4.981392 18.656232 4.701468 16.812912 4.38354 14.528832 4.257708 12.115272 4.237596 9.582312 4.244688 7.241472 4.399836 5.425032 4.730568 3.692112 5.06034 2.573832 5.45076 2.100672 5.755668L2.346084 5.385252C2.999052 5.0415 4.053924 4.725804 5.382444 4.467672 7.212324 4.134504 9.567564 3.983376 12.115404 3.976284L12.11532 3.976284zM18.018 17.0712C15.83184 16.663104 13.64172 16.603836 12.11196 16.621836 4.74312 16.7081964 2.36268 18.134916 2.07216 18.566916L1.521432 17.669136C3.397512 16.309296 7.410192 15.546696 12.151872 15.624696 14.614032 15.6650184 16.738752 15.828528 18.526152 16.174716L18.017856 17.07144"/>
      <path d="M12.0696,16.4952 C14.11944,16.5257856 16.13148,16.6104528 18.07356,16.972608 L17.93292,17.220888 C16.1292,16.887936 14.20632,16.760508 12.07656,16.770888 C9.357,16.7496156 6.60636,17.003616 4.21164,17.690904 C3.456024,17.901192 2.20512,18.386976 2.07756,18.7884 L1.937652,18.557688 C1.9779732,18.320412 2.734008,17.827968 4.147332,17.430876 C6.890292,16.64538 9.456012,16.512984 12.069612,16.494996 L12.069612,16.495236 L12.0696,16.4952 Z M12.1626228,15.463644 C14.2863828,15.5033316 16.4796228,15.601548 18.6114228,16.023816 L18.4649508,16.28226 C16.5399108,15.900096 14.7006708,15.772668 12.1751508,15.733836 C9.4469508,15.738804 6.5530308,15.933336 3.9217908,16.6983 C3.0722988,16.94574 1.6061508,17.480724 1.5573108,17.9043 L1.4174028,17.65644 C1.4492568,17.271732 2.7184428,16.76988 3.8603628,16.43772 C6.5118828,15.666828 9.4133628,15.4686 12.1626828,15.463632 L12.1626228,15.463644 Z"/>
      <polygon points="22.63 17.806 21.744 19.179 19.2 16.92 12.6 12.48 5.16 8.4 1.297 7.079 2.12 5.552 2.4 5.4 4.8 6 12.72 10.08 17.28 12.96 21.12 15.72 22.68 17.52"/>
      <path d="M1.158,7.1148 C1.83552,6.655272 6.81468,8.8734 12.0246,12.01488 C17.22072,15.16536 22.18584,18.7254 21.73764,19.39164 L21.59022,19.623516 L21.5225952,19.676856 C21.5370948,19.666488 21.6118092,19.57515 21.5152872,19.328136 C21.2938992,18.599688 17.7718872,15.789216 11.9280072,12.260736 C6.2310072,8.863656 1.4830872,6.816216 1.0083672,7.401456 L1.1580072,7.114752 L1.1579004,7.114752 L1.158,7.1148 Z M22.8108,17.78604 C23.2392,16.9398 18.62088,13.46076 12.89496,10.0734 C7.0374,6.75348 2.81568,4.79928 2.04456,5.382 L1.873224,5.693892 C1.871736,5.7110364 1.879464,5.6726196 1.9156608,5.64468 C2.0558808,5.52234 2.2882848,5.5305912 2.3931648,5.5286856 C3.7209648,5.5485828 7.5132048,7.2937656 12.8338848,10.3440456 C15.1652448,11.7018456 22.6824048,16.5229656 22.6537248,17.8787256 C22.6557408,17.995248 22.6633608,18.0192696 22.6195428,18.0769536 L22.8107748,17.7861216 L22.8107748,17.7858816 L22.8108,17.78604 Z"/>
    </g>
    <g transform="translate(9.6 15.72)">
      <path fill="#FFFFFF" stroke="#000000" stroke-width=".5" d="M0.072,9.6012 C0.072,11.55372 0.871536,13.31964 2.16684,14.61024 C3.46464,15.9036 5.22828,16.71972 7.18392,16.71972 C9.14964,16.71972 10.93356,15.92142 12.22584,14.63304 C13.51812,13.34484 14.319,11.5668 14.31936,9.60744 L14.31912,9.60744 L14.31912,0.10476 L0.07032,0.0878268 L0.071796,9.6011868 L0.072036,9.6011868 L0.072,9.6012 Z"/>
      <path fill="#FF0000" stroke="#000000" stroke-width=".5" d="M0.3384,9.6144 L0.3384,9.6198 C0.3384,11.48664 1.111368,13.18668 2.3514,14.42088 C3.59388,15.65748 5.30508,16.42632 7.17708,16.42632 C9.0588,16.42632 10.76652,15.663048 12.00372,14.4312 C13.24068,13.1994 14.00736,11.49924 14.0076,9.62592 L14.00736,9.62592 L14.00736,0.4068 L0.34656,0.40458 L0.338196,9.61434 L0.3384,9.6144 Z M11.260836,3.1647 L11.261316,9.03162 L11.256348,9.652224 L11.2564536,9.652224 C11.2564536,9.81552 11.2466136,10.001688 11.2275624,10.16022 C11.116548,11.087748 10.6899504,11.89626 10.0581504,12.52518 C9.3185184,13.261464 8.2976304,13.718136 7.1725104,13.718136 C6.0532704,13.718136 5.0558304,13.245588 4.3130304,12.506136 C3.5510664,11.747736 3.1094304,10.707816 3.1094304,9.632496 L3.1078464,3.149736 L11.2606464,3.1644468 L11.2608864,3.1646868 L11.260836,3.1647 Z"/>
      <g transform="translate(.6 .48)">
        <path fill="#FFFF00" d="M0.6228,2.3316 C0.6389916,1.66908 1.109088,1.51224 1.112472,1.509912 C1.115856,1.507692 1.62024,1.678824 1.618548,2.337744 L0.622812,2.3316"/>
        <path fill="#FFFF00" stroke="#000000" stroke-width=".5" d="M.2172 1.5228L.1353936 2.284164.6322656 2.285244C.6370296 1.655328 1.1091336 1.550544 1.1205576 1.552872 1.1312496 1.552272 1.5992256 1.692144 1.6117056 2.285244L2.1098376 2.285244 2.0198832 1.51806.2172432 1.522608.2172432 1.522848.2172 1.5228zM.102 2.2872L2.13552 2.2872C2.1783804 2.2872 2.2134096 2.3295324 2.2134096 2.3812848 2.2134096 2.4329316 2.1783804 2.475054 2.13552 2.475054L.102 2.475054C.0591396 2.475054.0241104 2.4329316.0241104 2.3812848.0241104 2.3295324.0591396 2.2872.102 2.2872z"/>
        <path fill="#FFFF00" stroke="#000000" stroke-width=".5" d="M.8412 2.2836C.84342 1.886088 1.112652 1.773588 1.114032 1.773804 1.1141376 1.773804 1.395108 1.8897972 1.39734 2.2836L.841212 2.2836M.1452 1.206L2.0946 1.206C2.1356616 1.206 2.1693156 1.2442068 2.1693156 1.2905616 2.1693156 1.337022 2.1356616 1.375122 2.0946 1.375122L.1452 1.375122C.1041384 1.375122.0704844 1.3372344.0704844 1.2905616.0704844 1.2442068.1041384 1.206.1452 1.206zM.186 1.3764L2.05056 1.3764C2.0898228 1.3764 2.1219948 1.4143944 2.1219948 1.4608548 2.1219948 1.5074208 2.0898228 1.5454152 2.05056 1.5454152L.186 1.5454152C.1467372 1.5454152.1145652 1.5074208.1145652 1.4608548.1145652 1.4143944.1467372 1.3764.186 1.3764zM.7884.1056L.935604.10584.935604.2104032 1.0430196.2104032 1.0430196.103512 1.1938236.103992 1.1938236.2104596 1.3015572.2104596 1.3015572.1035684 1.4524692.1035684 1.4522292.3449724C1.4522292.3828612 1.4217516.4074144 1.3864044.4074144L.8570484.4074144C.8214888.4074144.788682.3789456.7885764.344232L.7882164.105684.788322.105684.7884.1056z"/>
        <polyline fill="#FFFF00" stroke="#000000" stroke-width=".5" points="1.343 .428 1.376 1.203 .86 1.201 .894 .426 1.343 .428"/>
        <polygon fill="#FFFF00" stroke="#000000" stroke-width=".5" points=".713 .787 .729 1.204 .233 1.205 .247 .787 .713 .787 .713 .787"/>
        <polygon fill="#FFFF00" stroke="#000000" stroke-width=".5" points=".593 .067 .609 .484 .113 .485 .127 .067 .593 .067 .593 .067" transform="translate(1.393 .72)"/>
        <path fill="#FFFF00" stroke="#000000" stroke-width=".5" d="M0.156,0.4848 L0.299928,0.48516 L0.299928,0.5898288 L0.405228,0.5898288 L0.405228,0.4827252 L0.552756,0.4832052 L0.552756,0.5898852 L0.6582672,0.5898852 L0.6582672,0.4827816 L0.8058912,0.4830216 L0.8056512,0.7244256 C0.8056512,0.7621032 0.7758072,0.7866564 0.7413072,0.7866564 L0.2232792,0.7866564 C0.188568,0.7866564 0.1562904,0.7583988 0.1561836,0.7235796 L0.1558236,0.4849236 L0.1559292,0.4849236 L0.156,0.4848 Z"/>
        <path fill="#FFFF00" stroke="#000000" stroke-width=".5" d="M0.036,0.0048 L0.179928,0.00516 L0.179928,0.1098288 L0.285228,0.1098288 L0.285228,0.0027252 L0.432756,0.0032052 L0.432756,0.1098852 L0.5382672,0.1098852 L0.5382672,0.0027816 L0.6858912,0.0030216 L0.6856512,0.2444256 C0.6856512,0.2821032 0.6558072,0.3066564 0.6213072,0.3066564 L0.1032792,0.3066564 C0.068568,0.3066564 0.0362904,0.2783988 0.0361836,0.2435796 L0.0358236,0.0049236 L0.0359292,0.0049236 L0.036,0.0048 Z" transform="translate(1.393 .48)"/>
        <path fill="#000000" d="M1.068.6732C1.06482.5979528 1.1731932.5971068 1.1719236.6732L1.1719236.857568 1.0680036.857568 1.0680036.673248M.4284.9408C.42804.868092.5288316.8666112.527562.9408L.527562 1.083252.428442 1.083252.428442.940812"/>
        <path fill="#000000" d="M0.0684,0.1008 C0.06804,0.028092 0.1688316,0.0266112 0.167562,0.1008 L0.167562,0.243252 L0.068442,0.243252 L0.068442,0.100812" transform="translate(1.637 .84)"/>
        <g transform="translate(0 5.558)">
          <path fill="#FFFF00" d="M0.6228,2.3316 C0.6389916,1.66908 1.109088,1.51224 1.112472,1.509912 C1.115856,1.507692 1.62024,1.678824 1.618548,2.337744 L0.622812,2.3316"/>
          <path fill="#FFFF00" stroke="#000000" stroke-width=".5" d="M.2172 1.5228L.1353936 2.284164.6322656 2.285244C.6370296 1.655328 1.1091336 1.550544 1.1205576 1.552872 1.1312496 1.552272 1.5992256 1.692144 1.6117056 2.285244L2.1098376 2.285244 2.0198832 1.51806.2172432 1.522608.2172432 1.522848.2172 1.5228zM.102 2.2872L2.13552 2.2872C2.1783804 2.2872 2.2134096 2.3295324 2.2134096 2.3812848 2.2134096 2.4329316 2.1783804 2.475054 2.13552 2.475054L.102 2.475054C.0591396 2.475054.0241104 2.4329316.0241104 2.3812848.0241104 2.3295324.0591396 2.2872.102 2.2872z"/>
          <path fill="#FFFF00" stroke="#000000" stroke-width=".5" d="M.8412 2.2836C.84342 1.886088 1.112652 1.773588 1.114032 1.773804 1.1141376 1.773804 1.395108 1.8897972 1.39734 2.2836L.841212 2.2836M.1452 1.206L2.0946 1.206C2.1356616 1.206 2.1693156 1.2442068 2.1693156 1.2905616 2.1693156 1.337022 2.1356616 1.375122 2.0946 1.375122L.1452 1.375122C.1041384 1.375122.0704844 1.3372344.0704844 1.2905616.0704844 1.2442068.1041384 1.206.1452 1.206zM.186 1.3764L2.05056 1.3764C2.0898228 1.3764 2.1219948 1.4143944 2.1219948 1.4608548 2.1219948 1.5074208 2.0898228 1.5454152 2.05056 1.5454152L.186 1.5454152C.1467372 1.5454152.1145652 1.5074208.1145652 1.4608548.1145652 1.4143944.1467372 1.3764.186 1.3764zM.7884.1056L.935604.10584.935604.2104032 1.0430196.2104032 1.0430196.103512 1.1938236.103992 1.1938236.2104596 1.3015572.2104596 1.3015572.1035684 1.4524692.1035684 1.4522292.3449724C1.4522292.3828612 1.4217516.4074144 1.3864044.4074144L.8570484.4074144C.8214888.4074144.788682.3789456.7885764.344232L.7882164.105684.788322.105684.7884.1056z"/>
          <polyline fill="#FFFF00" stroke="#000000" stroke-width=".5" points="1.343 .428 1.376 1.203 .86 1.201 .894 .426 1.343 .428"/>
          <polygon fill="#FFFF00" stroke="#000000" stroke-width=".5" points=".713 .787 .729 1.204 .233 1.205 .247 .787 .713 .787 .713 .787"/>
          <polygon fill="#FFFF00" stroke="#000000" stroke-width=".5" points=".593 .067 .609 .484 .113 .485 .127 .067 .593 .067 .593 .067" transform="translate(1.393 .72)"/>
          <path fill="#FFFF00" stroke="#000000" stroke-width=".5" d="M0.156,0.4848 L0.299928,0.48516 L0.299928,0.5898288 L0.405228,0.5898288 L0.405228,0.4827252 L0.552756,0.4832052 L0.552756,0.5898852 L0.6582672,0.5898852 L0.6582672,0.4827816 L0.8058912,0.4830216 L0.8056512,0.7244256 C0.8056512,0.7621032 0.7758072,0.7866564 0.7413072,0.7866564 L0.2232792,0.7866564 C0.188568,0.7866564 0.1562904,0.7583988 0.1561836,0.7235796 L0.1558236,0.4849236 L0.1559292,0.4849236 L0.156,0.4848 Z"/>
          <path fill="#FFFF00" stroke="#000000" stroke-width=".5" d="M0.036,0.0048 L0.179928,0.00516 L0.179928,0.1098288 L0.285228,0.1098288 L0.285228,0.0027252 L0.432756,0.0032052 L0.432756,0.1098852 L0.5382672,0.1098852 L0.5382672,0.0027816 L0.6858912,0.0030216 L0.6856512,0.2444256 C0.6856512,0.2821032 0.6558072,0.3066564 0.6213072,0.3066564 L0.1032792,0.3066564 C0.068568,0.3066564 0.0362904,0.2783988 0.0361836,0.2435796 L0.0358236,0.0049236 L0.0359292,0.0049236 L0.036,0.0048 Z" transform="translate(1.393 .48)"/>
          <path fill="#000000" d="M1.068.6732C1.06482.5979528 1.1731932.5971068 1.1719236.6732L1.1719236.857568 1.0680036.857568 1.0680036.673248M.4284.9408C.42804.868092.5288316.8666112.527562.9408L.527562 1.083252.428442 1.083252.428442.940812"/>
          <path fill="#000000" d="M0.0684,0.1008 C0.06804,0.028092 0.1688316,0.0266112 0.167562,0.1008 L0.167562,0.243252 L0.068442,0.243252 L0.068442,0.100812" transform="translate(1.637 .84)"/>
        </g>
        <g transform="rotate(-45.202 15.339 5.401)">
          <g transform="translate(.003 -.005)">
            <path fill="#FFFF00" d="M0.6228,2.3316 C0.6389916,1.66908 1.109088,1.51224 1.112472,1.509912 C1.115856,1.507692 1.62024,1.678824 1.618548,2.337744 L0.622812,2.3316"/>
            <path fill="#FFFF00" stroke="#000000" stroke-width=".5" d="M.2172 1.5228L.1353936 2.284164.6322656 2.285244C.6370296 1.655328 1.1091336 1.550544 1.1205576 1.552872 1.1312496 1.552272 1.5992256 1.692144 1.6117056 2.285244L2.1098376 2.285244 2.0198832 1.51806.2172432 1.522608.2172432 1.522848.2172 1.5228zM.102 2.2872L2.13552 2.2872C2.1783804 2.2872 2.2134096 2.3295324 2.2134096 2.3812848 2.2134096 2.4329316 2.1783804 2.475054 2.13552 2.475054L.102 2.475054C.0591396 2.475054.0241104 2.4329316.0241104 2.3812848.0241104 2.3295324.0591396 2.2872.102 2.2872z"/>
            <path fill="#FFFF00" stroke="#000000" stroke-width=".5" d="M.8412 2.2836C.84342 1.886088 1.112652 1.773588 1.114032 1.773804 1.1141376 1.773804 1.395108 1.8897972 1.39734 2.2836L.841212 2.2836M.1452 1.206L2.0946 1.206C2.1356616 1.206 2.1693156 1.2442068 2.1693156 1.2905616 2.1693156 1.337022 2.1356616 1.375122 2.0946 1.375122L.1452 1.375122C.1041384 1.375122.0704844 1.3372344.0704844 1.2905616.0704844 1.2442068.1041384 1.206.1452 1.206zM.186 1.3764L2.05056 1.3764C2.0898228 1.3764 2.1219948 1.4143944 2.1219948 1.4608548 2.1219948 1.5074208 2.0898228 1.5454152 2.05056 1.5454152L.186 1.5454152C.1467372 1.5454152.1145652 1.5074208.1145652 1.4608548.1145652 1.4143944.1467372 1.3764.186 1.3764zM.7884.1056L.935604.10584.935604.2104032 1.0430196.2104032 1.0430196.103512 1.1938236.103992 1.1938236.2104596 1.3015572.2104596 1.3015572.1035684 1.4524692.1035684 1.4522292.3449724C1.4522292.3828612 1.4217516.4074144 1.3864044.4074144L.8570484.4074144C.8214888.4074144.788682.3789456.7885764.344232L.7882164.105684.788322.105684.7884.1056z"/>
            <polyline fill="#FFFF00" stroke="#000000" stroke-width=".5" points="1.343 .428 1.376 1.203 .86 1.201 .894 .426 1.343 .428"/>
            <polygon fill="#FFFF00" stroke="#000000" stroke-width=".5" points=".713 .787 .729 1.204 .233 1.205 .247 .787 .713 .787 .713 .787"/>
            <polygon fill="#FFFF00" stroke="#000000" stroke-width=".5" points=".593 .067 .609 .484 .113 .485 .127 .067 .593 .067 .593 .067" transform="translate(1.393 .72)"/>
            <path fill="#FFFF00" stroke="#000000" stroke-width=".5" d="M0.156,0.4848 L0.299928,0.48516 L0.299928,0.5898288 L0.405228,0.5898288 L0.405228,0.4827252 L0.552756,0.4832052 L0.552756,0.5898852 L0.6582672,0.5898852 L0.6582672,0.4827816 L0.8058912,0.4830216 L0.8056512,0.7244256 C0.8056512,0.7621032 0.7758072,0.7866564 0.7413072,0.7866564 L0.2232792,0.7866564 C0.188568,0.7866564 0.1562904,0.7583988 0.1561836,0.7235796 L0.1558236,0.4849236 L0.1559292,0.4849236 L0.156,0.4848 Z"/>
            <path fill="#FFFF00" stroke="#000000" stroke-width=".5" d="M0.036,0.0048 L0.179928,0.00516 L0.179928,0.1098288 L0.285228,0.1098288 L0.285228,0.0027252 L0.432756,0.0032052 L0.432756,0.1098852 L0.5382672,0.1098852 L0.5382672,0.0027816 L0.6858912,0.0030216 L0.6856512,0.2444256 C0.6856512,0.2821032 0.6558072,0.3066564 0.6213072,0.3066564 L0.1032792,0.3066564 C0.068568,0.3066564 0.0362904,0.2783988 0.0361836,0.2435796 L0.0358236,0.0049236 L0.0359292,0.0049236 L0.036,0.0048 Z" transform="translate(1.393 .48)"/>
            <path fill="#000000" d="M1.068.6732C1.06482.5979528 1.1731932.5971068 1.1719236.6732L1.1719236.857568 1.0680036.857568 1.0680036.673248M.4284.9408C.42804.868092.5288316.8666112.527562.9408L.527562 1.083252.428442 1.083252.428442.940812"/>
            <path fill="#000000" d="M0.0684,0.1008 C0.06804,0.028092 0.1688316,0.0266112 0.167562,0.1008 L0.167562,0.243252 L0.068442,0.243252 L0.068442,0.100812" transform="translate(1.637 .84)"/>
          </g>
        </g>
      </g>
      <g transform="translate(6.086 .48)">
        <path fill="#FFFF00" d="M0.6228,2.3316 C0.6389916,1.66908 1.109088,1.51224 1.112472,1.509912 C1.115856,1.507692 1.62024,1.678824 1.618548,2.337744 L0.622812,2.3316"/>
        <path fill="#FFFF00" stroke="#000000" stroke-width=".5" d="M.2172 1.5228L.1353936 2.284164.6322656 2.285244C.6370296 1.655328 1.1091336 1.550544 1.1205576 1.552872 1.1312496 1.552272 1.5992256 1.692144 1.6117056 2.285244L2.1098376 2.285244 2.0198832 1.51806.2172432 1.522608.2172432 1.522848.2172 1.5228zM.102 2.2872L2.13552 2.2872C2.1783804 2.2872 2.2134096 2.3295324 2.2134096 2.3812848 2.2134096 2.4329316 2.1783804 2.475054 2.13552 2.475054L.102 2.475054C.0591396 2.475054.0241104 2.4329316.0241104 2.3812848.0241104 2.3295324.0591396 2.2872.102 2.2872z"/>
        <path fill="#FFFF00" stroke="#000000" stroke-width=".5" d="M.8412 2.2836C.84342 1.886088 1.112652 1.773588 1.114032 1.773804 1.1141376 1.773804 1.395108 1.8897972 1.39734 2.2836L.841212 2.2836M.1452 1.206L2.0946 1.206C2.1356616 1.206 2.1693156 1.2442068 2.1693156 1.2905616 2.1693156 1.337022 2.1356616 1.375122 2.0946 1.375122L.1452 1.375122C.1041384 1.375122.0704844 1.3372344.0704844 1.2905616.0704844 1.2442068.1041384 1.206.1452 1.206zM.186 1.3764L2.05056 1.3764C2.0898228 1.3764 2.1219948 1.4143944 2.1219948 1.4608548 2.1219948 1.5074208 2.0898228 1.5454152 2.05056 1.5454152L.186 1.5454152C.1467372 1.5454152.1145652 1.5074208.1145652 1.4608548.1145652 1.4143944.1467372 1.3764.186 1.3764zM.7884.1056L.935604.10584.935604.2104032 1.0430196.2104032 1.0430196.103512 1.1938236.103992 1.1938236.2104596 1.3015572.2104596 1.3015572.1035684 1.4524692.1035684 1.4522292.3449724C1.4522292.3828612 1.4217516.4074144 1.3864044.4074144L.8570484.4074144C.8214888.4074144.788682.3789456.7885764.344232L.7882164.105684.788322.105684.7884.1056z"/>
        <polyline fill="#FFFF00" stroke="#000000" stroke-width=".5" points="1.343 .428 1.376 1.203 .86 1.201 .894 .426 1.343 .428"/>
        <polygon fill="#FFFF00" stroke="#000000" stroke-width=".5" points=".713 .787 .729 1.204 .233 1.205 .247 .787 .713 .787 .713 .787"/>
        <polygon fill="#FFFF00" stroke="#000000" stroke-width=".5" points=".593 .067 .609 .484 .113 .485 .127 .067 .593 .067 .593 .067" transform="translate(1.393 .72)"/>
        <path fill="#FFFF00" stroke="#000000" stroke-width=".5" d="M0.156,0.4848 L0.299928,0.48516 L0.299928,0.5898288 L0.405228,0.5898288 L0.405228,0.4827252 L0.552756,0.4832052 L0.552756,0.5898852 L0.6582672,0.5898852 L0.6582672,0.4827816 L0.8058912,0.4830216 L0.8056512,0.7244256 C0.8056512,0.7621032 0.7758072,0.7866564 0.7413072,0.7866564 L0.2232792,0.7866564 C0.188568,0.7866564 0.1562904,0.7583988 0.1561836,0.7235796 L0.1558236,0.4849236 L0.1559292,0.4849236 L0.156,0.4848 Z"/>
        <path fill="#FFFF00" stroke="#000000" stroke-width=".5" d="M0.036,0.0048 L0.179928,0.00516 L0.179928,0.1098288 L0.285228,0.1098288 L0.285228,0.0027252 L0.432756,0.0032052 L0.432756,0.1098852 L0.5382672,0.1098852 L0.5382672,0.0027816 L0.6858912,0.0030216 L0.6856512,0.2444256 C0.6856512,0.2821032 0.6558072,0.3066564 0.6213072,0.3066564 L0.1032792,0.3066564 C0.068568,0.3066564 0.0362904,0.2783988 0.0361836,0.2435796 L0.0358236,0.0049236 L0.0359292,0.0049236 L0.036,0.0048 Z" transform="translate(1.393 .48)"/>
        <path fill="#000000" d="M1.068.6732C1.06482.5979528 1.1731932.5971068 1.1719236.6732L1.1719236.857568 1.0680036.857568 1.0680036.673248M.4284.9408C.42804.868092.5288316.8666112.527562.9408L.527562 1.083252.428442 1.083252.428442.940812"/>
        <path fill="#000000" d="M0.0684,0.1008 C0.06804,0.028092 0.1688316,0.0266112 0.167562,0.1008 L0.167562,0.243252 L0.068442,0.243252 L0.068442,0.100812" transform="translate(1.637 .84)"/>
      </g>
      <g transform="matrix(-1 0 0 1 13.775 .48)">
        <path fill="#FFFF00" d="M0.6228,2.3316 C0.6389916,1.66908 1.109088,1.51224 1.112472,1.509912 C1.115856,1.507692 1.62024,1.678824 1.618548,2.337744 L0.622812,2.3316"/>
        <path fill="#FFFF00" stroke="#000000" stroke-width=".5" d="M.2172 1.5228L.1353936 2.284164.6322656 2.285244C.6370296 1.655328 1.1091336 1.550544 1.1205576 1.552872 1.1312496 1.552272 1.5992256 1.692144 1.6117056 2.285244L2.1098376 2.285244 2.0198832 1.51806.2172432 1.522608.2172432 1.522848.2172 1.5228zM.102 2.2872L2.13552 2.2872C2.1783804 2.2872 2.2134096 2.3295324 2.2134096 2.3812848 2.2134096 2.4329316 2.1783804 2.475054 2.13552 2.475054L.102 2.475054C.0591396 2.475054.0241104 2.4329316.0241104 2.3812848.0241104 2.3295324.0591396 2.2872.102 2.2872z"/>
        <path fill="#FFFF00" stroke="#000000" stroke-width=".5" d="M.8412 2.2836C.84342 1.886088 1.112652 1.773588 1.114032 1.773804 1.1141376 1.773804 1.395108 1.8897972 1.39734 2.2836L.841212 2.2836M.1452 1.206L2.0946 1.206C2.1356616 1.206 2.1693156 1.2442068 2.1693156 1.2905616 2.1693156 1.337022 2.1356616 1.375122 2.0946 1.375122L.1452 1.375122C.1041384 1.375122.0704844 1.3372344.0704844 1.2905616.0704844 1.2442068.1041384 1.206.1452 1.206zM.186 1.3764L2.05056 1.3764C2.0898228 1.3764 2.1219948 1.4143944 2.1219948 1.4608548 2.1219948 1.5074208 2.0898228 1.5454152 2.05056 1.5454152L.186 1.5454152C.1467372 1.5454152.1145652 1.5074208.1145652 1.4608548.1145652 1.4143944.1467372 1.3764.186 1.3764zM.7884.1056L.935604.10584.935604.2104032 1.0430196.2104032 1.0430196.103512 1.1938236.103992 1.1938236.2104596 1.3015572.2104596 1.3015572.1035684 1.4524692.1035684 1.4522292.3449724C1.4522292.3828612 1.4217516.4074144 1.3864044.4074144L.8570484.4074144C.8214888.4074144.788682.3789456.7885764.344232L.7882164.105684.788322.105684.7884.1056z"/>
        <polyline fill="#FFFF00" stroke="#000000" stroke-width=".5" points="1.343 .428 1.376 1.203 .86 1.201 .894 .426 1.343 .428"/>
        <polygon fill="#FFFF00" stroke="#000000" stroke-width=".5" points=".713 .787 .729 1.204 .233 1.205 .247 .787 .713 .787 .713 .787"/>
        <polygon fill="#FFFF00" stroke="#000000" stroke-width=".5" points=".593 .067 .609 .484 .113 .485 .127 .067 .593 .067 .593 .067" transform="translate(1.393 .72)"/>
        <path fill="#FFFF00" stroke="#000000" stroke-width=".5" d="M0.156,0.4848 L0.299928,0.48516 L0.299928,0.5898288 L0.405228,0.5898288 L0.405228,0.4827252 L0.552756,0.4832052 L0.552756,0.5898852 L0.6582672,0.5898852 L0.6582672,0.4827816 L0.8058912,0.4830216 L0.8056512,0.7244256 C0.8056512,0.7621032 0.7758072,0.7866564 0.7413072,0.7866564 L0.2232792,0.7866564 C0.188568,0.7866564 0.1562904,0.7583988 0.1561836,0.7235796 L0.1558236,0.4849236 L0.1559292,0.4849236 L0.156,0.4848 Z"/>
        <path fill="#FFFF00" stroke="#000000" stroke-width=".5" d="M0.036,0.0048 L0.179928,0.00516 L0.179928,0.1098288 L0.285228,0.1098288 L0.285228,0.0027252 L0.432756,0.0032052 L0.432756,0.1098852 L0.5382672,0.1098852 L0.5382672,0.0027816 L0.6858912,0.0030216 L0.6856512,0.2444256 C0.6856512,0.2821032 0.6558072,0.3066564 0.6213072,0.3066564 L0.1032792,0.3066564 C0.068568,0.3066564 0.0362904,0.2783988 0.0361836,0.2435796 L0.0358236,0.0049236 L0.0359292,0.0049236 L0.036,0.0048 Z" transform="translate(1.393 .48)"/>
        <path fill="#000000" d="M1.068.6732C1.06482.5979528 1.1731932.5971068 1.1719236.6732L1.1719236.857568 1.0680036.857568 1.0680036.673248M.4284.9408C.42804.868092.5288316.8666112.527562.9408L.527562 1.083252.428442 1.083252.428442.940812"/>
        <path fill="#000000" d="M0.0684,0.1008 C0.06804,0.028092 0.1688316,0.0266112 0.167562,0.1008 L0.167562,0.243252 L0.068442,0.243252 L0.068442,0.100812" transform="translate(1.637 .84)"/>
        <g transform="translate(0 5.558)">
          <path fill="#FFFF00" d="M0.6228,2.3316 C0.6389916,1.66908 1.109088,1.51224 1.112472,1.509912 C1.115856,1.507692 1.62024,1.678824 1.618548,2.337744 L0.622812,2.3316"/>
          <path fill="#FFFF00" stroke="#000000" stroke-width=".5" d="M.2172 1.5228L.1353936 2.284164.6322656 2.285244C.6370296 1.655328 1.1091336 1.550544 1.1205576 1.552872 1.1312496 1.552272 1.5992256 1.692144 1.6117056 2.285244L2.1098376 2.285244 2.0198832 1.51806.2172432 1.522608.2172432 1.522848.2172 1.5228zM.102 2.2872L2.13552 2.2872C2.1783804 2.2872 2.2134096 2.3295324 2.2134096 2.3812848 2.2134096 2.4329316 2.1783804 2.475054 2.13552 2.475054L.102 2.475054C.0591396 2.475054.0241104 2.4329316.0241104 2.3812848.0241104 2.3295324.0591396 2.2872.102 2.2872z"/>
          <path fill="#FFFF00" stroke="#000000" stroke-width=".5" d="M.8412 2.2836C.84342 1.886088 1.112652 1.773588 1.114032 1.773804 1.1141376 1.773804 1.395108 1.8897972 1.39734 2.2836L.841212 2.2836M.1452 1.206L2.0946 1.206C2.1356616 1.206 2.1693156 1.2442068 2.1693156 1.2905616 2.1693156 1.337022 2.1356616 1.375122 2.0946 1.375122L.1452 1.375122C.1041384 1.375122.0704844 1.3372344.0704844 1.2905616.0704844 1.2442068.1041384 1.206.1452 1.206zM.186 1.3764L2.05056 1.3764C2.0898228 1.3764 2.1219948 1.4143944 2.1219948 1.4608548 2.1219948 1.5074208 2.0898228 1.5454152 2.05056 1.5454152L.186 1.5454152C.1467372 1.5454152.1145652 1.5074208.1145652 1.4608548.1145652 1.4143944.1467372 1.3764.186 1.3764zM.7884.1056L.935604.10584.935604.2104032 1.0430196.2104032 1.0430196.103512 1.1938236.103992 1.1938236.2104596 1.3015572.2104596 1.3015572.1035684 1.4524692.1035684 1.4522292.3449724C1.4522292.3828612 1.4217516.4074144 1.3864044.4074144L.8570484.4074144C.8214888.4074144.788682.3789456.7885764.344232L.7882164.105684.788322.105684.7884.1056z"/>
          <polyline fill="#FFFF00" stroke="#000000" stroke-width=".5" points="1.343 .428 1.376 1.203 .86 1.201 .894 .426 1.343 .428"/>
          <polygon fill="#FFFF00" stroke="#000000" stroke-width=".5" points=".713 .787 .729 1.204 .233 1.205 .247 .787 .713 .787 .713 .787"/>
          <polygon fill="#FFFF00" stroke="#000000" stroke-width=".5" points=".593 .067 .609 .484 .113 .485 .127 .067 .593 .067 .593 .067" transform="translate(1.393 .72)"/>
          <path fill="#FFFF00" stroke="#000000" stroke-width=".5" d="M0.156,0.4848 L0.299928,0.48516 L0.299928,0.5898288 L0.405228,0.5898288 L0.405228,0.4827252 L0.552756,0.4832052 L0.552756,0.5898852 L0.6582672,0.5898852 L0.6582672,0.4827816 L0.8058912,0.4830216 L0.8056512,0.7244256 C0.8056512,0.7621032 0.7758072,0.7866564 0.7413072,0.7866564 L0.2232792,0.7866564 C0.188568,0.7866564 0.1562904,0.7583988 0.1561836,0.7235796 L0.1558236,0.4849236 L0.1559292,0.4849236 L0.156,0.4848 Z"/>
          <path fill="#FFFF00" stroke="#000000" stroke-width=".5" d="M0.036,0.0048 L0.179928,0.00516 L0.179928,0.1098288 L0.285228,0.1098288 L0.285228,0.0027252 L0.432756,0.0032052 L0.432756,0.1098852 L0.5382672,0.1098852 L0.5382672,0.0027816 L0.6858912,0.0030216 L0.6856512,0.2444256 C0.6856512,0.2821032 0.6558072,0.3066564 0.6213072,0.3066564 L0.1032792,0.3066564 C0.068568,0.3066564 0.0362904,0.2783988 0.0361836,0.2435796 L0.0358236,0.0049236 L0.0359292,0.0049236 L0.036,0.0048 Z" transform="translate(1.393 .48)"/>
          <path fill="#000000" d="M1.068.6732C1.06482.5979528 1.1731932.5971068 1.1719236.6732L1.1719236.857568 1.0680036.857568 1.0680036.673248M.4284.9408C.42804.868092.5288316.8666112.527562.9408L.527562 1.083252.428442 1.083252.428442.940812"/>
          <path fill="#000000" d="M0.0684,0.1008 C0.06804,0.028092 0.1688316,0.0266112 0.167562,0.1008 L0.167562,0.243252 L0.068442,0.243252 L0.068442,0.100812" transform="translate(1.637 .84)"/>
        </g>
        <g transform="rotate(-45.202 15.339 5.401)">
          <g transform="translate(.003 -.005)">
            <path fill="#FFFF00" d="M0.6228,2.3316 C0.6389916,1.66908 1.109088,1.51224 1.112472,1.509912 C1.115856,1.507692 1.62024,1.678824 1.618548,2.337744 L0.622812,2.3316"/>
            <path fill="#FFFF00" stroke="#000000" stroke-width=".5" d="M.2172 1.5228L.1353936 2.284164.6322656 2.285244C.6370296 1.655328 1.1091336 1.550544 1.1205576 1.552872 1.1312496 1.552272 1.5992256 1.692144 1.6117056 2.285244L2.1098376 2.285244 2.0198832 1.51806.2172432 1.522608.2172432 1.522848.2172 1.5228zM.102 2.2872L2.13552 2.2872C2.1783804 2.2872 2.2134096 2.3295324 2.2134096 2.3812848 2.2134096 2.4329316 2.1783804 2.475054 2.13552 2.475054L.102 2.475054C.0591396 2.475054.0241104 2.4329316.0241104 2.3812848.0241104 2.3295324.0591396 2.2872.102 2.2872z"/>
            <path fill="#FFFF00" stroke="#000000" stroke-width=".5" d="M.8412 2.2836C.84342 1.886088 1.112652 1.773588 1.114032 1.773804 1.1141376 1.773804 1.395108 1.8897972 1.39734 2.2836L.841212 2.2836M.1452 1.206L2.0946 1.206C2.1356616 1.206 2.1693156 1.2442068 2.1693156 1.2905616 2.1693156 1.337022 2.1356616 1.375122 2.0946 1.375122L.1452 1.375122C.1041384 1.375122.0704844 1.3372344.0704844 1.2905616.0704844 1.2442068.1041384 1.206.1452 1.206zM.186 1.3764L2.05056 1.3764C2.0898228 1.3764 2.1219948 1.4143944 2.1219948 1.4608548 2.1219948 1.5074208 2.0898228 1.5454152 2.05056 1.5454152L.186 1.5454152C.1467372 1.5454152.1145652 1.5074208.1145652 1.4608548.1145652 1.4143944.1467372 1.3764.186 1.3764zM.7884.1056L.935604.10584.935604.2104032 1.0430196.2104032 1.0430196.103512 1.1938236.103992 1.1938236.2104596 1.3015572.2104596 1.3015572.1035684 1.4524692.1035684 1.4522292.3449724C1.4522292.3828612 1.4217516.4074144 1.3864044.4074144L.8570484.4074144C.8214888.4074144.788682.3789456.7885764.344232L.7882164.105684.788322.105684.7884.1056z"/>
            <polyline fill="#FFFF00" stroke="#000000" stroke-width=".5" points="1.343 .428 1.376 1.203 .86 1.201 .894 .426 1.343 .428"/>
            <polygon fill="#FFFF00" stroke="#000000" stroke-width=".5" points=".713 .787 .729 1.204 .233 1.205 .247 .787 .713 .787 .713 .787"/>
            <polygon fill="#FFFF00" stroke="#000000" stroke-width=".5" points=".593 .067 .609 .484 .113 .485 .127 .067 .593 .067 .593 .067" transform="translate(1.393 .72)"/>
            <path fill="#FFFF00" stroke="#000000" stroke-width=".5" d="M0.156,0.4848 L0.299928,0.48516 L0.299928,0.5898288 L0.405228,0.5898288 L0.405228,0.4827252 L0.552756,0.4832052 L0.552756,0.5898852 L0.6582672,0.5898852 L0.6582672,0.4827816 L0.8058912,0.4830216 L0.8056512,0.7244256 C0.8056512,0.7621032 0.7758072,0.7866564 0.7413072,0.7866564 L0.2232792,0.7866564 C0.188568,0.7866564 0.1562904,0.7583988 0.1561836,0.7235796 L0.1558236,0.4849236 L0.1559292,0.4849236 L0.156,0.4848 Z"/>
            <path fill="#FFFF00" stroke="#000000" stroke-width=".5" d="M0.036,0.0048 L0.179928,0.00516 L0.179928,0.1098288 L0.285228,0.1098288 L0.285228,0.0027252 L0.432756,0.0032052 L0.432756,0.1098852 L0.5382672,0.1098852 L0.5382672,0.0027816 L0.6858912,0.0030216 L0.6856512,0.2444256 C0.6856512,0.2821032 0.6558072,0.3066564 0.6213072,0.3066564 L0.1032792,0.3066564 C0.068568,0.3066564 0.0362904,0.2783988 0.0361836,0.2435796 L0.0358236,0.0049236 L0.0359292,0.0049236 L0.036,0.0048 Z" transform="translate(1.393 .48)"/>
            <path fill="#000000" d="M1.068.6732C1.06482.5979528 1.1731932.5971068 1.1719236.6732L1.1719236.857568 1.0680036.857568 1.0680036.673248M.4284.9408C.42804.868092.5288316.8666112.527562.9408L.527562 1.083252.428442 1.083252.428442.940812"/>
            <path fill="#000000" d="M0.0684,0.1008 C0.06804,0.028092 0.1688316,0.0266112 0.167562,0.1008 L0.167562,0.243252 L0.068442,0.243252 L0.068442,0.100812" transform="translate(1.637 .84)"/>
          </g>
        </g>
      </g>
      <g transform="translate(6.24 7.2)">
        <path fill="#003399" d="M0.07632,1.36872 L0.07632,1.36932 C0.07632,1.634748 0.1782324,1.876584 0.341736,2.052048 C0.50556,2.228052 0.731184,2.337372 0.977976,2.337372 C1.22604,2.337372 1.451244,2.2287876 1.614324,2.053524 C1.777296,1.87848 1.878576,1.6368612 1.878576,1.370364 L1.878576,0.078204 L0.079536,0.076728 L0.07626,1.368648"/>
        <circle cx=".489" cy=".568" r=".178" fill="#FFFFFF"/>
        <circle cx="1.487" cy=".569" r=".178" fill="#FFFFFF"/>
        <circle cx=".987" cy="1.048" r=".178" fill="#FFFFFF"/>
        <circle cx=".489" cy="1.55" r=".178" fill="#FFFFFF"/>
        <circle cx="1.486" cy="1.549" r=".178" fill="#FFFFFF"/>
      </g>
      <g transform="translate(6.24 4.078)">
        <path fill="#003399" d="M0.07632,1.36872 L0.07632,1.36932 C0.07632,1.634748 0.1782324,1.876584 0.341736,2.052048 C0.50556,2.228052 0.731184,2.337372 0.977976,2.337372 C1.22604,2.337372 1.451244,2.2287876 1.614324,2.053524 C1.777296,1.87848 1.878576,1.6368612 1.878576,1.370364 L1.878576,0.078204 L0.079536,0.076728 L0.07626,1.368648"/>
        <circle cx=".489" cy=".568" r=".178" fill="#FFFFFF"/>
        <circle cx="1.487" cy=".569" r=".178" fill="#FFFFFF"/>
        <circle cx=".987" cy="1.048" r=".178" fill="#FFFFFF"/>
        <circle cx=".489" cy="1.55" r=".178" fill="#FFFFFF"/>
        <circle cx="1.486" cy="1.549" r=".178" fill="#FFFFFF"/>
      </g>
      <g transform="translate(3.744 7.2)">
        <path fill="#003399" d="M0.07632,1.36872 L0.07632,1.36932 C0.07632,1.634748 0.1782324,1.876584 0.341736,2.052048 C0.50556,2.228052 0.731184,2.337372 0.977976,2.337372 C1.22604,2.337372 1.451244,2.2287876 1.614324,2.053524 C1.777296,1.87848 1.878576,1.6368612 1.878576,1.370364 L1.878576,0.078204 L0.079536,0.076728 L0.07626,1.368648"/>
        <circle cx=".489" cy=".568" r=".178" fill="#FFFFFF"/>
        <circle cx="1.487" cy=".569" r=".178" fill="#FFFFFF"/>
        <circle cx=".987" cy="1.048" r=".178" fill="#FFFFFF"/>
        <circle cx=".489" cy="1.55" r=".178" fill="#FFFFFF"/>
        <circle cx="1.486" cy="1.549" r=".178" fill="#FFFFFF"/>
      </g>
      <g transform="translate(8.73 7.2)">
        <path fill="#003399" d="M0.07632,1.36872 L0.07632,1.36932 C0.07632,1.634748 0.1782324,1.876584 0.341736,2.052048 C0.50556,2.228052 0.731184,2.337372 0.977976,2.337372 C1.22604,2.337372 1.451244,2.2287876 1.614324,2.053524 C1.777296,1.87848 1.878576,1.6368612 1.878576,1.370364 L1.878576,0.078204 L0.079536,0.076728 L0.07626,1.368648"/>
        <circle cx=".489" cy=".568" r=".178" fill="#FFFFFF"/>
        <circle cx="1.487" cy=".569" r=".178" fill="#FFFFFF"/>
        <circle cx=".987" cy="1.048" r=".178" fill="#FFFFFF"/>
        <circle cx=".489" cy="1.55" r=".178" fill="#FFFFFF"/>
        <circle cx="1.486" cy="1.549" r=".178" fill="#FFFFFF"/>
      </g>
      <g transform="translate(6.24 10.294)">
        <path fill="#003399" d="M0.07632,1.36872 L0.07632,1.36932 C0.07632,1.634748 0.1782324,1.876584 0.341736,2.052048 C0.50556,2.228052 0.731184,2.337372 0.977976,2.337372 C1.22604,2.337372 1.451244,2.2287876 1.614324,2.053524 C1.777296,1.87848 1.878576,1.6368612 1.878576,1.370364 L1.878576,0.078204 L0.079536,0.076728 L0.07626,1.368648"/>
        <circle cx=".489" cy=".568" r=".178" fill="#FFFFFF"/>
        <circle cx="1.487" cy=".569" r=".178" fill="#FFFFFF"/>
        <circle cx=".987" cy="1.048" r=".178" fill="#FFFFFF"/>
        <circle cx=".489" cy="1.55" r=".178" fill="#FFFFFF"/>
        <circle cx="1.486" cy="1.549" r=".178" fill="#FFFFFF"/>
      </g>
    </g>
  </g>
</svg>
