<svg xmlns="http://www.w3.org/2000/svg" width="216" height="222" viewBox="0 0 216 222">
  <defs>
    <filter id="a" width="200%" height="200%" x="-50%" y="-50%" filterUnits="objectBoundingBox">
      <feOffset in="SourceAlpha" result="shadowOffsetOuter1"/>
      <feGaussianBlur stdDeviation="50" in="shadowOffsetOuter1" result="shadowBlurOuter1"/>
      <feColorMatrix values="0 0 0 0 0 0 0 0 0 0 0 0 0 0 0 0 0 0 0.5 0" in="shadowBlurOuter1" result="shadowMatrixOuter1"/>
      <feMerge>
        <feMergeNode in="shadowMatrixOuter1"/>
        <feMergeNode in="SourceGraphic"/>
      </feMerge>
    </filter>
  </defs>
  <g fill="#000000" fill-rule="evenodd" transform="translate(87 87)" filter="url(#a)">
    <path d="M27,39 L27,43.0003702 C27,45.2079441 25.2044138,47 22.9994984,47 L4.00050165,47 C1.78870373,47 0,45.2091651 0,42.9925509 L0,15.0074491 C0,12.7925507 1.78558199,11 4.00357914,11 L12,11 L12,14 L4.00357914,14 C3.44505776,14 3,14.4467947 3,15.0074491 L3,42.9925509 C3,43.55311 3.44635817,44 4.00050165,44 L22.9994984,44 C23.5488798,44 24,43.5497667 24,43.0003702 L24,39 L27,39 Z"/>
    <path d="M15,17.3804507 L15,4.00744911 C15,1.79255073 16.785582,0 19.0035791,0 L35.6503906,0 C36.0396989,0 36.4137571,0.151358966 36.6935164,0.422090664 L41.5431258,5.1152059 C41.8351351,5.3977922 42,5.78676017 42,6.19311523 L42,32.0003702 C42,34.2079441 40.2044138,36 37.9994984,36 L19.0005016,36 C16.7887037,36 15,34.2091651 15,31.9925509 L15,28.1734158 C15.6694295,27.8315881 16.3527489,27.5518092 17.0475489,27.3289373 C17.2799467,27.2543907 17.6246112,27.1643086 18,27.074266 L18,31.9925509 C18,32.55311 18.4463582,33 19.0005016,33 L37.9994984,33 C38.5488798,33 39,32.5497667 39,32.0003702 L39,6.84265137 L35.0516794,3 L19.0035791,3 C18.4450578,3 18,3.44679473 18,4.00744911 L18,16.2403324 C16.991832,16.5237277 15.975617,16.9065343 15,17.3804507 Z M9,30 C9.47033124,25.7230237 13.7639749,17.6773506 21.9077171,17.8812688 L21.9077171,14 L31,21.3744107 L21.9077171,27.9725677 C21.9077171,27.9725677 21.9077171,25.503418 21.9077171,24.0912989 C21.9077171,23.0118354 14.2996956,24.0901618 9,30 Z"/>
  </g>
</svg>
