<svg xmlns="http://www.w3.org/2000/svg" width="216" height="221" viewBox="0 0 216 221">
  <defs>
    <filter id="a" width="200%" height="200%" x="-50%" y="-50%" filterUnits="objectBoundingBox">
      <feOffset in="SourceAlpha" result="shadowOffsetOuter1"/>
      <feGaussianBlur stdDeviation="50" in="shadowOffsetOuter1" result="shadowBlurOuter1"/>
      <feColorMatrix values="0 0 0 0 0 0 0 0 0 0 0 0 0 0 0 0 0 0 0.5 0" in="shadowBlurOuter1" result="shadowMatrixOuter1"/>
      <feMerge>
        <feMergeNode in="shadowMatrixOuter1"/>
        <feMergeNode in="SourceGraphic"/>
      </feMerge>
    </filter>
  </defs>
  <g fill="#000000" fill-rule="evenodd" transform="translate(87 87)" filter="url(#a)">
    <path d="M15,18.8265842 L15,15.0074491 C15,12.7925507 16.785582,11 19.0035791,11 L35.6503906,11 C36.0396989,11 36.4137571,11.151359 36.6935164,11.4220907 L41.5431258,16.1152059 C41.8351351,16.3977922 42,16.7867602 42,17.1931152 L42,43.0003702 C42,45.2079441 40.2044138,47 37.9994984,47 L19.0005016,47 C16.7887037,47 15,45.2091651 15,42.9925509 L15,29.6195493 C15.975617,30.0934657 16.991832,30.4762723 18,30.7596676 L18,42.9925509 C18,43.55311 18.4463582,44 19.0005016,44 L37.9994984,44 C38.5488798,44 39,43.5497667 39,43.0003702 L39,17.8426514 L35.0516794,14 L19.0035791,14 C18.4450578,14 18,14.4467947 18,15.0074491 L18,19.925734 C17.6246112,19.8356914 17.2799467,19.7456093 17.0475489,19.6710627 C16.3527489,19.4481908 15.6694295,19.1684119 15,18.8265842 Z M9,17 C9.47033124,21.2769763 13.7639749,29.3226494 21.9077171,29.1187312 L21.9077171,33 L31,25.6255893 L21.9077171,19.0274323 C21.9077171,19.0274323 21.9077171,21.496582 21.9077171,22.9087011 C21.9077171,23.9881646 14.2996956,22.9098382 9,17 Z"/>
    <path d="M12,36 L4.00050165,36 C1.78870373,36 0,34.2091651 0,31.9925509 L0,4.00744911 C0,1.79255073 1.78558199,0 4.00357914,0 L20.6503906,0 C21.0396989,0 21.4137571,0.151358966 21.6935164,0.422090664 L26.5431258,5.1152059 C26.8351351,5.3977922 27,5.78676017 27,6.19311523 L27,7 L24,7 L24,6.84265137 L20.0516794,3 L4.00357914,3 C3.44505776,3 3,3.44679473 3,4.00744911 L3,31.9925509 C3,32.55311 3.44635817,33 4.00050165,33 L12,33 L12,36 Z"/>
  </g>
</svg>
