<svg xmlns="http://www.w3.org/2000/svg" width="298" height="207" viewBox="0 0 298 207">
  <defs>
    <filter id="a" width="200%" height="200%" x="-50%" y="-50%" filterUnits="objectBoundingBox">
      <feOffset dy="40" in="SourceAlpha" result="shadowOffsetOuter1"/>
      <feGaussianBlur stdDeviation="100" in="shadowOffsetOuter1" result="shadowBlurOuter1"/>
      <feColorMatrix values="0 0 0 0 0 0 0 0 0 0 0 0 0 0 0 0 0 0 0.5 0" in="shadowBlurOuter1" result="shadowMatrixOuter1"/>
      <feMerge>
        <feMergeNode in="shadowMatrixOuter1"/>
        <feMergeNode in="SourceGraphic"/>
      </feMerge>
    </filter>
  </defs>
  <path fill="#FFFFFF" fill-rule="evenodd" d="M424,7.76415129 L424,7.20002681 C424,4.886246 422.118581,3 419.797732,3 L362.202268,3 C359.875224,3 358,4.88041605 358,7.20002681 L358,45 L424,45 L424,42.2362057 C422.92176,41.4841433 421.917405,40.6334886 421,39.6973067 L421,42 L361,42 L361,7.20002681 C361,6.53480367 361.534544,6 362.202268,6 L419.797732,6 C420.459428,6 421,6.54080146 421,7.20002681 L421,10.3031612 C421.91741,9.36694704 422.921766,8.5162543 424,7.76415129 Z M446,43.4709681 L446,45.9936839 C446,49.3117828 448.682788,52 451.992175,52 L467.007825,52 C470.312427,52 473,49.3108807 473,45.9936839 L473,8.00631606 C473,4.68821716 470.317212,2 467.007825,2 L451.992175,2 C449.163732,2 446.787313,3.97000259 446.161202,6.61768231 C447.160156,7.17106196 448.109237,7.80350536 449,8.50656523 L449,8.00631606 C449,6.34641781 450.343989,5 451.992175,5 L467.007825,5 C468.659153,5 470,6.34387157 470,8.00631606 L470,45.9936839 C470,47.6535822 468.656011,49 467.007825,49 L451.992175,49 C450.340847,49 449,47.6561284 449,45.9936839 L449,41.4938321 C448.061455,42.2345686 447.058162,42.8969067 446,43.4709681 Z M350,47 L432,47 L432,48.5 C432,49.3284271 431.327893,50 430.506738,50 L351.493262,50 C350.668556,50 350,49.3342028 350,48.5 L350,47 Z M459.5,47.2830189 C460.271294,47.2830189 460.896552,46.6494596 460.896552,45.8679245 C460.896552,45.0863895 460.271294,44.4528302 459.5,44.4528302 C458.728706,44.4528302 458.103448,45.0863895 458.103448,45.8679245 C458.103448,46.6494596 458.728706,47.2830189 459.5,47.2830189 Z M453,25 C453,15.6112761 445.388724,8 436,8 C426.610776,8 419,15.6107762 419,25 C419,34.3892238 426.610776,42 436,42 C445.388724,42 453,34.3887239 453,25 Z M440.585786,24 L436.461212,19.8754252 C436.072485,19.4866983 436.071219,18.857713 436.464466,18.4644661 C436.85499,18.0739418 437.493776,18.0795627 437.875425,18.4612117 L443.538788,24.1245748 C443.776912,24.3626988 443.869643,24.6909792 443.815358,25 C443.869643,25.3090208 443.776912,25.6373012 443.538788,25.8754252 L437.875425,31.5387883 C437.493776,31.9204373 436.85499,31.9260582 436.464466,31.5355339 C436.071219,31.142287 436.072485,30.5133017 436.461212,30.1245748 L440.585786,26 L429.006845,26 C428.45078,26 428,25.5561352 428,25 C428,24.4477153 428.449949,24 429.006845,24 L440.585786,24 L440.585786,24 Z" transform="translate(-264 55)" filter="url(#a)"/>
</svg>
