<svg xmlns="http://www.w3.org/2000/svg" width="50" height="50" viewBox="0 0 50 50" xmlns:xlink="http://www.w3.org/1999/xlink">
  <defs>
    <rect id="b" width="46" height="46" rx="11.13"/>
    <filter id="a" width="200%" height="200%" x="-50%" y="-50%" filterUnits="objectBoundingBox">
      <feOffset dy="1" in="SourceAlpha" result="shadowOffsetOuter1"/>
      <feGaussianBlur stdDeviation=".5" in="shadowOffsetOuter1" result="shadowBlurOuter1"/>
      <feColorMatrix values="0 0 0 0 0 0 0 0 0 0 0 0 0 0 0 0 0 0 0.4 0" in="shadowBlurOuter1"/>
    </filter>
    <linearGradient id="c" x1="0%" y1="0%" y2="100%">
      <stop stop-color="#33A2C6" offset="0%"/>
      <stop stop-color="#35C591" offset="100%"/>
    </linearGradient>
  </defs>
  <g fill="none" fill-rule="evenodd" transform="translate(2 1)">
    <use fill="black" filter="url(#a)" xlink:href="#b"/>
    <use fill="#FFFFFF" xlink:href="#b"/>
    <path fill="url(#c)" d="M25.6953125,21.861804 L25.6953125,24.8814811 C25.6953125,26.076596 24.7315768,27.0454281 23.5337996,27.0454281 L22.4662004,27.0454281 C21.2724298,27.0454281 20.3046875,26.0890297 20.3046875,24.8814811 L20.3046875,21.861804 C19.108834,21.0151937 18.328125,19.6203414 18.328125,18.0430337 C18.328125,15.4612589 20.4197947,13.3683169 23,13.3683169 C25.5802053,13.3683169 27.671875,15.4612589 27.671875,18.0430337 C27.671875,19.6203414 26.891166,21.0151937 25.6953125,21.861804 Z M11.859375,18.2225421 C11.859375,26.2019123 22.4604496,39.7211027 23,39.7211027 C23.5395051,39.7211027 34.140625,26.1978438 34.140625,18.2225421 C34.140625,9.84067101 27.7719916,6.2788973 23,6.2788973 C18.2280084,6.2788973 11.859375,9.570272 11.859375,18.2225421 Z"/>
  </g>
</svg>
