<svg xmlns="http://www.w3.org/2000/svg" width="80" height="80" viewBox="0 0 80 80">
  <g fill="#000000" fill-rule="evenodd" transform="translate(16 16)">
    <path d="M11.8794483,0 L10.7588966,0 C4.81710345,0 0,4.81682759 0,10.7586207 L0,37.2413793 C0,43.1831724 4.81710345,48 10.7588966,48 L11.8794483,48 L13,48 L13,0 L11.8794483,0 Z M13,6 L19,6 L19,12 L13,12 L13,6 Z M25,0 L31,0 L31,6 L25,6 L25,0 Z M31,6 L37,6 L37,12 L31,12 L31,6 Z M19,12 L25,12 L25,18 L19,18 L19,12 Z M25,18 L31,18 L31,24 L25,24 L25,18 Z M13,18 L19,18 L19,24 L13,24 L13,18 Z M25,30 L31,30 L31,36 L25,36 L25,30 Z M13,36 L19,36 L19,42 L13,42 L13,36 Z M19,30 L25,30 L25,36 L19,36 L19,30 Z M19,36 L25,36 L25,42 L19,42 L19,36 Z M13,42 L19,42 L19,48 L13,48 L13,42 Z M25,42 L31,42 L31,48 L25,48 L25,42 Z"/>
    <path d="M31,36 L37,36 L37,42 L31,42 L31,36 Z M42,18 L48,18 L48,24 L42,24 L42,18 Z M19,24 L25,24 L25,30 L19,30 L19,24 Z M37,0 L43,0 L43,6 L37,6 L37,0 Z M19,6 L25,6 L25,12 L19,12 L19,6 Z M13,24 L19,24 L19,30 L13,30 L13,24 Z M13,0 L19,0 L19,6 L13,6 L13,0 Z M19,42 L25,42 L25,48 L19,48 L19,42 Z" opacity=".4"/>
  </g>
</svg>
