<svg xmlns="http://www.w3.org/2000/svg" width="80" height="80" viewBox="0 0 80 80">
  <g fill="#000000" fill-rule="evenodd" transform="translate(16 16)">
    <path d="M48,24 C48,10.745166 37.254834,0 24,0 C10.745166,0 0,10.745166 0,24 C0,37.254834 10.745166,48 24,48 C37.254834,48 48,37.254834 48,24 Z M10,23.8359784 C10,21.717426 11.7093762,20 13.8345708,20 L34.1654292,20 C36.2832042,20 38,21.7162007 38,23.8359784 L38,24.1640216 C38,26.282574 36.2906238,28 34.1654292,28 L13.8345708,28 C11.7167958,28 10,26.2837993 10,24.1640216 L10,23.8359784 Z"/>
    <path d="M48,24 C48,10.745166 37.254834,0 24,0 C10.745166,0 0,10.745166 0,24 C0,37.254834 10.745166,48 24,48 C37.254834,48 48,37.254834 48,24 Z" opacity=".25"/>
  </g>
</svg>
