<svg xmlns="http://www.w3.org/2000/svg" width="80" height="80" viewBox="0 0 80 80">
  <path fill="#000000" fill-rule="evenodd" d="M60,31 L60,26.008788 C60,24.3455902 58.6539436,23 56.9934988,23 L23.0065012,23 C21.3423094,23 20,24.3470803 20,26.008788 L20,31 L60,31 Z M60,33 L60,40.991212 C60,42.6529197 58.6576906,44 56.9934988,44 L23.0065012,44 C21.3460564,44 20,42.6544098 20,40.991212 L20,33 L60,33 Z M20,50.9968697 C20,49.3417443 21.3423094,48 23.0065012,48 L56.9934988,48 C58.6539436,48 60,49.3473909 60,50.9968697 L60,54.0031303 C60,55.6582557 58.6576906,57 56.9934988,57 L23.0065012,57 C21.3460564,57 20,55.6526091 20,54.0031303 L20,50.9968697 Z"/>
</svg>
