<svg xmlns="http://www.w3.org/2000/svg" width="174" height="174" viewBox="0 0 174 174">
  <defs>
    <linearGradient id="a" x1="0%" y1="0%" y2="100%">
      <stop stop-color="#33A2C6" offset="0%"/>
      <stop stop-color="#35C591" offset="100%"/>
    </linearGradient>
  </defs>
  <path fill="url(#a)" fill-rule="evenodd" d="M119.999299,95.3476981 L119.999299,46.0037017 C119.999299,44.3470557 118.656166,43 116.999328,43 C115.345861,43 113.999356,44.344803 113.999356,46.0037017 L113.999356,95.3480157 C108.266281,96.7025768 104,101.853067 104,108 C104,114.146933 108.266281,119.297423 113.999356,120.651984 L113.999356,127.996298 C113.999356,129.652944 115.342489,131 116.999328,131 C118.652795,131 119.999299,129.655197 119.999299,127.996298 L119.999299,120.652302 C125.733052,119.298229 130,114.147414 130,108 C130,101.852586 125.733052,96.7017714 119.999299,95.3476981 Z M89.9994713,61.3477388 L89.9994713,46.0037017 C89.9994713,44.3470557 88.6563384,43 86.9995,43 C85.346033,43 83.9995287,44.344803 83.9995287,46.0037017 L83.9995287,61.347975 C78.2663662,62.7024735 74,67.8530052 74,74 C74,80.1469948 78.2663662,85.2975265 83.9995287,86.652025 L83.9995287,127.996298 C83.9995287,129.652944 85.3426616,131 86.9995,131 C88.652967,131 89.9994713,129.655197 89.9994713,127.996298 L89.9994713,86.6522612 C95.7331377,85.2981254 100,80.1473522 100,74 C100,67.8526478 95.7331377,62.7018746 89.9994713,61.3477388 Z M59.9996437,85.3477795 L59.9996437,46.0037017 C59.9996437,44.3470557 58.6565108,43 56.9996724,43 C55.3462054,43 53.9997012,44.344803 53.9997012,46.0037017 L53.9997012,85.3479343 C48.2664517,86.7023703 44,91.8529435 44,98 C44,104.147056 48.2664517,109.29763 53.9997012,110.652066 L53.9997012,127.996298 C53.9997012,129.652944 55.342834,131 56.9996724,131 C58.6531395,131 59.9996437,129.655197 59.9996437,127.996298 L59.9996437,110.65222 C65.7332232,109.298022 70,104.147291 70,98 C70,91.8527094 65.7332232,86.7019779 59.9996437,85.3477795 Z M134.997224,0 L39.0007759,0 C17.4618996,0 0,17.461 0,39 L0,135 C0,156.539 17.4618996,174 39.0007759,174 L134.998224,174 C156.5381,174 174,156.539 174,135 L174,39 C173.999,17.461 156.5371,0 134.997224,0 Z M57,105 C60.8659932,105 64,101.865993 64,98 C64,94.1340068 60.8659932,91 57,91 C53.1340068,91 50,94.1340068 50,98 C50,101.865993 53.1340068,105 57,105 Z M87,81 C90.8659932,81 94,77.8659932 94,74 C94,70.1340068 90.8659932,67 87,67 C83.1340068,67 80,70.1340068 80,74 C80,77.8659932 83.1340068,81 87,81 Z M117,115 C120.865993,115 124,111.865993 124,108 C124,104.134007 120.865993,101 117,101 C113.134007,101 110,104.134007 110,108 C110,111.865993 113.134007,115 117,115 Z"/>
</svg>
