<svg xmlns="http://www.w3.org/2000/svg" width="80" height="80" viewBox="0 0 80 80">
  <defs>
    <linearGradient id="a" x1="0%" y1="0%" y2="100%">
      <stop stop-color="#33A2C6" offset="0%"/>
      <stop stop-color="#35C591" offset="100%"/>
    </linearGradient>
  </defs>
  <g fill="none" fill-rule="evenodd" transform="translate(16 9.354)">
    <path fill="#000000" d="M43,17.1672627 L43,29.7463514 C43,32.699219 40.8350446,35.1454117 38,35.5781612 L38,23.7628327 C38,19.2896598 34.3660391,15.6461538 29.8833212,15.6461538 L17.1166788,15.6461538 C17.0777223,15.6461538 17.0388288,15.6464295 17,15.6469789 L17,15.5459563 C17,12.2875854 19.636101,9.64615385 22.8998024,9.64615385 L36.7415925,9.64615385 C36.688901,9.97943293 36.6615385,10.3211364 36.6615385,10.6692308 C36.6615385,14.2050791 39.4847908,17.0815216 43,17.1672627 Z"/>
    <path fill="#000000" d="M35,25.8710564 L35,38.7463514 C35,42.0047223 32.363899,44.6461538 29.1001976,44.6461538 L29,44.6461538 L29,33.7628327 C29,29.2896598 25.3660391,25.6461538 20.8833212,25.6461538 L9,25.6461538 L9,24.5459563 C9,21.2875854 11.636101,18.6461538 14.8998024,18.6461538 L27.1212296,18.6461538 C27.0818697,18.9354087 27.0615385,19.2307147 27.0615385,19.5307692 C27.0615385,23.1206201 29.9716876,26.0307692 33.5615385,26.0307692 C34.0558545,26.0307692 34.5372828,25.9755905 35,25.8710564 Z"/>
    <path fill="#000000" d="M18.9433273,28.6461538 L5.89980245,28.6461538 C2.63610098,28.6461538 0,31.2875854 0,34.5459563 L0,48.7463514 C0,52.0100529 2.64143153,54.6461538 5.89980245,54.6461538 L20.1001976,54.6461538 C23.363899,54.6461538 26,52.0047223 26,48.7463514 L26,34.8683895 C25.8149257,34.8842262 25.6276374,34.8923077 25.4384615,34.8923077 C21.933617,34.8923077 19.0766652,32.1183493 18.9433273,28.6461538 Z"/>
    <circle cx="25.415" cy="28.369" r="4" fill="url(#a)"/>
    <circle cx="43.138" cy="10.646" r="4" fill="url(#a)"/>
    <circle cx="33.538" cy="19.508" r="4" fill="url(#a)"/>
  </g>
</svg>
