<svg xmlns="http://www.w3.org/2000/svg" width="80" height="80" viewBox="0 0 80 80">
  <path fill="#000000" fill-rule="evenodd" d="M42,24.0059034 C42,21.7935041 43.7953562,20 46,20 C48.209139,20 50,21.7880823 50,24.0059034 L50,56.9940966 C50,59.2064959 48.2046438,61 46,61 C43.790861,61 42,59.2119177 42,56.9940966 L42,24.0059034 Z M29,24.0059034 C29,21.7935041 30.7953562,20 33,20 C35.209139,20 37,21.7880823 37,24.0059034 L37,56.9940966 C37,59.2064959 35.2046438,61 33,61 C30.790861,61 29,59.2119177 29,56.9940966 L29,24.0059034 Z"/>
</svg>
