<svg xmlns="http://www.w3.org/2000/svg" width="80" height="80" viewBox="0 0 80 80">
  <path fill="#000000" fill-rule="evenodd" d="M57.3869669,56.9533105 C55.3394547,56.9533105 53.6796199,56.3478568 53.6796199,55.6009172 C53.6796199,55.1333074 54.3304677,54.7211 55.3197252,54.4783005 L55.3197252,55.3450948 C55.3197252,56.1248123 59.4542085,56.1248123 59.4542085,55.3450948 L59.4542085,54.4783005 C60.4433546,54.7211 61.0942024,55.1333074 61.0942024,55.6009172 C61.0942024,56.3478568 59.4343676,56.9533105 57.3869669,56.9533105 L57.3869669,56.9533105 Z M59.4542085,54.2963112 L59.4542085,27.7681468 C59.4542085,27.0919502 58.9004473,26.5437751 58.2174973,26.5437751 L56.556325,26.5437751 C55.873375,26.5437751 55.3197252,27.0919502 55.3197252,27.7681468 L55.3197252,54.2963112 C52.680219,54.6130542 50.7739338,55.5189172 50.7739338,56.5877868 C50.7739338,57.9199836 53.7346839,59 57.3869669,59 C61.0392498,59 64,57.9199836 64,56.5877868 C64,55.5189172 62.0936033,54.6130542 59.4542085,54.2963112 Z M57.3869669,26.1169997 C58.8140614,26.1169997 59.9709632,24.9715379 59.9709632,23.5585551 C59.9709632,22.1454619 58.8140614,21 57.3869669,21 C55.9598724,21 54.8028591,22.1454619 54.8028591,23.5585551 C54.8028591,24.9715379 55.9598724,26.1169997 57.3869669,26.1169997 Z M24.6803862,54.2963112 L24.6803862,27.7681468 C24.6803862,27.0919502 24.126625,26.5437751 23.443675,26.5437751 L21.7825027,26.5437751 C21.0995527,26.5437751 20.5459029,27.0919502 20.5459029,27.7681468 L20.5459029,54.2963112 C17.9063967,54.6130542 16,55.5189172 16,56.5877868 C16,57.9199836 18.9607502,59 22.6131446,59 C26.2654275,59 29.2261777,57.9199836 29.2261777,56.5877868 C29.2261777,55.5189172 27.319781,54.6130542 24.6803862,54.2963112 Z M22.6131446,56.9533105 C20.5656324,56.9533105 18.9057976,56.3478568 18.9057976,55.6009172 C18.9057976,55.1333074 19.5566454,54.7211 20.5459029,54.4783005 L20.5459029,55.3450948 C20.5459029,56.1248123 24.6803862,56.1248123 24.6803862,55.3450948 L24.6803862,54.4783005 C25.6695323,54.7211 26.3203801,55.1333074 26.3203801,55.6009172 C26.3203801,56.3478568 24.6606568,56.9533105 22.6131446,56.9533105 Z M54.7267281,35.7661835 L54.7267281,28.0298185 C54.6523805,28.0169059 54.5766953,28.0076354 54.4988923,28.00598 C53.6804002,27.9900876 53.0091541,28.6306369 52.9925457,29.4378349 C52.8325926,37.1932928 47.0049463,43.5028796 40.0018949,43.5028796 C32.8369954,43.5028796 27.0079001,37.0427571 27.0079001,29.1022198 C27.0079001,28.294801 26.3467975,27.6402356 25.5312034,27.6402356 C25.4412506,27.6402356 25.3535272,27.6495061 25.2679216,27.6648466 C25.269928,27.6991697 25.2731605,27.733272 25.2731605,27.7681468 L25.2731605,35.7650799 C26.0552034,37.8060305 27.2000669,39.6832018 28.673754,41.2988119 C31.6905714,44.6057412 35.7135891,46.4268479 40.0018949,46.4268479 C44.2262195,46.4268479 48.2064344,44.6522042 51.2093185,41.4295925 C52.7380697,39.7891507 53.9225035,37.8645231 54.7267281,35.7661835 Z M22.6131446,26.1169997 C24.0402391,26.1169997 25.1971409,24.9715379 25.1971409,23.5585551 C25.1971409,22.1454619 24.0402391,21 22.6131446,21 C21.1859386,21 20.0290368,22.1454619 20.0290368,23.5585551 C20.0290368,24.9715379 21.1859386,26.1169997 22.6131446,26.1169997 Z"/>
</svg>
