<?xml version="1.0" encoding="UTF-8"?>
<svg width="174px" height="174px" viewBox="0 0 174 174" version="1.1" xmlns="http://www.w3.org/2000/svg" xmlns:xlink="http://www.w3.org/1999/xlink">
    <!-- Generator: Sketch 40.1 (33804) - http://www.bohemiancoding.com/sketch -->
    <title>retina-alt</title>
    <desc>Created with Sketch.</desc>
    <defs>
        <linearGradient x1="0%" y1="0%" x2="100%" y2="100%" id="linearGradient-1">
            <stop stop-color="#33A2C6" offset="0%"></stop>
            <stop stop-color="#35C591" offset="100%"></stop>
        </linearGradient>
    </defs>
    <g id="Web" stroke="none" stroke-width="1" fill="none" fill-rule="evenodd">
        <g id="retina-alt" fill="url(#linearGradient-1)">
            <path d="M134.999,0 L39.001,0 C17.462,0 0,17.461 0,39 L0,135 C0,156.539 17.462,174 39.001,174 L134.999,174 C156.539,174 174,156.539 174,135 L174,39 C174,17.461 156.538,0 134.999,0 L134.999,0 Z M87,119 C51,119 29,90.934 29,87 C29,83.066 51,55 87,55 C123,55 145,82.931 145,87 C145,91.069 123,119 87,119 L87,119 Z M87,60 C72.088,60 60,72.088 60,87 C60,101.912 72.088,114 87,114 C101.912,114 114,101.912 114,87 C114,72.088 101.912,60 87,60 L87,60 Z M87,101 C79.268,101 73,94.732 73,87 C73,79.268 79.268,73 87,73 C87.94,73 88.857,73.096 89.745,73.273 L87,87 L100.727,84.255 C100.904,85.143 101,86.06 101,87 C101,94.732 94.732,101 87,101 L87,101 Z" id="Retina"></path>
        </g>
    </g>
</svg>