<svg xmlns="http://www.w3.org/2000/svg" width="80" height="80" viewBox="0 0 80 80">
  <g fill="#1B1A18" fill-rule="evenodd">
    <path d="M41.800995,49.4985 C41.5411162,50.129 40.4513511,49.9395 40.3741996,49.9835 C40.297048,50.028 40.306692,50.102 40.3376541,50.126 C49.8587602,57.548 62.2892905,47.737 56.8166086,42.8435 C57.0079647,42.7605 57.2084571,42.711 57.415548,42.687 C57.4135177,42.6865 57.4135177,42.685 57.4135177,42.685 C54.5792147,40.6305 53.4711768,37.941 53.0945556,36.0245 C52.8306162,34.6855 53.7950102,33.4365 54.3980102,32.8065 C54.5299799,31.8835 54.6000253,30.7845 54.6000253,29.4735 C54.6000253,25.07 51.0876011,21.5 46.7544268,21.5 C43.0668889,21.5 40.8650253,22.867 40.289942,26.947 C39.8894647,26.878 39.4818814,26.818 39.074298,26.7595 C38.8783738,27.8065 39.0189723,31.834 39.660548,34.0465 C40.846245,38.141 44.4358208,43.088 41.800995,49.4985"/>
    <path d="M62.996142 30.5253535C62.0276875 31.3408535 60.9734526 32.1918535 60.4841496 32.7428535 59.3212935 34.0513535 60.3552254 39.2058535 61.2186117 42.0153535 61.0775057 42.9628535 59.0979602 42.4143535 58.8045814 42.5073535 58.5964754 42.5728535 60.376036 43.4933535 61.7459829 44.1783535 62.2454375 44.4453535 62.7489526 44.7028535 63.2468845 44.9163535 63.2489148 44.9178535 63.2499299 44.9178535 63.2499299 44.9178535 65.5736117 45.9133535 67.7805511 45.9343535 69.0799451 41.3758535 69.1215663 39.5208535 69.2256193 37.2263535 70.1260587 35.9773535 76.5083163 27.1283535 69.6631496 28.4518535 62.996142 30.5253535M14.5785028 38.459C14.207465 38.8355 13.654715 38.899 13.3440786 38.6015 13.0329347 38.3045 13.0826771 37.759 13.4542225 37.3815 13.8252604 37.006 14.3780104 36.9415 14.6886468 37.2385 14.9992831 37.5375 14.9500483 38.0825 14.5785028 38.459L14.5785028 38.459zM33.775018 31.8455C32.3228437 31.8455 30.6265256 32.249 29.4393059 32.9895 29.4230634 32.9995 29.4073286 33.01 29.3915937 33.0195 29.390071 33.02 29.3880407 33.022 29.386518 33.022 29.3839801 33.0235 29.3824574 33.0255 29.3804271 33.027 29.2276468 33.1225 29.0997377 33.2245 29.004821 33.3335 28.5353134 33.8135 28.3063968 34.487 28.187624 35.236 28.1490483 35.387 28.1201165 35.5325 28.096768 35.6765 28.003374 36.265 27.8612528 36.0325 27.8769877 35.4305 27.8927225 34.827 28.2505634 33.6385 28.5043513 33.1745 28.7972225 32.638 29.2789119 32.2055 30.0103286 31.814 30.5036922 31.5505 32.5136922 31.021 32.7004801 30.918 33.2105937 30.64 33.3669271 29.898 33.3826619 29.682 33.3983968 29.4665 33.4928059 27.967 33.2730256 27.164 33.0537528 26.361 35.4434195 26.5435 35.5109271 26.2095 36.1382907 20.73 31.2929725 19 27.1450634 19 24.7284953 19 22.5423665 20.5625 21.1033892 22.309 19.9780937 23.675 22.2870559 25.428 22.3525331 27.344 19.4852377 28.035 16.9681695 29.1115 15.0759271 30.707 14.9561392 30.8075 14.830768 30.9085 14.703874 31.0105 14.7150407 31.059 14.8505634 31.082 15.2347983 31.057 20.0344347 30.8255 22.6382983 34.9975 22.7636695 35.337 22.8890407 35.6765 23.0616165 35.851 23.4849347 36.79 23.942768 37.804 24.6005862 40.2295 24.7711316 40.9315 24.9701013 41.7445 24.7919422 43.0635 24.7614877 43.434 24.7295104 43.8045 23.6108134 47.7295 22.5438892 48.4405 21.4774725 49.151 22.1987377 48.1 20.5049574 49.059 18.8111771 50.016 16.301215 50.17 16.1758437 49.9545 16.049965 49.7375 17.5249801 48.4405 18.4340483 47.2045 19.3441316 45.9685 20.0034725 44.052 19.9400256 42.569 19.9014498 41.642 19.9364725 41.669 19.2187604 40.0965 18.5015559 38.5245 17.0224801 38.397 16.5839347 37.2535 16.144374 36.109 14.7957453 35.059 14.3561847 34.8385 13.9171316 34.617 13.4461013 34.4715 12.0974725 34.163 10.8183816 33.8695 9.66466193 34.7385 9.5479195 34.8305 8.98248011 35.3225 8.50891193 35.814 8.19726041 36.305 7.32118465 37.6835 6.05884374 41.766 6.11670738 41.961 6.18726041 42.1965 7.43183617 42.0745 7.98763162 42.1365 10.3184195 42.393 10.7128059 42.813 10.1103134 42.847 9.68547253 42.87 8.85660132 42.6695 8.03991193 42.6515 7.01105587 42.6275 6.01468465 42.787 6.0116392 42.847 5.82332859 46.431 7.94956344 46.491 10.2468513 48.09 11.8076468 49.177 13.2577907 50.027 15.8169877 51.0175 17.2478437 51.5715 18.5284574 52.17 20.3196922 52.612 21.199321 52.8295 22.0682907 53.129 22.9621316 53.3645 22.338321 57.9475 23.661571 59.3015 26.4999347 59.0755 26.6217528 59.0655 25.9776392 57.0295 26.1045331 57.0155 28.5987604 66.1795 38.528465 59.59 34.4338513 53.5395 34.0770256 53.012 32.5324725 52.547 31.386874 52.136 35.6743665 51.0005 36.3002074 50.301 36.2915786 49.984 36.3306619 49.914 36.2753362 49.847 36.1733134 49.7875 36.170268 49.785 36.1687453 49.784 36.1687453 49.784L36.1682377 49.784C35.9388134 49.6515 35.4814877 49.7505 35.3906316 49.754 35.1048665 49.764 33.942518 50.0685 32.3949195 50.1395 31.5569119 50.1915 30.2103134 49.818 29.8204953 49.258 30.4844044 49.4815 32.0771771 49.6785 33.4405256 49.439 34.2795483 49.2915 35.0789801 49.1905 35.667768 48.883 36.0210407 48.6985 36.656018 48.0655 36.8813816 47.7395 37.5107756 46.828 37.9102377 44.401 38.5746544 43.31 38.6578968 43.1745 38.7416468 42.986 38.8243816 42.763 39.5329574 41.6565 39.9481544 40.316 39.9481544 38.8695 39.9481544 35.08 37.2915028 31.8455 33.775018 31.8455L33.775018 31.8455z"/>
  </g>
</svg>
