<svg xmlns="http://www.w3.org/2000/svg" width="80" height="80" viewBox="0 0 80 80">
  <path fill="#000000" fill-rule="evenodd" d="M65,49.5013005 L65,51.8573231 C65,52.4884061 64.4910909,53 63.8487015,53 L63.1512985,53 C62.5154539,53 62,52.4884434 62,51.8573231 L62,49.5013005 C61.3927766,49.0450841 61,48.3187328 61,47.5006208 C61,46.1195661 62.1192881,45 63.5,45 C64.8807119,45 66,46.1195661 66,47.5006208 C66,48.3187328 65.6072234,49.0450841 65,49.5013005 Z M65.3081537,42 L68.1838994,36.8120174 C68.9764325,35.3821108 68.1171622,33.3905529 66.2653951,32.363943 C64.4131562,31.3373889 62.2692012,31.6643596 61.4765618,33.0940794 C61.4766779,33.0943333 61.1911381,33.6094608 60.9981736,33.9571145 L60.5197854,34.8201497 C60.3270401,35.1683348 59.5410668,35.4060674 59.20298,35.2184425 L58.3645628,34.7537003 C58.0266593,34.5666177 57.8117248,33.773945 58.0045338,33.4259229 L58.482922,32.5628878 C58.6757144,32.2152664 58.9613084,31.7000412 58.9613102,31.6998527 C60.546789,28.8402066 64.4589702,27.9779953 67.7005597,29.7748377 C70.9420018,31.5715983 72.2844202,35.3464818 70.699151,38.2062441 L68.5962378,42 L69.9998938,42 C71.104522,42 72,42.8970601 72,44.0058587 L72,53.9941413 C72,55.1019465 71.1099416,56 69.9998938,56 L57.0001062,56 C55.895478,56 55,55.1029399 55,53.9941413 L55,44.0058587 C55,42.8980535 55.8900584,42 57.0001062,42 L65.3081537,42 Z M52,49.8960911 C51.8842656,50.0811566 51.7363664,50.2504954 51.5572052,50.3955302 C50.6889852,51.0983727 49.4153874,50.9643078 48.7125449,50.0960878 C46.5726518,47.4526822 43.3911666,45.8943087 39.955476,45.8943087 C36.5386195,45.8943087 33.3728597,47.435484 31.2325831,50.0540728 C30.5256632,50.9189762 29.2514487,51.0470471 28.3865453,50.3401272 C27.5216419,49.6332074 27.393571,48.3589928 28.1004909,47.4940895 C30.9996097,43.9470713 35.3090454,41.8491243 39.955476,41.8491243 C44.6275296,41.8491243 48.9581666,43.970382 51.8566476,47.5508699 C51.909074,47.6156322 51.956844,47.68265 52,47.7515181 L52,49.896093 L52,49.8960911 Z M57.360854,39 C52.7015006,34.4988209 46.505566,31.9049575 39.8979109,31.9049575 C32.2583388,31.9049575 25.1668455,35.3717796 20.3629598,41.2528596 C19.6499761,42.1257184 19.7607244,43.4271217 20.6103229,44.1596253 C21.4599214,44.8921289 22.7266445,44.7783486 23.4396281,43.9054899 C27.4876403,38.9497759 33.4572163,36.0314261 39.8979109,36.0314261 C44.5783327,36.0314261 49.0091274,37.5728599 52.6336921,40.3147835 C53.2243114,39.5172179 54.1718737,39 55.2344042,39 L57.360854,39 L57.360854,39 Z M59.1606755,27.8477134 C53.5178712,24.0906737 46.854569,22.0014328 39.858444,22.0014328 C29.1839714,22.0014328 19.2809694,26.8643914 12.5934959,35.1061026 C11.8832993,35.9813563 11.9981965,37.2823799 12.8501261,38.0120202 C13.7020557,38.7416605 14.9684092,38.6236176 15.6786058,37.748364 C21.6103078,30.4380733 30.3876067,26.1279014 39.858444,26.1279014 C45.8079179,26.1279014 51.4826869,27.8291142 56.3493523,30.9038995 L56.5114578,30.6034469 C57.1531191,29.4144303 58.0750197,28.4888473 59.1606755,27.8477134 L59.1606755,27.8477134 Z M39.8947644,59 C41.7449799,59 43.2448759,57.4997315 43.2448759,55.6490566 C43.2448759,53.7983817 41.7449799,52.2981132 39.8947644,52.2981132 C38.0445489,52.2981132 36.5446528,53.7983817 36.5446528,55.6490566 C36.5446528,57.4997315 38.0445489,59 39.8947644,59 Z"/>
</svg>
