<svg xmlns="http://www.w3.org/2000/svg" width="80" height="80" viewBox="0 0 80 80">
  <path fill="#000000" fill-rule="evenodd" d="M60,38 L60,29.0000001 L20,29.0000001 L20,38 L60,38 Z M60,40.0000001 L60,45.9994225 C60,47.6565957 58.6576906,49 56.9934988,49 L23.0065012,49 C21.3460564,49 20,47.6480353 20,45.9994225 L20,40.0000001 L60,40.0000001 Z M60,27 L60,21.0005775 C60,19.3519647 58.6539436,18 56.9934988,18 L23.0065012,18 C21.3423094,18 20,19.3434043 20,21.0005775 L20,27 L60,27 Z M20,55.0003297 C20,53.3432934 21.3486445,52 23.0003297,52 L26.9996703,52 C28.6567066,52 30,53.3486445 30,55.0003297 L30,58.9996703 C30,60.6567066 28.6513555,62 26.9996703,62 L23.0003297,62 C21.3432934,62 20,60.6513555 20,58.9996703 L20,55.0003297 Z"/>
</svg>
