<svg xmlns="http://www.w3.org/2000/svg" width="174" height="174" viewBox="0 0 174 174">
  <defs>
    <linearGradient id="a" x1="0%" y1="0%" y2="100%">
      <stop stop-color="#33A2C6" offset="0%"/>
      <stop stop-color="#35C591" offset="100%"/>
    </linearGradient>
  </defs>
  <path fill="url(#a)" fill-rule="evenodd" d="M79,59 L44.9955469,59 C39.46875,59 35,63.475152 35,68.9955317 L35,105.004468 C35,110.523722 39.4751588,115 44.9955469,115 L129.004453,115 C134.53125,115 139,110.524848 139,105.004468 L139,68.9955317 C139,63.4762784 134.524841,59 129.004453,59 L97,59 L97,60.0093426 C97,62.7656066 94.7566822,65 92.0099002,65 L83.9900998,65 C81.2341438,65 79,62.7527859 79,60.0093426 L79,59 Z M134.998,0 L39.001,0 C17.462,0 0,17.461 0,39 L0,135 C0,156.539 17.462,174 39.001,174 L134.999,174 C156.539,174 174.001,156.539 174.001,135 L174.001,39 C174,17.461 156.538,0 134.998,0 Z M77.4485538,97.1208894 C77.05251,95.9681118 76.3346214,94.805304 75.2758105,94.1286122 C73.2385042,92.8167627 70.86479,92.116973 68.569571,91.3678089 C68.0158815,91.1796349 67.4533085,90.9745083 66.9473133,90.6826408 C66.4955656,90.422277 66.3259782,89.8882697 66.221051,89.4192475 C66.1747403,89.1711743 66.1463422,88.9166026 66.1316335,88.6661984 C67.7959785,86.4576263 68.9000079,82.8532186 68.9000079,79.8977428 C68.9000079,75.2853611 66.2134053,74 62.8998608,74 C59.585661,74 56.8996409,75.2834539 56.8996409,79.8958356 C56.8996409,82.9570534 58.0832577,86.712198 59.8478698,88.8936459 C59.8317775,89.0658562 59.810661,89.2380665 59.778695,89.4094997 C59.6735493,89.8784513 59.5041803,90.4024989 59.0527239,90.6627922 C58.5461461,90.9547302 57.983646,91.1400082 57.4298837,91.3281821 C55.1346647,92.0772757 52.7610233,92.7378624 50.7242267,94.049712 C49.6648332,94.7264037 48.9473088,95.9681118 48.5515563,97.1208894 C48.1440076,98.3173199 47.9773328,99.79919 48.0024542,101 L62.9993997,101 L77.9975102,101 C78.02285,99.7992607 77.8558111,98.3173906 77.4485538,97.1208894 Z M91,76.5 C91,75.6715729 91.6679183,75 92.5039063,75 L124.496094,75 C125.326678,75 126,75.6657972 126,76.5 C126,77.3284271 125.332082,78 124.496094,78 L92.5039063,78 C91.6733218,78 91,77.3342028 91,76.5 Z M91,86.5 C91,85.6715729 91.6679183,85 92.5039063,85 L124.496094,85 C125.326678,85 126,85.6657972 126,86.5 C126,87.3284271 125.332082,88 124.496094,88 L92.5039063,88 C91.6733218,88 91,87.3342028 91,86.5 Z M91,96.5 C91,95.6715729 91.6679183,95 92.5039063,95 L124.496094,95 C125.326678,95 126,95.6657972 126,96.5 C126,97.3284271 125.332082,98 124.496094,98 L92.5039063,98 C91.6733218,98 91,97.3342028 91,96.5 Z M82,48.0001262 C82,46.3432023 83.3416228,45 84.997152,45 L91.002848,45 C92.6581293,45 94,46.3339615 94,48.0001262 L94,58.9998738 C94,60.6567977 92.6583772,62 91.002848,62 L84.997152,62 C83.3418707,62 82,60.6660385 82,58.9998738 L82,48.0001262 Z"/>
</svg>
