<?xml version="1.0" encoding="UTF-8"?>
<svg width="174px" height="174px" viewBox="0 0 174 174" version="1.1" xmlns="http://www.w3.org/2000/svg" xmlns:xlink="http://www.w3.org/1999/xlink">
    <!-- Generator: Sketch 40.1 (33804) - http://www.bohemiancoding.com/sketch -->
    <title>Artboard Copy</title>
    <desc>Created with Sketch.</desc>
    <defs>
        <linearGradient x1="0%" y1="0%" x2="100%" y2="100%" id="linearGradient-1">
            <stop stop-color="#33A2C6" offset="0%"></stop>
            <stop stop-color="#35C591" offset="100%"></stop>
        </linearGradient>
    </defs>
    <g id="Web" stroke="none" stroke-width="1" fill="none" fill-rule="evenodd">
        <g id="Artboard-Copy" fill="url(#linearGradient-1)">
            <path d="M53,103 L53,82 L38,103 L53,103 L53,103 Z M134.998,0 L39.001,0 C17.462,0 0,17.461 0,39 L0,135 C0,156.539 17.462,174 39.001,174 L134.999,174 C156.539,174 174.001,156.539 174.001,135 L174.001,39 C174,17.461 156.538,0 134.998,0 L134.998,0 Z M70,112 L62,112 L62,121 L53,121 L53,112 L22,112 L62,54 L62,103 L70,103 L70,112 L70,112 Z M84.791,121.737 C81.828,121.737 79.427,119.333 79.427,116.369 C79.427,113.405 81.829,111.001 84.791,111.001 C87.753,111.001 90.155,113.405 90.155,116.369 C90.155,119.333 87.754,121.737 84.791,121.737 L84.791,121.737 Z M152,97 C152,111.359 140.359,123 126,123 L123,123 C108.641,123 97,111.359 97,97 L97,77 C97,62.641 108.641,51 123,51 L126,51 C140.359,51 152,62.641 152,77 L152,97 L152,97 Z M122,57 L122,80 L111.612,70.579 L107.826,74.368 L122,87 L107.825,99.632 L111.611,103.421 L122,94 L122,117 L141,100 L128,87 L141,75 L122,57 L122,57 Z M134,100 L127,106 L127,93 L134,100 L134,100 Z M127,81 L127,68 L134,75 L127,81 L127,81 Z" id="Bkuetooth"></path>
        </g>
    </g>
</svg>