<svg xmlns="http://www.w3.org/2000/svg" width="50" height="50" viewBox="0 0 50 50" xmlns:xlink="http://www.w3.org/1999/xlink">
  <defs>
    <linearGradient id="d" x1="50%" x2="50%" y1="0%" y2="100%">
      <stop stop-color="#FDFCFD" offset="0%"/>
      <stop stop-color="#DDE2E7" offset="100%"/>
    </linearGradient>
    <linearGradient id="c" x1="30.658%" x2="73.394%" y1="2.665%" y2="100%">
      <stop stop-color="#FC5C57" offset="0%"/>
      <stop stop-color="#D54DBF" offset="42.953%"/>
      <stop stop-color="#9661E3" offset="61.409%"/>
      <stop stop-color="#6570FF" offset="75.77%"/>
      <stop stop-color="#25C9FC" offset="100%"/>
    </linearGradient>
    <circle id="b" cx="22" cy="22" r="22"/>
    <filter id="a" width="200%" height="200%" x="-50%" y="-50%" filterUnits="objectBoundingBox">
      <feMorphology radius=".978" operator="dilate" in="SourceAlpha" result="shadowSpreadOuter1"/>
      <feOffset dy="1" in="shadowSpreadOuter1" result="shadowOffsetOuter1"/>
      <feGaussianBlur stdDeviation=".5" in="shadowOffsetOuter1" result="shadowBlurOuter1"/>
      <feComposite in="shadowBlurOuter1" in2="SourceAlpha" operator="out" result="shadowBlurOuter1"/>
      <feColorMatrix values="0 0 0 0 0 0 0 0 0 0 0 0 0 0 0 0 0 0 0.4 0" in="shadowBlurOuter1"/>
    </filter>
    <linearGradient id="e" x1="42.992%" x2="91.061%" y1="14.213%" y2="81.625%">
      <stop stop-color="#FC5C57" offset="0%"/>
      <stop stop-color="#865EF6" offset="60.655%"/>
      <stop stop-color="#40AAFA" offset="100%"/>
    </linearGradient>
    <path id="f" d="M15.4145072,11.6004503 C15.4057568,10.95632 15.9182033,10.3310304 16.546874,10.2062512 L29.8654871,7.56275917 C30.4996264,7.43689455 31.0166861,7.86824219 31.0202831,8.51028844 L31.1345833,28.9124306 C31.1345833,28.9124306 31.1345833,31.8980897 27.7996354,32.5754687 C24.4646875,33.2528478 23.6807465,31.7313715 23.3853125,30.7738368 C23.0898785,29.8163021 23.0075694,28.6485069 23.8409722,27.5515625 C24.674375,26.4546181 26.0626476,26.2014849 26.6757639,26.0621701 C27.2888802,25.9228553 28.8112153,25.8904855 29.1826562,25.3383848 C29.5540972,24.7862842 29.5130382,23.6398785 29.5130382,23.6398785 L29.4782095,15.0573208 C29.4764561,14.6252474 29.130785,14.3425037 28.7001227,14.4269737 L17.8621516,16.5527311 C17.4341795,16.6366735 17.0884137,17.0542345 17.0898333,17.4930445 C17.0898333,17.4930445 17.1308214,29.239457 17.0933507,30.4325694 C17.05588,31.6256819 16.9499306,32.3401904 16.5653125,33.3235069 C16.1806944,34.3068235 15.7073698,34.6825608 14.8755903,35.1214159 C14.0438108,35.5602709 12.0746007,35.7011111 11.089184,35.412744 C10.1037674,35.1243769 9.11204861,34.07231 9.11204861,32.5754687 C9.11204861,31.0786275 9.62407969,30.4542325 10.1780174,29.9785139 C10.987224,29.2835717 12.5049596,28.8802611 13.5983681,28.7025521 C14.4417969,28.5654717 15.166441,28.7025521 15.3986632,27.5515625 C15.6308854,26.4005729 15.4145072,11.6004503 15.4145072,11.6004503 Z"/>
    <filter id="g" width="200%" height="200%" x="-50%" y="-50%" filterUnits="objectBoundingBox">
      <feGaussianBlur stdDeviation=".5" in="SourceAlpha" result="shadowBlurInner1"/>
      <feOffset in="shadowBlurInner1" result="shadowOffsetInner1"/>
      <feComposite in="shadowOffsetInner1" in2="SourceAlpha" operator="arithmetic" k2="-1" k3="1" result="shadowInnerInner1"/>
      <feColorMatrix values="0 0 0 0 0 0 0 0 0 0 0 0 0 0 0 0 0 0 0.5 0" in="shadowInnerInner1"/>
    </filter>
  </defs>
  <g fill="none" fill-rule="evenodd" transform="translate(2 2)">
    <use fill="black" filter="url(#a)" xlink:href="#b"/>
    <use fill="url(#d)" stroke="url(#c)" stroke-width="1.956" xlink:href="#b"/>
    <g>
      <use fill="url(#e)" xlink:href="#f"/>
      <use fill="black" filter="url(#g)" xlink:href="#f"/>
    </g>
  </g>
</svg>
