<svg xmlns="http://www.w3.org/2000/svg" width="50" height="50" viewBox="0 0 50 50" xmlns:xlink="http://www.w3.org/1999/xlink">
  <defs>
    <circle id="b" cx="23.5" cy="23.5" r="22.949"/>
    <filter id="a" width="200%" height="200%" x="-50%" y="-50%" filterUnits="objectBoundingBox">
      <feOffset dy="1" in="SourceAlpha" result="shadowOffsetOuter1"/>
      <feGaussianBlur stdDeviation=".5" in="shadowOffsetOuter1" result="shadowBlurOuter1"/>
      <feColorMatrix values="0 0 0 0 0 0 0 0 0 0 0 0 0 0 0 0 0 0 0.4 0" in="shadowBlurOuter1"/>
    </filter>
  </defs>
  <g fill="none" fill-rule="evenodd" transform="translate(2 1)">
    <use fill="black" filter="url(#a)" xlink:href="#b"/>
    <use fill="#1ED75F" xlink:href="#b"/>
    <path fill="#191515" d="M35.252231 24.5617782C35.8437645 24.9020096 36.1907363 25.2497682 36.1907363 26.1123903 36.1907363 26.9531834 35.4967926 27.5711701 34.7180166 27.5711701 34.3343606 27.5711701 33.915104 27.440196 33.5566684 27.2256696 30.1243985 25.1805176 25.9416833 24.5617782 21.1443525 24.3770593 18.0226569 24.25686 16.0437134 24.5634334 13.6592373 25.0527042 13.2709957 25.1355039 12.7826367 25.2830379 12.4914555 25.2830379 11.5919271 25.2830379 10.9927511 24.5792406 10.9927511 23.8167309 10.9927511 22.8366838 11.5667067 22.3489184 12.280521 22.2149335 15.2053255 21.5578052 18.1186662 21.1829485 21.1443523 21.1829485 26.3260022 21.1829485 31.2781042 22.2162892 35.252231 24.5617782zM37.9394292 17.7658477C38.6267744 18.1722352 39.0299459 18.5876135 39.0299459 19.6179677 39.0299459 20.6222483 38.2236029 21.3603991 37.3186871 21.3603991 36.8728896 21.3603991 36.3857253 21.2039578 35.9692332 20.9477179 31.9810322 18.5048975 27.120835 17.7658477 21.5464718 17.5452112 17.9191495 17.4016398 15.6196728 17.7678247 12.8489788 18.3522315 12.397853 18.4511311 11.8303935 18.6273523 11.4920492 18.6273523 10.4468226 18.6273523 9.75059691 17.7867055 9.75059691 16.87593 9.75059691 15.7053182 10.4175172 15.1227096 11.2469493 14.9626721 14.6454897 14.1777688 18.0307095 13.7300232 21.5464715 13.7300232 27.5674028 13.7300232 33.3216058 14.9642914 37.9394292 17.7658477zM32.729265 30.4807179C33.2333182 30.7736949 33.5289773 31.0731538 33.5289773 31.8159672 33.5289773 32.5399835 32.9376591 33.0721387 32.2740542 33.0721387 31.947136 33.0721387 31.5898822 32.9593555 31.2844546 32.7746244 28.3597739 31.0135213 24.7956293 30.4807179 20.707763 30.3216544 18.0477266 30.2181494 16.3614437 30.4821432 14.3296014 30.9034597 13.9987758 30.9747595 13.5826389 31.1018026 13.3345197 31.1018026 12.5680202 31.1018026 12.0574547 30.495755 12.0574547 29.8391494 12.0574547 28.9952199 12.5465296 28.5751998 13.1547798 28.4598239 15.6470428 27.8939633 18.1295373 27.5711701 20.7077628 27.5711701 25.1231124 27.5711701 29.3428612 28.4609913 32.729265 30.4807179z"/>
  </g>
</svg>
