<svg xmlns="http://www.w3.org/2000/svg" width="174" height="174" viewBox="0 0 174 174">
  <defs>
    <linearGradient id="a" x1="0%" y1="0%" y2="100%">
      <stop stop-color="#33A2C6" offset="0%"/>
      <stop stop-color="#35C591" offset="100%"/>
    </linearGradient>
  </defs>
  <path fill="url(#a)" fill-rule="evenodd" d="M134.997224,0 L39.0007759,0 C17.4618996,0 0,17.461 0,39 L0,135 C0,156.539 17.4618996,174 39.0007759,174 L134.998224,174 C156.5381,174 174,156.539 174,135 L174,39 C173.999,17.461 156.5371,0 134.997224,0 Z M141.863273,72.6145206 C139.473589,63.7923889 135.138201,56.0288406 129.448031,49.6728197 C129.899177,51.8351867 127.786812,54.5159974 123.739045,57.3871 C121.504373,58.6884074 117.844135,58.5799274 115.690105,59.1539671 C117.493792,59.2967991 121.872189,58.9709072 125.264966,65.8236759 C126.662756,69.1919783 127.824892,72.7478606 128.802449,76.4307548 C129.74775,80.0227971 130.455605,83.5931433 130.911678,87.1219056 C130.984256,87.6801254 131.471242,88.5321449 132.511521,87.6715374 C138.719141,82.5503798 142.181359,77.2800624 141.863273,72.6145206 Z M75.2563449,69.9486259 L87.2733057,69.6783301 C87.2733057,69.6783301 80.3031728,69.4704102 78.0138438,63.4692091 L77.4569679,61.3872981 C77.4403916,61.3140741 77.4287433,61.2403981 77.415751,61.1653662 C77.4108229,61.1753102 77.4090309,61.1834462 77.4058948,61.1951981 L75.0825172,52.4431264 C74.4324553,50.0041356 72.6350409,50.0972475 71.7968149,50.2988394 C56.591818,53.9528056 44.5896414,55.0014451 43.8616259,52.5434703 C39.7430738,57.8404558 36.5743021,63.8488889 34.5251063,70.2758738 C36.192598,75.2718274 53.6228585,74.9644675 75.2563449,69.9486259 Z M94.8567638,134.409219 C95.4848732,134.270003 96.501407,133.098419 96.1349351,131.715752 C94.9221732,127.141514 92.2515881,117.097627 91.8555477,115.618684 C91.3443687,113.685933 89.9604672,113.644801 89.3193655,113.797577 C79.7861697,115.985256 70.7041196,116.997735 62.7528456,116.920895 C55.6684702,116.314764 53.5162322,107.90576 53.5162322,107.90576 C53.5162322,107.90576 53.9077926,112.531977 55.1245866,116.480647 C45.4887966,115.39856 38.3779887,112.366093 35.5237197,107.598852 C39.1194445,117.167687 45.1003723,125.264359 52.5906444,131.377656 C61.2865103,136.86403 77.275524,138.223645 94.8567638,134.409219 Z M76.197165,43.5965866 C76.2182214,43.5911627 76.24331,43.5848347 76.2675025,43.5794107 L78.3897239,51.248491 C78.3897239,51.248491 76.9368288,44.5019422 82.4939396,41.7799995 C93.9831451,38.2557572 102.45187,34.4386191 102.032981,32.8493878 C92.9325627,30.432997 83.0965125,30.3050811 73.3608164,32.9366238 C63.6484168,35.5654545 55.2227007,40.6156481 48.5392938,47.2695369 C49.2444609,49.06262 61.7609524,47.4987008 76.197165,43.5965866 Z M99.7951734,131.318896 C99.7951734,131.318896 100.925502,137.100877 92.9890119,138.982101 C81.8989829,140.958696 71.6086509,140.68162 63.7398107,138.476765 C75.354011,144.077042 88.9331812,145.687517 102.345692,142.062027 C115.755963,138.436537 126.709349,130.190253 133.989952,119.485542 C126.975914,126.699007 115.366194,133.229951 101.459977,137.054774 L99.7951734,131.318896 Z M124.777083,45.9732015 C119.791633,41.3826917 114.019029,37.7377655 107.771088,35.2128947 C108.34678,37.6545975 97.857532,42.6568791 83.3173812,47.095065 C82.2211017,47.4299968 80.080064,48.5595443 80.7310219,51.0053151 C81.3792918,53.4497299 83.6175476,61.8704858 84.2653694,64.3167086 C84.9149833,66.7611235 87.331099,66.6960355 88.4381306,66.3601997 C110.063553,59.7759188 125.786001,51.201483 124.777083,45.9732015 Z M142.277681,78.6790017 C142.171503,84.270691 137.474571,90.510548 129.609763,96.3286892 L127.423476,87.6878094 C127.423476,87.6878094 129.55869,96.793797 123.003861,100.648903 C123.039702,100.638055 123.075543,100.623591 123.110936,100.610935 C116.377352,104.592601 108.191321,108.218543 99.0725339,111.088742 C98.3418303,111.316098 96.9812252,112.194334 97.4794119,114.068777 C97.8673882,115.536872 100.632951,125.944619 101.814353,130.395913 C102.140503,131.627612 103.597431,132.016332 104.215684,131.816096 C121.263344,126.266443 134.394057,117.074123 139.240624,107.9713 L139.250033,107.968136 C142.725691,98.87842 143.908884,88.8155488 142.277681,78.6790017 Z M50.2157457,76.6355107 C50.2157457,76.6355107 43.6214927,78.8661296 40.5373948,79.5594973 C40.5373948,79.5644693 40.5364988,79.5735093 40.5356028,79.5816453 C35.9372325,79.0980055 32.964241,77.8857421 32.2254732,75.915023 C30.4553873,84.283799 30.5508134,93.1850307 32.8522386,102.021174 C34.8633535,106.184092 40.3832795,108.986039 48.17327,110.309494 C48.825124,110.420686 49.9110992,110.028351 49.3282387,108.569747 C48.0729159,105.426993 46.9663322,102.146378 46.0582168,98.738752 C44.9269926,94.4718741 44.1532801,90.2257881 43.7093026,86.0515701 C43.7101986,86.0515701 43.7101986,86.0520221 43.7101986,86.0520221 C45.7956832,79.5594973 50.2157457,76.6355107 50.2157457,76.6355107 Z M95.0404477,114.51942 C95.0404477,114.51942 92.9276346,106.224772 100.921469,104.065569 C100.909821,104.061953 100.898173,104.061049 100.884285,104.058337 C109.337329,101.242379 116.9293,97.8392725 123.207258,94.1721982 C124.781115,93.2555427 124.569207,91.8425914 124.564279,91.7558074 C124.225136,87.3750255 123.440671,82.8803397 122.235077,78.3494939 C120.948841,73.4941122 119.237445,68.9298184 117.202137,64.7198924 C116.39572,63.2771091 115.566006,62.3288136 113.38196,63.3557571 C105.550752,67.0296113 95.4006474,70.7423375 84.0700373,73.8059921 C73.1350195,76.7616186 62.8469277,78.6514297 54.3979151,79.4234453 C50.9173287,79.6598412 50.8205586,81.8579162 50.9007523,82.9499476 C51.2398956,87.5296094 52.0122641,92.2426112 53.2765471,96.9935809 C54.3880589,101.180907 55.8136253,105.151725 57.4905252,108.868519 C58.5092989,110.981618 60.0965969,111.188634 60.8716534,111.185922 C70.1920446,111.13575 81.1194462,109.634659 92.5181538,106.571908 L95.0404477,114.51942 Z"/>
</svg>
