<svg xmlns="http://www.w3.org/2000/svg" width="80" height="80" viewBox="0 0 80 80">
  <path fill="#000000" fill-rule="evenodd" d="M42.1595222,20 L39.5,20 L43,27 L46.5,20 L43.8920027,20 C42.8819666,8.78699998 33.4621251,0 21.9908257,0 C9.84562803,0 3.06380813e-15,9.8497355 0,22 C0,34.1502645 9.84562803,44 21.9908257,44 C27.7622244,44 33.1841266,41.7649741 37.2553879,37.8366551 C37.5982024,37.5058768 37.6080715,36.9597061 37.2774312,36.6167486 C36.9467909,36.273791 36.4008479,36.2639178 36.0580334,36.5946961 C32.3051128,40.2158514 27.3110567,42.2745098 21.9908257,42.2745098 C10.7981925,42.2745098 1.72477064,33.1973026 1.72477064,22 C1.72477064,10.8026974 10.7981925,1.7254902 21.9908257,1.7254902 C32.5088643,1.7254902 41.1554487,9.74148149 42.1595222,20 Z M14.2132996,24.29579 C13.7370173,24.29579 13.3509143,24.6820542 13.3509143,25.1585351 C13.3509143,25.6350161 13.7370173,26.0212802 14.2132996,26.0212802 L23.1479716,26.0212802 L24.0103569,26.0212802 L24.0103569,25.1585351 L24.0103569,9.55085784 C24.0103569,9.07437688 23.6242539,8.68811275 23.1479716,8.68811275 C22.6716894,8.68811275 22.2855863,9.07437688 22.2855863,9.55085784 L22.2855863,24.3020929 L14.2132996,24.29579 Z" transform="translate(18 18)"/>
</svg>
