<svg xmlns="http://www.w3.org/2000/svg" width="80" height="80" viewBox="0 0 80 80">
  <g fill="#000000" fill-rule="evenodd" transform="translate(16 16)">
    <path d="M41.3913792,40.539111 C37.0192448,45.1351068 30.8441882,48 24,48 C17.2663987,48 11.1804804,45.2269395 6.82196012,40.7605337 C7.18167292,40.3357905 7.58801174,39.9609468 8.04188343,39.6660206 C10.7307239,37.9042552 13.8642438,37.0171117 16.8942359,36.0111068 C17.6252752,35.7583961 18.3678497,35.5095748 19.0365992,35.1175127 C19.6325813,34.7679486 19.8561707,34.0641721 19.9949769,33.4343874 C20.0371762,33.2041589 20.0650528,32.9728869 20.0862967,32.7416148 C17.7567758,29.8120111 16.1942454,24.768991 16.1942454,20.6578889 C16.1942454,14.4636311 19.7401465,12.74 24.1153278,12.74 C28.489644,12.74 32.0363141,14.4661924 32.0363141,20.6604501 C32.0363141,24.6295447 30.5788496,29.4701308 28.3816943,32.4361612 C28.4011118,32.7724448 28.438601,33.1143252 28.4997372,33.4474783 C28.638255,34.0773578 28.8621328,34.7945098 29.4584994,35.1441688 C30.1264799,35.536136 30.8691505,35.8116134 31.6000937,36.0643241 C34.6300858,37.0704238 37.7637019,38.0102154 40.4532152,39.7719807 C40.7923033,39.9924417 41.1049048,40.2513227 41.3913792,40.539111 Z" opacity=".25"/>
    <path d="M41.3913792,40.539111 C45.4865624,36.2342467 48,30.4106458 48,24 C48,10.745166 37.254834,1.0658141e-14 24,1.0658141e-14 C10.745166,1.0658141e-14 -5.35749223e-12,10.745166 -5.35749223e-12,24 C-5.35749223e-12,30.5212327 2.60090169,36.4349922 6.82196012,40.7605337 C7.18167292,40.3357905 7.58801174,39.9609468 8.04188343,39.6660206 C10.7307239,37.9042552 13.8642438,37.0171117 16.8942359,36.0111068 C17.6252752,35.7583961 18.3678497,35.5095748 19.0365992,35.1175127 C19.6325813,34.7679486 19.8561707,34.0641721 19.9949769,33.4343874 C20.0371762,33.2041589 20.0650528,32.9728869 20.0862967,32.7416148 C17.7567758,29.8120111 16.1942454,24.768991 16.1942454,20.6578889 C16.1942454,14.4636311 19.7401465,12.74 24.1153278,12.74 C28.489644,12.74 32.0363141,14.4661924 32.0363141,20.6604501 C32.0363141,24.6295447 30.5788496,29.4701308 28.3816943,32.4361612 C28.4011118,32.7724448 28.438601,33.1143252 28.4997372,33.4474783 C28.638255,34.0773578 28.8621328,34.7945098 29.4584994,35.1441688 C30.1264799,35.536136 30.8691505,35.8116134 31.6000937,36.0643241 C34.6300858,37.0704238 37.7637019,38.0102154 40.4532152,39.7719807 C40.7923033,39.9924417 41.1049048,40.2513227 41.3913792,40.539111 Z"/>
  </g>
</svg>
