<svg xmlns="http://www.w3.org/2000/svg" width="80" height="80" viewBox="0 0 80 80">
  <path fill="#000000" fill-rule="evenodd" d="M39.3149151,42.6176655 C39.2594882,42.5926378 39.2071893,42.5669224 39.1587203,42.5406935 L39.1933695,42.5750007 C39.1789915,42.5679954 39.1648944,42.5608612 39.1510974,42.5536061 L39.4144131,42.7938615 L39.4644603,42.8434145 C39.4590442,42.8373593 39.4537323,42.8312152 39.4485234,42.8249845 L39.5022431,42.8739996 C39.4508403,42.8230089 39.4042905,42.763657 39.3622036,42.6977578 C39.351007,42.6773087 39.3405834,42.6562898 39.3309086,42.6347567 C39.3758291,42.6521321 39.4225325,42.6682823 39.4705896,42.6830245 C39.9407955,42.867022 40.5622491,43 41.0048366,43 L51.9951634,43 C52.545986,43 53.4302373,42.9013891 53.8418123,42.5389899 L53.5364891,42.8424588 C53.7924791,42.3771816 53.9006511,41.5647803 53.5355397,41.1565855 L53.8412797,41.4593065 C53.3725205,41.2056385 52.5455418,41 51.9951634,41 L41.0048366,41 C41.0032273,41 41.001615,41.0000008 41,41.0000025 L41,26.9504909 C41,26.3937458 40.8906006,25.5156946 40.4977569,25.1260004 L40.8489026,25.4463939 C40.3800666,25.1998574 39.5647803,25.0929323 39.1501716,25.4440617 L39.5005321,25.1248591 C39.2240958,25.5763827 39,26.3902462 39,26.9504909 L39,41.0495091 C39,41.5049564 39.0732114,42.1754255 39.3149151,42.6176655 Z M54.4005478,58.6324839 C59.0555602,54.5986116 62,48.6431612 62,42 C62,29.8497355 52.1502645,20 40,20 C27.8497355,20 18,29.8497355 18,42 C18,48.4915612 20.8115863,54.3264413 25.2834508,58.353332 L22.1531272,62.8238973 C21.715472,63.4489338 21.8617002,64.3064425 22.4894446,64.7459939 C23.1128429,65.182502 23.9758939,65.025532 24.4106519,64.4046332 L27.4464104,60.0691208 C31.0065071,62.5471554 35.3335885,64 40,64 C44.5162066,64 48.7145767,62.6391799 52.2074373,60.3052127 L55.0778824,64.4046332 C55.5126404,65.025532 56.3756914,65.182502 56.9990897,64.7459939 C57.6268341,64.3064425 57.7730624,63.4489338 57.3354071,62.8238973 L54.4005478,58.6324839 Z M21,42 C21,31.5065898 29.5065898,23 40,23 C50.4934102,23 59,31.5065898 59,42 C59,52.4934102 50.4934102,61 40,61 C29.5065898,61 21,52.4934102 21,42 Z M16.1809674,29.9028572 C13.7796338,26.8292903 15.1562726,21.741222 19.2557764,18.5383386 C23.3552802,15.3354552 28.6252502,15.2306235 31.0265839,18.3041905 L16.1809674,29.9028572 Z M63.8190326,29.9028572 C66.2203662,26.8292903 64.8437274,21.741222 60.7442236,18.5383386 C56.6447198,15.3354552 51.3747498,15.2306235 48.9734161,18.3041905 L63.8190326,29.9028572 Z"/>
</svg>
