<svg xmlns="http://www.w3.org/2000/svg" width="80" height="80" viewBox="0 0 80 80">
  <path fill="#000000" fill-rule="evenodd" d="M18.4928611,29.3839937 C18.266084,29.8422373 18.4523797,30.3982243 18.9089643,30.6258255 C19.3655489,30.8534266 19.9195231,30.666454 20.1463002,30.2082104 C23.8162515,22.7924209 31.3184201,17.9623543 39.7055165,17.852785 C40.2152746,17.8461255 40.6231362,17.4259848 40.6165008,16.9143745 C40.6098654,16.4027641 40.1912457,15.9934206 39.6814876,16.0000801 C30.5955817,16.1187787 22.468013,21.3514922 18.4928611,29.3839937 Z M16,40.085204 C16,42.8322636 16.4586761,45.5177738 17.3461587,48.0579571 C17.514849,48.5407882 18.0415944,48.7949528 18.5226775,48.6256496 C19.0037606,48.4563464 19.257005,47.927687 19.0883148,47.4448559 C18.2694346,45.1010289 17.8461538,42.6227554 17.8461538,40.085204 C17.8461538,37.9880531 18.1352145,35.9305363 18.6988456,33.9542126 C18.8391315,33.4623121 18.5555353,32.9494106 18.0654157,32.808615 C17.5752961,32.6678193 17.0642514,32.952446 16.9239655,33.4443464 C16.3131675,35.5860568 16,37.8151646 16,40.085204 Z M57.8815374,36.3006 C56.121069,27.8776128 48.6855226,21.7478949 40,21.7478949 C37.6077453,21.7478949 35.280955,22.2090393 33.1141362,23.0945256 C32.6419752,23.2874776 32.1033609,23.0597433 31.9111074,22.5858668 C31.718854,22.1119902 31.9457638,21.5714189 32.4179248,21.3784668 C34.8048847,20.4030182 37.3680187,19.8950331 40,19.8950331 C49.5671896,19.8950331 57.755901,26.6487516 59.690654,35.9311673 C59.6916724,35.9360532 59.6926504,35.9409381 59.6935882,35.9458217 C60.2189969,38.312884 60.5979964,40.7181461 60.8270257,43.1514534 C60.8749705,43.6608393 60.5023935,44.1127863 59.9948517,44.1609053 C59.4873099,44.2090243 59.0369991,43.8350935 58.9890543,43.3257076 C58.7667906,40.964281 58.3987126,38.630391 57.8882982,36.3338155 C57.8858368,36.3227402 57.883584,36.311667 57.8815374,36.3006 L57.8815374,36.3006 Z M22.1701978,44.2284119 C22.1720051,44.1582793 22.1658496,44.0868321 22.1510122,44.0151709 C20.5774308,36.4151627 23.8870304,29.0699177 29.4457047,25.1148972 C29.8615982,24.8189871 29.9597325,24.2407312 29.6648938,23.8233265 C29.370055,23.4059218 28.7938926,23.3074309 28.377999,23.603341 C22.316844,27.9158788 18.6949152,35.8512772 20.2869826,44.1095725 C20.2869443,44.1672473 20.2922969,44.225756 20.3034427,44.2845049 C20.5513274,45.5910941 20.6771584,46.9261318 20.6771584,48.277829 C20.6771584,49.8615303 20.5044214,51.4220515 20.1652943,52.9401844 C20.0537675,53.4394445 20.3666221,53.9349137 20.8640747,54.0468458 C21.3615274,54.1587779 21.8552028,53.8447866 21.9667297,53.3455264 C22.3355289,51.6945637 22.5233123,49.9981122 22.5233123,48.277829 C22.5233123,46.9096068 22.4045273,45.5562087 22.1701978,44.2284119 L22.1701978,44.2284119 Z M54.0743025,37.0489223 C54.0651381,37.0205372 54.0572502,36.9914496 54.0507183,36.9617105 C53.1948566,33.0650246 50.7519031,29.7013015 47.3493233,27.6680974 C46.9112828,27.4063473 46.7676031,26.8377647 47.0284056,26.3981327 C47.289208,25.9585006 47.8557322,25.8142988 48.2937726,26.0760489 C52.1097856,28.3562991 54.8556863,32.12009 55.8367818,36.4871897 C55.8448366,36.5124542 55.8518836,36.5382743 55.857867,36.5646148 C56.7502683,40.4931878 57.2048831,44.5332934 57.2048831,48.6321047 C57.2048831,51.5700348 56.9713243,54.4787442 56.5098425,57.3392195 C56.4283584,57.8442952 55.95434,58.187444 55.4510929,58.1056639 C54.9478457,58.0238837 54.6059392,57.548143 54.6874233,57.0430673 C55.1331225,54.2804194 55.3587292,51.4707442 55.3587292,48.6321047 C55.3587292,44.6973233 54.9252306,40.8198279 54.0743025,37.0489223 L54.0743025,37.0489223 Z M23.7637616,40.0771945 C23.7663949,40.0311335 23.7698683,39.9934517 23.7739452,39.9627634 L23.7658479,40.085204 C23.7658479,31.0867521 31.0341254,23.7920655 40,23.7920655 C41.4489087,23.7920655 42.8735225,23.9828133 44.2471544,24.3555568 C44.7392851,24.4890995 45.03037,24.9977575 44.8973108,25.4916764 C44.7642516,25.9855952 44.257435,26.2777378 43.7653043,26.1441951 C42.548411,25.8139836 41.2858018,25.6449273 40,25.6449273 C32.053728,25.6449273 25.6120018,32.1100594 25.6120018,40.085204 C25.5843872,40.576845 25.6654377,41.5843069 25.9510206,43.4219584 C26.2528795,44.9221481 26.4062362,46.4574971 26.4062362,48.0121223 C26.4062362,51.0432596 25.8230057,53.994498 24.7033673,56.741358 C24.5103411,57.214918 23.9713561,57.4417671 23.4995105,57.2480395 C23.0276649,57.054312 22.8016371,56.5133685 22.9946633,56.0398085 C24.0239239,53.5146764 24.5600824,50.8016299 24.5600824,48.0121223 C24.5600824,46.5627722 24.4154123,45.1326865 24.1308155,43.7364783 C24.124049,43.7032823 24.119143,43.670138 24.1160258,43.6371543 C23.8207665,41.7243104 23.7327854,40.6190285 23.7637616,40.0771945 Z M28.0259859,43.7094157 C27.9215791,43.3329248 27.8355896,42.8856953 27.7637033,42.3781749 C27.6948747,41.8922415 27.6424533,41.3762405 27.6038584,40.8608947 C27.5903872,40.6810192 27.5795829,40.5138255 27.5711834,40.3633494 C27.5660784,40.2718948 27.5628758,40.2054373 27.5605236,40.1294884 C27.5605236,33.2099353 33.1496219,27.6005291 40.0441241,27.6005291 C43.8599735,27.6005291 47.3949584,29.3307553 49.7503133,32.2498609 C50.0711472,32.6474859 50.0100627,33.230857 49.6138772,33.5528567 C49.2176916,33.8748564 48.6364325,33.8135499 48.3155986,33.4159248 C46.3071257,30.926727 43.2969871,29.4533909 40.0441241,29.4533909 C34.1692246,29.4533909 29.4066775,34.2332426 29.4058772,40.0909206 C29.4070735,40.1197364 29.4098523,40.177398 29.4144469,40.2597101 C29.4222134,40.3988451 29.4322631,40.554361 29.4448192,40.722019 C29.4805878,41.1996257 29.5290421,41.6765773 29.5914812,42.1173997 C29.6381428,42.4468329 29.690683,42.7409518 29.7480938,42.9892019 C29.7791575,43.0590514 29.8020437,43.1339281 29.8153549,43.2128358 C30.0712982,44.73005 30.2009119,46.2744788 30.2009119,47.8349844 C30.2009119,48.6859302 30.1623707,49.5322982 30.085759,50.3723331 C30.03929,50.8818568 29.5900644,51.2571 29.0823853,51.2104622 C28.5747063,51.1638245 28.2008216,50.7129665 28.2472905,50.2034429 C28.3187831,49.4195383 28.3547581,48.6295257 28.3547581,47.8349844 C28.3547581,46.4424429 28.2442531,45.0643257 28.0259859,43.7094157 Z M46.7154706,39.0070001 C46.7125817,38.9932831 46.7099855,38.9794357 46.7076895,38.9654633 C46.1703023,35.6951093 43.3395221,33.2618544 40,33.2618544 C39.211474,33.2618544 38.4425749,33.3962334 37.7166019,33.6559694 C37.2364,33.8277743 36.7083484,33.5763548 36.5371655,33.0944081 C36.3659826,32.6124615 36.6164919,32.0824912 37.0966938,31.9106863 C38.0209544,31.5800077 38.9994803,31.4089926 40,31.4089926 C44.2439271,31.4089926 47.840577,34.4981304 48.5278645,38.6556299 C48.5282719,38.6575714 48.5286734,38.6595155 48.5290692,38.6614624 C49.1324308,41.6295223 49.4390352,44.6684362 49.4390352,47.7464155 C49.4390352,52.896423 48.5804885,57.9301175 46.9192487,62.6918908 C46.7507766,63.1747987 46.2241461,63.429203 45.7429866,63.2601188 C45.261827,63.0910346 45.0083437,62.5624906 45.1768157,62.0795828 C46.7696339,57.513933 47.5928813,52.6871995 47.5928813,47.7464155 C47.5928813,44.7930215 47.2987965,41.8781949 46.7201796,39.0318593 C46.7184943,39.0235691 46.716925,39.0152821 46.7154706,39.0070001 L46.7154706,39.0070001 Z M31.8561979,43.5563124 C31.7503323,43.2076315 31.6623844,42.8084101 31.5883918,42.3646528 C31.5061321,41.8713152 31.4453153,41.3484385 31.4021442,40.8263717 C31.3870839,40.6442486 31.3752713,40.4749218 31.3663226,40.3224186 C31.3608669,40.2294434 31.3575378,40.1616055 31.3551993,40.085204 C31.3551993,37.9985237 32.0928682,36.0236522 33.4126699,34.4664398 C33.7429818,34.0767102 34.3255471,34.0295155 34.7138657,34.3610277 C35.1021844,34.6925398 35.1492082,35.2772217 34.8188963,35.6669513 C33.7804798,36.8921619 33.2013531,38.4425875 33.2005852,40.0474219 C33.2017172,40.0752569 33.2045028,40.1320209 33.2092832,40.2134884 C33.2173947,40.3517231 33.2281826,40.5063613 33.2419726,40.6731236 C33.2812309,41.1478723 33.3363557,41.6218112 33.4092255,42.0588347 C33.4850986,42.5138705 33.5757571,42.8988194 33.6770661,43.1835151 C33.7226082,43.3114964 33.7384033,43.4428832 33.7280445,43.5700622 C33.9642643,45.0293082 34.0838359,46.513288 34.0838359,48.0121223 C34.0838359,52.6233332 32.9550644,57.2331808 30.893837,61.2765818 C30.6616348,61.7320806 30.1054799,61.9124143 29.6516302,61.6793684 C29.1977805,61.4463225 29.0180997,60.8881469 29.2503019,60.4326481 C31.1796342,56.6479787 32.237682,52.3269632 32.237682,48.0121223 C32.237682,46.5299678 32.1124969,45.0641753 31.8654471,43.6253474 C31.861485,43.6022716 31.8584101,43.5792482 31.8561979,43.5563124 L31.8561979,43.5563124 Z M37.4371515,41.6127137 C37.4358189,41.5600881 37.4299831,41.5068573 37.4193447,41.453472 C37.3499033,41.1050037 37.3049971,40.759472 37.2801168,40.4348523 C37.2654832,40.2439252 37.2607736,40.1068506 37.2607736,40.0409195 C37.2607736,38.4981321 38.5069221,37.2474558 40.0441241,37.2474558 C41.3191686,37.2474558 42.4172417,38.1149213 42.7353315,39.3243927 L42.7353315,39.3243927 C42.7378408,39.3779163 42.7450288,39.4319601 42.7571999,39.4860404 C43.3884143,42.2907324 43.7099573,45.1744003 43.7099573,48.1006912 C43.7099573,48.6123448 44.123233,49.0271221 44.6330343,49.0271221 C45.1428356,49.0271221 45.5561112,48.6123448 45.5561112,48.1006912 C45.5561112,45.0999436 45.2330364,42.1407196 44.5984462,39.2595213 C44.5965257,39.2098458 44.5905849,39.1596697 44.5803742,39.1093716 C44.1442258,36.9608921 42.2547486,35.394594 40.0441241,35.394594 C37.4873195,35.394594 35.4146198,37.4748248 35.4146198,40.0409195 C35.4146198,40.4246393 35.4570664,41.0034079 35.581802,41.6753077 C35.5836973,41.7048919 35.5870186,41.7346549 35.5918199,41.7645212 C35.8843067,43.5839033 36.0323577,45.4341726 36.0323577,47.3035709 C36.0323577,52.3817785 34.9390409,57.3029083 32.856414,61.8077266 C32.6418431,62.2718534 32.8427859,62.8226785 33.3052324,63.038029 C33.7676788,63.2533795 34.3165098,63.0517066 34.5310807,62.5875798 C36.7261029,57.8396455 37.8785115,52.652537 37.8785115,47.3035709 C37.8785115,45.3842651 37.7302372,43.4833883 37.4371515,41.6127137 Z M61.087807,48.7206736 C61.087807,48.3258205 61.0839077,47.9314178 61.0761183,47.5375027 C61.0660028,47.0259498 60.6446082,46.6194843 60.1349073,46.6296366 C59.6252064,46.6397889 59.2202124,47.0627146 59.2303279,47.5742675 C59.237875,47.9559295 59.2416532,48.3380767 59.2416532,48.7206736 C59.2416532,49.5543983 59.2237124,50.3859583 59.1879303,51.214983 C59.1658672,51.7261573 59.5608699,52.1584966 60.0701935,52.1806399 C60.5795172,52.2027832 61.0102913,51.8063453 61.0323544,51.295171 C61.0692894,50.4394352 61.087807,49.5811396 61.087807,48.7206736 Z M53.4102074,48.0121223 C53.4102074,44.1150428 52.9372252,40.2795471 52.0110023,36.5662744 C51.8871981,36.0699374 51.385931,35.7683046 50.8913909,35.8925586 C50.3968509,36.0168126 50.09631,36.5199011 50.2201142,37.016238 C51.1097055,40.5826527 51.5640535,44.267041 51.5640535,48.0121223 C51.5640535,52.1464059 51.0103414,56.2059439 49.9295234,60.1129638 C49.793141,60.6059688 50.0807939,61.1165897 50.572014,61.2534676 C51.0632342,61.3903456 51.5720065,61.1016475 51.7083889,60.6086426 C52.8337539,56.5405906 53.4102074,52.3143251 53.4102074,48.0121223 Z M45.3064679,52.6462093 C45.3626729,52.1376747 44.9974798,51.6796972 44.4907862,51.623288 C43.9840926,51.5668787 43.5277732,51.9333988 43.4715682,52.4419334 C43.0787434,55.9961546 42.2043787,59.448939 40.8802696,62.7250904 C40.6886417,63.1992221 40.9162648,63.7394913 41.3886799,63.9318155 C41.8610951,64.1241397 42.3994084,63.8956896 42.5910364,63.4215579 C43.9786046,59.9883938 44.8948973,56.3700399 45.3064679,52.6462093 Z M38.5488824,63.2716843 C38.5888712,63.1708384 38.633398,63.05805 38.6813363,62.9359943 C38.818363,62.5871104 38.9554208,62.2334955 39.0835748,61.896328 C39.1071508,61.834247 39.1071508,61.834247 39.1307013,61.7720071 C39.3007002,61.3222982 39.4384996,60.9439822 39.5354957,60.6564884 C39.6990008,60.1718639 39.4401043,59.6459694 38.9572343,59.4818703 C38.4743643,59.3177711 37.9503737,59.5776083 37.7868686,60.0622328 C37.6984597,60.3242744 37.5673752,60.6841554 37.4045996,61.1147559 C37.3816638,61.1753713 37.3816638,61.1753713 37.3586644,61.2359339 C37.2331956,61.5660368 37.0985148,61.9135192 36.9638029,62.2565092 C36.9166326,62.3766095 36.8728443,62.4875271 36.833576,62.5865563 C36.7932772,62.6880209 36.7932772,62.6880209 36.7846107,62.709718 C36.5949226,63.1846348 36.8247524,63.7239622 37.2979498,63.9143395 C37.7711473,64.1047168 38.3085222,63.874052 38.4982102,63.3991352 C38.5076596,63.375476 38.5076596,63.375476 38.5488824,63.2716843 Z M41.6731872,47.5692777 C41.6731872,44.993807 41.4352034,42.4483898 40.9661679,39.9558187 C40.8715607,39.4530525 40.3887694,39.122453 39.8878235,39.217404 C39.3868775,39.3123549 39.0574749,39.7969004 39.1520821,40.2996665 C39.5998121,42.6790144 39.8270334,45.1093189 39.8270334,47.5692777 C39.8270334,50.5162961 39.5009186,53.4200563 38.8608411,56.2434054 C38.7477357,56.7423077 39.0590217,57.2387712 39.5561178,57.3522875 C40.0532139,57.4658039 40.54788,57.1533869 40.6609854,56.6544846 C41.3315876,53.696492 41.6731872,50.6548538 41.6731872,47.5692777 Z M29.3169407,54.7890729 C29.4455162,54.2939593 29.1498314,53.7879807 28.6565103,53.6589381 C28.1631892,53.5298954 27.6590424,53.8266545 27.5304669,54.3217681 C27.1510152,55.7829462 26.6437334,57.2034465 26.0156204,58.5692428 C25.8019763,59.0337999 26.0040181,59.58422 26.4668934,59.7986404 C26.9297687,60.0130608 27.4781961,59.8102849 27.6918402,59.3457278 C28.3656319,57.8806056 28.9098561,56.3566586 29.3169407,54.7890729 Z M44.1789307,16.3620256 C43.6768146,16.2735186 43.1982798,16.610294 43.1100933,17.1142344 C43.0219067,17.6181749 43.3574628,18.0984484 43.8595788,18.1869554 C54.3746806,20.0404316 62.1538462,29.2481667 62.1538462,40.085204 C62.1538462,40.5968576 62.5671218,41.0116349 63.0769231,41.0116349 C63.5867244,41.0116349 64,40.5968576 64,40.085204 C64,28.3447255 55.5732466,18.3704791 44.1789307,16.3620256 Z"/>
</svg>
