<svg xmlns="http://www.w3.org/2000/svg" width="80" height="80" viewBox="0 0 80 80">
  <path fill="#000000" fill-rule="evenodd" d="M43.8709677,38.3663335 L43.8709677,42.6714477 C43.8709677,44.4028625 42.4689616,45.8064516 40.7443421,45.8064516 L39.2556579,45.8064516 C37.5288703,45.8064516 36.1290323,44.4116689 36.1290323,42.6714477 L36.1290323,38.3663335 C34.4115652,37.1511836 33.2903226,35.1491353 33.2903226,32.8852067 C33.2903226,29.1795541 36.2943475,26.1755292 40,26.1755292 C43.7056525,26.1755292 46.7096774,29.1795541 46.7096774,32.8852067 C46.7096774,35.1491353 45.5884348,37.1511836 43.8709677,38.3663335 Z M24,33.1428571 C24,44.5957433 39.2251057,64 40,64 C40.7748293,64 56,44.5899037 56,33.1428571 C56,21.1122567 46.8534634,16 40,16 C33.1465366,16 24,20.7241497 24,33.1428571 Z"/>
</svg>
