<svg xmlns="http://www.w3.org/2000/svg" width="174" height="174" viewBox="0 0 174 174">
  <defs>
    <linearGradient id="a" x1="0%" y1="0%" y2="100%">
      <stop stop-color="#33A2C6" offset="0%"/>
      <stop stop-color="#35C591" offset="100%"/>
    </linearGradient>
  </defs>
  <g fill="url(#a)" fill-rule="evenodd">
    <path d="M93.1032046,85 L71.8880868,85 C69.7315247,85 68,86.7424344 68,88.8918362 L68,113.108164 C68,115.256816 69.7407557,117 71.8880868,117 L102.111913,117 C104.268475,117 106,115.257566 106,113.108164 L106,88.8918362 C106,86.743184 104.259244,85 102.111913,85 L100.526279,85 L104.671526,77.8202215 C108.299469,71.5367414 105.42467,63.0849294 98.25,58.9426316 C91.0750037,54.8001456 82.3191712,56.5370092 78.6907644,62.8202215 C78.6907545,62.8206405 78.037162,63.9526958 77.5959553,64.7164865 L76.5011462,66.6127515 C76.0598897,67.3774319 76.5141767,69.1491217 77.2621058,69.580445 L79.1178745,70.6518736 C79.8661952,71.0844105 81.6273328,70.5920831 82.0684524,69.8270372 L83.1632614,67.9307722 C83.6048531,67.1669174 84.2583216,66.0350768 84.2580705,66.0345072 C86.0720475,62.8931259 90.8657864,62.2647694 94.9655727,64.6314266 C99.0643044,66.998186 100.917966,71.4641346 99.1042203,74.6059358 L93.1032046,85 Z M134.998,0 L39.001,0 C17.462,0 0,17.461 0,39 L0,135 C0,156.539 17.462,174 39.001,174 L134.999,174 C156.539,174 174.001,156.539 174.001,135 L174.001,39 C174,17.461 156.538,0 134.998,0 Z" opacity=".803"/>
    <path d="M93.1032046,85 L71.8880868,85 C69.7315247,85 68,86.7424344 68,88.8918362 L68,113.108164 C68,115.256816 69.7407557,117 71.8880868,117 L102.111913,117 C104.268475,117 106,115.257566 106,113.108164 L106,88.8918362 C106,86.743184 104.259244,85 102.111913,85 L100.526279,85 L104.671526,77.8202215 C108.299469,71.5367414 105.42467,63.0849294 98.25,58.9426316 C91.0750037,54.8001456 82.3191712,56.5370092 78.6907644,62.8202215 C78.6907545,62.8206405 78.037162,63.9526958 77.5959553,64.7164865 L76.5011462,66.6127515 C76.0598897,67.3774319 76.5141767,69.1491217 77.2621058,69.580445 L79.1178745,70.6518736 C79.8661952,71.0844105 81.6273328,70.5920831 82.0684524,69.8270372 L83.1632614,67.9307722 C83.6048531,67.1669174 84.2583216,66.0350768 84.2580705,66.0345072 C86.0720475,62.8931259 90.8657864,62.2647694 94.9655727,64.6314266 C99.0643044,66.998186 100.917966,71.4641346 99.1042203,74.6059358 L93.1032046,85 Z M134.998,6.7168493e-15 L39.001,6.7168493e-15 C17.462,6.7168493e-15 4.4408921e-16,17.461 4.4408921e-16,39 L4.4408921e-16,135 C4.4408921e-16,156.539 17.462,174 39.001,174 L134.999,174 C156.539,174 174.001,156.539 174.001,135 L174.001,39 C174,17.461 156.538,6.7168493e-15 134.998,6.7168493e-15 Z M-7.85949084e-12,86.4698108 C0.628884352,86.8064382 1.32924549,87 2.04132996,87 L11.9590677,87 C14.0490447,87 16.0562474,85.3191072 16.4204656,83.2456208 L17.3999528,77.6694211 C21.2233372,76.6698163 24.8291211,75.1320923 28.1315251,73.1420286 L32.1088804,75.9308681 C33.8308297,77.1382635 36.4335689,76.9156735 37.918312,75.4309304 L44.9312116,68.4180308 C46.4090485,66.9401939 46.6397845,64.3323165 45.4311493,62.6085991 L42.5309041,58.4723606 C44.436394,55.1724051 45.8953648,51.5822133 46.8252454,47.7843563 L51.7456208,46.9200679 C53.8169803,46.5562233 55.5,44.5584139 55.5,42.45867 L55.5,32.5409323 C55.5,30.4509553 53.8191072,28.4437526 51.7456208,28.0795344 L46.5538059,27.1675663 C45.5086322,23.3423622 43.9234014,19.7401383 41.8851417,16.4479232 L45.4308681,11.3911196 C46.6382635,9.66917035 46.4156735,7.0664311 44.9309304,5.58168801 L39.3492424,5.77315973e-15 L39.001,6.7168493e-15 C25.9511632,6.7168493e-15 14.3979059,6.40955979 7.31807851,16.2522738 C19.1836237,16.4223694 28.75,26.0940112 28.75,38 C28.75,50.0121933 19.0121933,59.75 7,59.75 C4.55105402,59.75 2.19663988,59.3452611 -5.25468558e-12,58.5990258 L4.4408921e-16,86.4698108 Z M130.359232,174 C130.199703,173.456329 130.047858,172.909373 129.90382,172.359257 L120.863399,170.738179 C117.901275,170.207027 115.5,167.337956 115.5,164.326174 L115.5,149.674406 C115.5,146.664305 117.904314,143.793008 120.863399,143.262401 L130.189464,141.590103 C131.598878,136.591708 133.655887,131.864805 136.264176,127.505711 L130.971534,119.900253 C129.252578,117.430135 129.583359,113.703437 131.713011,111.573786 L142.073376,101.213421 C144.201838,99.0849581 147.932259,98.7547511 150.399843,100.471945 L158.511803,106.117061 C162.797515,103.777691 167.408164,101.958884 172.258767,100.745625 L173.761821,92.3633988 C173.817073,92.0552702 173.897623,91.7532104 174.001,91.459291 L174.001,115.039901 C155.648779,120.43359 142.25,137.402069 142.25,157.5 C142.25,162.848828 143.19903,167.975999 144.937891,172.722313 C141.764797,173.556017 138.433744,174 134.999,174 L130.359232,174 Z"/>
  </g>
</svg>
