<svg xmlns="http://www.w3.org/2000/svg" width="174" height="174" viewBox="0 0 174 174">
  <defs>
    <linearGradient id="a" x1="0%" y1="0%" y2="100%">
      <stop stop-color="#33A2C6" offset="0%"/>
      <stop stop-color="#35C591" offset="100%"/>
    </linearGradient>
  </defs>
  <g fill="none" fill-rule="evenodd">
    <path fill="url(#a)" d="M134.452055,104.432547 L134.452055,108.320157 C134.452055,109.54564 133.470724,110.53909 132.240258,110.53909 L131.814536,110.53909 C130.592995,110.53909 129.60274,109.550105 129.60274,108.320157 L129.60274,104.432547 C128.311239,103.620041 127.452357,102.177712 127.452357,100.533835 C127.452357,97.9951954 129.500672,95.9372217 132.027397,95.9372217 C134.554123,95.9372217 136.602438,97.9951954 136.602438,100.533835 C136.602438,102.177712 135.743556,103.620041 134.452055,104.432547 Z M136.689914,88.8947368 L141.636944,79.9700589 C143.173373,77.1979989 141.52051,73.3442792 137.946579,71.3629093 C134.371736,69.3816492 130.22834,70.0226975 128.691706,72.7943963 C128.69193,72.7948876 128.138373,73.7935293 127.764288,74.4675024 L126.83687,76.1406085 C126.463207,76.8156099 124.943808,77.2788764 124.291298,76.9167568 L122.673143,76.0197989 C122.020985,75.6587288 121.60862,74.1244207 121.982406,73.449735 L122.909824,71.7766289 C123.283577,71.1027192 123.837238,70.103888 123.837242,70.1035228 C126.910897,64.5597248 134.472528,62.8756648 140.728832,66.3435911 C146.984852,69.8113596 149.564659,77.11691 146.491408,82.6609324 L143.035954,88.8947368 L144.955949,88.8947368 C147.189417,88.8947368 149,90.6984925 149,92.9429788 L149,112.996871 C149,115.232653 147.186959,117.045113 144.955949,117.045113 L119.098845,117.045113 C116.865378,117.045113 115.054795,115.241357 115.054795,112.996871 L115.054795,92.9429788 C115.054795,90.7071965 116.867835,88.8947368 119.098845,88.8947368 L136.689914,88.8947368 Z M134.998,0 L39.001,0 C17.462,0 0,17.461 0,39 L0,135 C0,156.539 17.462,174 39.001,174 L134.999,174 C156.539,174 174.001,156.539 174.001,135 L174.001,39 C174,17.461 156.538,0 134.998,0 Z M87.2655088,90.2582706 C77.9423581,90.2582706 69.2872476,94.3788611 63.4540839,101.3582 C62.0196768,103.074458 62.248162,105.628577 63.96442,107.062984 C65.6806779,108.497391 68.2347966,108.268906 69.6692038,106.552648 C73.9765379,101.398953 80.3633511,98.3582707 87.2655088,98.3582707 C94.2056505,98.3582707 100.624041,101.432813 104.93043,106.635142 C106.356711,108.358159 108.909721,108.598711 110.632738,107.17243 C112.355756,105.746149 112.596308,103.193138 111.170027,101.470121 C105.337974,94.4247168 96.6401341,90.2582706 87.2655088,90.2582706 Z M122.691306,85.1052632 C113.271468,76.0113729 100.636792,70.7593985 87.1496739,70.7593985 C71.7769839,70.7593985 57.5071626,77.5816091 47.840568,89.1547345 C46.4058704,90.8723958 46.6287229,93.4333716 48.3383232,94.8748341 C50.0479234,96.3162966 52.5968805,96.0923932 54.0315781,94.3747319 C62.1771702,84.6225947 74.1894189,78.8796992 87.1496739,78.8796992 C96.5981719,78.8796992 105.541118,81.9325976 112.847628,87.3609598 C114.03626,85.979905 115.798272,85.1052632 117.765696,85.1052632 L122.691306,85.1052632 L122.691306,85.1052632 Z M125.911073,62.7753216 C114.556369,55.3820044 101.148174,51.2706767 87.0702566,51.2706767 C65.5906037,51.2706767 45.6633384,60.8402845 32.206504,77.0587948 C30.7774144,78.7811689 31.0086159,81.3413975 32.7229068,82.7772255 C34.4371977,84.2130534 36.9854111,83.9807618 38.4145006,82.2583877 C50.3505377,67.87278 68.0126127,59.3909774 87.0702566,59.3909774 C99.0420552,59.3909774 110.46108,62.7387211 120.254003,68.7894594 L120.580199,68.1982115 C121.871378,65.8583968 123.726468,64.0369817 125.911073,62.7753216 L125.911073,62.7753216 Z M87.0365297,123 C90.6074667,123 93.5022831,120.091534 93.5022831,116.503759 C93.5022831,112.915985 90.6074667,110.007519 87.0365297,110.007519 C83.4655927,110.007519 80.5707763,112.915985 80.5707763,116.503759 C80.5707763,120.091534 83.4655927,123 87.0365297,123 Z"/>
  </g>
</svg>
