<svg xmlns="http://www.w3.org/2000/svg" width="174" height="174" viewBox="0 0 174 174">
  <path fill="#FFFFFF" fill-rule="evenodd" d="M134.998,0 L39.001,0 C17.462,0 0,17.461 0,39 L0,135 C0,156.539 17.462,174 39.001,174 L134.999,174 C156.539,174 174.001,156.539 174.001,135 L174.001,39 C174,17.461 156.538,0 134.998,0 Z M142.19881,81.6457047 L119.954799,68.8304527 C119.725966,68.68082 119.435123,68.6106625 119.161291,68.6106625 C118.853985,68.6106625 118.5818,68.68082 118.325529,68.8304527 C117.832193,69.1209486 117.54135,69.648226 117.54135,70.2462089 L117.55891,75.4356707 C109.528348,76.4293858 101.928562,79.6840355 95.6414121,84.7507217 L95.6414121,59.4277049 L100.334961,59.4277049 C100.933111,59.4277049 101.462116,59.1026784 101.75241,58.5923923 C102.077825,58.0996456 102.077825,57.4490445 101.75241,56.9738371 L88.939399,34.7744729 C88.6320931,34.2904959 88.1036367,34 87.5219504,34 C86.940813,34 86.4123565,34.2904959 86.1045018,34.7744729 L73.2739304,56.9738371 C72.9830873,57.4490445 72.9830873,58.0996456 73.2739304,58.5923923 C73.5642248,59.1026784 74.09323,59.4277049 74.6919278,59.4277049 L79.376697,59.4277049 L79.376697,84.7507217 C73.0889981,79.6840355 65.4985416,76.4293858 57.5371229,75.4356707 L57.5201113,70.2462089 C57.5201113,69.6306866 57.1941475,69.1209486 56.7013605,68.8304527 C56.4280778,68.68082 56.154795,68.6106625 55.8996213,68.6106625 C55.5912179,68.6106625 55.3009235,68.68082 55.0633102,68.8304527 L32.8368599,81.6276172 C32.334744,81.9181131 32,82.4810173 32,83.0439215 C32,83.6068257 32.334744,84.1872693 32.8368599,84.4596777 L55.0633102,97.2573903 C55.3009235,97.3982534 55.5912179,97.4684109 55.8996213,97.4684109 C56.154795,97.4684109 56.4280778,97.3982534 56.7013605,97.2573903 C57.1941475,96.9586729 57.5201113,96.4571564 57.5201113,95.841086 L57.5201113,91.8656776 C69.910028,94.3458545 79.1824357,105.489933 79.376697,118.454818 L79.376697,137.329375 C79.376697,137.80513 79.5786409,138.200314 79.8870443,138.490262 C80.1778874,138.798297 80.6009818,139 81.0317589,139 L81.049868,139 L93.9331204,138.983009 C94.8484531,138.983009 95.570622,138.235393 95.570622,137.311835 L95.570622,118.903168 C95.6238518,118.762305 95.6414121,118.630212 95.6414121,118.454818 C95.8609164,105.489933 105.168994,94.3107758 117.54135,91.8656776 L117.55891,95.841086 C117.55891,96.4571564 117.867862,96.9844338 118.360649,97.2573903 C118.598263,97.3982534 118.888557,97.4684109 119.196961,97.4684109 C119.452683,97.4684109 119.742977,97.3982534 119.980591,97.2573903 L142.19881,84.4596777 C142.691597,84.1872693 143,83.6068257 143,83.0439215 C143,82.4810173 142.691597,81.9181131 142.19881,81.6457047 Z"/>
</svg>
