<svg xmlns="http://www.w3.org/2000/svg" width="174" height="174" viewBox="0 0 174 174">
  <path fill="#FFFFFF" fill-rule="evenodd" d="M40,79.9809676 L40,123.528415 C41.9510601,124.740403 44.2064394,125.152665 46.4043979,124.949012 C45.571878,123.693964 44.8100297,122.403541 44.1260345,121.082395 C43.2109097,119.314819 43.898137,117.138077 45.6609996,116.220505 C46.5424309,115.761719 47.525881,115.704592 48.4033638,115.983109 C49.2808466,116.261626 50.0523623,116.875786 50.5099246,117.759574 C50.8967975,118.506825 51.3145387,119.24323 51.7611767,119.967512 C52.2078148,120.691794 52.6833497,121.403953 53.1858102,122.102708 C55.5269209,120.08361 56.8483222,117.18792 56,114 L56,88 L56,62 C56.8807802,58.6889052 55.4226271,55.697551 52.9126732,53.6740574 C52.0636907,54.9716817 51.3252053,56.3107911 50.7100126,57.6833141 C49.8958067,59.4998443 47.7671006,60.3106238 45.9554145,59.4942409 C44.1437284,58.677858 43.3351109,56.5434603 44.1493167,54.7269301 C44.7139264,53.4672603 45.3590797,52.2339236 46.0784973,51.0307536 C43.9844954,50.893683 41.8547408,51.3192435 40,52.4639178 L40,67.0190324 C41.4824404,65.7597345 43.4024975,65 45.5,65 C50.1944204,65 54,68.8055796 54,73.5 C54,78.1944204 50.1944204,82 45.5,82 C43.4024975,82 41.4824404,81.2402655 40,79.9809676 Z M39,68.0224833 L39,53.1747072 C37.1938685,54.6429808 35.7451278,56.9152115 35,60.1657354 L35,88 L35,115.78045 C35.7451278,119.050058 37.1938685,121.33563 39,122.813091 L39,78.9775167 C37.7520837,77.4981704 37,75.5869145 37,73.5 C37,71.4130855 37.7520837,69.5018296 39,68.0224833 Z M119.922255,44.9019445 C111.454354,36.4053086 100.493361,32.4899588 88.3295471,33.1612037 C71.4252572,34.0940459 55.2032525,44.1399737 49.3978734,57.0920373 C48.9093499,58.1819554 47.6321262,58.6684231 46.5451145,58.1785934 C45.4581029,57.6887636 44.9729324,56.408125 45.4614559,55.3182069 C51.9637598,40.8112726 69.6505908,29.8582102 88.0923856,28.8405228 C109.044924,27.6842831 126.915651,39.0398947 135.765588,62.3530997 C135.920227,62.7604619 135.948552,63.2051574 135.846851,63.6289343 C135.57102,64.7782974 135.381051,65.4937055 134.988163,66.8765892 C134.971566,66.8635876 134.954883,66.8505332 134.938114,66.8374251 C134.832467,66.7548404 133.013026,65.3404155 132.765789,65.1482585 C132.334216,60.4027506 129.599142,54.9153679 124.888152,49.7049388 C123.374548,48.0308683 121.793503,46.4959905 119.922255,44.9019445 Z M129.32609,71.6057837 C129.22734,72.023333 129.145101,72.3899717 129.08613,72.6825487 C129.008943,73.0655044 129.036615,73.4622704 129.166209,73.8307271 C132.10026,82.1727056 130.594032,98.0381362 126.931817,107.284603 C126.491962,108.395164 127.033275,109.652978 128.140874,110.09401 C128.775195,110.346589 129.457683,110.276499 130.007742,109.96188 C130.298496,109.200664 130.576671,108.426352 130.841989,107.639091 C134.822235,96.5117846 135.598729,84.0520772 132.717487,74.6514676 C132.543731,74.3084073 132.411362,74.1623572 132.253313,74.0048874 C131.860421,73.6134359 131.332996,73.1640947 130.515669,72.52519 C130.420118,72.4504975 130.226878,72.3008907 129.96023,72.0950069 C129.774638,71.9517092 129.35903,71.6312147 129.32609,71.6057837 Z M134.997224,0 L39.0007759,0 C17.4618996,0 0,17.461 0,39 L0,135 C0,156.539 17.4618996,174 39.0007759,174 L134.998224,174 C156.5381,174 174,156.539 174,135 L174,39 C173.999,17.461 156.5371,0 134.997224,0 Z M45.4028125,120.417831 C44.8537377,119.357285 45.266074,118.05124 46.3237916,117.500697 C47.3815091,116.950154 48.6840717,117.363593 49.2331466,118.424138 C55.8943106,131.290269 71.5142025,141.262313 86.8348529,141.61758 C107.189137,142.089571 124.648868,130.521185 132.196091,108.126048 C136.144627,97.0873897 137.16134,84.2401802 134.092579,74.2277519 C134.059536,74.1199418 134.03495,74.0097062 134.019048,73.8980529 C134.01163,73.8459724 133.773425,73.4859945 133.267297,72.9817221 C132.814394,72.53048 132.23501,72.0402404 131.400158,71.387637 C131.14256,71.1862727 129.37576,69.8126613 129.062381,69.5459428 C127.983809,68.6279636 127.403403,67.9625655 127.148721,66.7359103 C126.68628,62.1289331 124.433463,57.792311 120.625,53.5800909 C117.71988,50.3669818 114.464147,47.704381 109.535735,44.2002655 C108.563599,43.509074 108.334354,42.1585734 109.023703,41.1838381 C109.713051,40.2091028 111.05995,39.9792452 112.032086,40.6704368 C117.196994,44.3427013 120.655532,47.1711594 123.822364,50.6737269 C128.071466,55.3733011 130.715601,60.3592064 131.386349,65.7985994 C131.516465,65.9488496 131.590895,66.0220174 131.855201,66.2469704 C132.107653,66.4618333 132.410227,66.7037369 132.843568,67.0396425 C132.890624,67.0761181 133.781383,67.7621664 134.053625,67.9749781 C135.013776,68.7255276 135.706378,69.3115649 136.30925,69.9122261 C137.424325,71.0232126 138.118465,72.072204 138.291384,73.2863035 L138.217853,72.9566046 C141.589071,83.9558537 140.498823,97.7322391 136.271541,109.54907 C128.117481,133.74615 108.931435,146.45835 86.7350711,145.943643 C69.8237122,145.551489 52.7826911,134.672168 45.4028125,120.417831 Z M45.5,81 C49.6421356,81 53,77.6421356 53,73.5 C53,69.3578644 49.6421356,66 45.5,66 C41.3578644,66 38,69.3578644 38,73.5 C38,77.6421356 41.3578644,81 45.5,81 Z M45.5,78 C47.9852814,78 50,75.9852814 50,73.5 C50,71.0147186 47.9852814,69 45.5,69 C43.0147186,69 41,71.0147186 41,73.5 C41,75.9852814 43.0147186,78 45.5,78 Z M42,92.0095579 C42,89.7951402 43.7953562,88 46,88 C48.209139,88 50,89.8003523 50,92.0095579 L50,105.990442 C50,108.20486 48.2046438,110 46,110 C43.790861,110 42,108.199648 42,105.990442 L42,92.0095579 Z M43,91.8761548 C43,90.2876984 44.2871505,89 45.8769838,89 L46.1230162,89 C47.7119305,89 49,90.2815145 49,91.8761548 L49,106.123845 C49,107.712302 47.7128495,109 46.1230162,109 L45.8769838,109 C44.2880695,109 43,107.718486 43,106.123845 L43,91.8761548 Z"/>
</svg>
