<svg xmlns="http://www.w3.org/2000/svg" width="174" height="174"><g fill="none"><g fill="#fff"><path d="M53 103V82l-15 21h15zM134.998 0H39.001C17.462 0 0 17.461 0 39v96c0 21.539 17.462 39 39.001 39h95.998c21.54 0 39.002-17.461 39.002-39V39C174 17.461 156.538 0 134.998 0zM70 112h-8v9h-9v-9H22l40-58v49h8v9zm14.791 9.737c-2.963 0-5.364-2.404-5.364-5.368 0-2.964 2.402-5.368 5.364-5.368 2.962 0 5.364 2.404 5.364 5.368 0 2.964-2.401 5.368-5.364 5.368zM152 97c0 14.359-11.641 26-26 26h-3c-14.359 0-26-11.641-26-26V77c0-14.359 11.641-26 26-26h3c14.359 0 26 11.641 26 26v20zm-30-40v23l-10.388-9.421-3.786 3.789L122 87l-14.175 12.632 3.786 3.789L122 94v23l19-17-13-13 13-12-19-18zm12 43l-7 6V93l7 7zm-7-19V68l7 7-7 6z"/></g></g></svg>