<?xml version="1.0" encoding="utf-8"?>
<!-- Generator: Adobe Illustrator 18.1.1, SVG Export Plug-In . SVG Version: 6.00 Build 0)  -->
<svg version="1.1" id="Layer_1" xmlns="http://www.w3.org/2000/svg" xmlns:xlink="http://www.w3.org/1999/xlink" x="0px" y="0px"
	 viewBox="0 0 717.9 165.6" enable-background="new 0 0 717.9 165.6" xml:space="preserve">
<path fill="#05A0F7" d="M123.1,61.4C123.1,27.4,95.5,0,61.4,0S0,27.7,0,61.8c0,12.3,4.2,23.8,10.1,33.5v0l51.4,70.3l51.8-71.3h0
	C119.5,86.4,123.1,73.7,123.1,61.4z M75.8,85.2l-1.9,1l0,8.2v24.4l-12.3,17.5l-12.3-17.4V98.4l0-12.1l-1.9-1
	c-2.9-1.5-5.6-3.4-7.9-5.7c-5.9-5.9-9.1-13.7-9.1-22.1c0-12.6,7.7-24,19.3-28.9l0,32l12,8.9l12-8.9l0-32c3.8,1.6,7.2,3.9,10.1,6.8
	c5.9,5.9,9.1,13.7,9.1,22.1C92.8,69,86.2,79.9,75.8,85.2z"/>
<path fill="#232323" d="M185.5,77.4h20.8v29.9c0,15.1-7.5,23.7-22.1,23.7c-14.6,0-22.1-8.6-22.1-23.7V58.2
	c0-15.1,7.5-23.7,22.1-23.7c14.6,0,22.1,8.6,22.1,23.7v9.2h-14V57.3c0-6.7-3-9.3-7.7-9.3c-4.7,0-7.7,2.6-7.7,9.3v51
	c0,6.7,3,9.2,7.7,9.2c4.7,0,7.7-2.4,7.7-9.2V90.8h-6.7V77.4z"/>
<path fill="#232323" d="M231.3,35.6v72.8c0,6.7,3,9.2,7.7,9.2c4.7,0,7.7-2.4,7.7-9.2V35.6h14v71.8c0,15.1-7.5,23.7-22.1,23.7
	c-14.6,0-22.1-8.6-22.1-23.7V35.6H231.3z"/>
<path fill="#232323" d="M272.2,35.6H287v94.4h-14.8V35.6z"/>
<path fill="#232323" d="M299.1,35.6h23.5c14.8,0,22.1,8.2,22.1,23.3v47.7c0,15.1-7.3,23.3-22.1,23.3h-23.5V35.6z M313.9,49.1v67.4
	h8.4c4.7,0,7.5-2.4,7.5-9.2V58.2c0-6.7-2.8-9.2-7.5-9.2H313.9z"/>
<path fill="#232323" d="M355.5,35.6h14.8v94.4h-14.8V35.6z"/>
<path fill="#232323" d="M395.9,61.6h-0.3v68.3h-13.3V35.6h18.6l15,56.5h0.3V35.6h13.2v94.4h-15.2L395.9,61.6z"/>
<path fill="#232323" d="M463.6,77.4h20.8v29.9c0,15.1-7.5,23.7-22.1,23.7c-14.6,0-22.1-8.6-22.1-23.7V58.2
	c0-15.1,7.5-23.7,22.1-23.7c14.6,0,22.1,8.6,22.1,23.7v9.2h-14V57.3c0-6.7-3-9.3-7.7-9.3c-4.7,0-7.7,2.6-7.7,9.3v51
	c0,6.7,3,9.2,7.7,9.2c4.7,0,7.7-2.4,7.7-9.2V90.8h-6.7V77.4z"/>
<path fill="#05A0F7" d="M513.2,35.6H559v13.5h-15.5v80.9h-14.8V49.1h-15.5V35.6z"/>
<path fill="#05A0F7" d="M581.6,75.3H602v13.5h-20.4v27.6h25.6v13.5h-40.4V35.6h40.4v13.5h-25.6V75.3z"/>
<path fill="#05A0F7" d="M660.8,94.8v12.5c0,15.1-7.5,23.7-22.1,23.7c-14.6,0-22.1-8.6-22.1-23.7V58.2c0-15.1,7.5-23.7,22.1-23.7
	c14.6,0,22.1,8.6,22.1,23.7v9.2h-14V57.3c0-6.7-3-9.3-7.7-9.3c-4.7,0-7.7,2.6-7.7,9.3v51c0,6.7,3,9.2,7.7,9.2c4.7,0,7.7-2.4,7.7-9.2
	V94.8H660.8z"/>
<path fill="#05A0F7" d="M686,129.9h-14.8V35.6H686V76h16.8V35.6h15.1v94.4h-15.1V89.5H686V129.9z"/>
</svg>
