<?xml version="1.0" encoding="UTF-8"?>
<svg width="113px" height="207px" viewBox="0 0 113 207" version="1.1" xmlns="http://www.w3.org/2000/svg" xmlns:xlink="http://www.w3.org/1999/xlink">
    <title>applewatch</title>
    <g id="Devices" stroke="none" stroke-width="1" fill="none" fill-rule="evenodd">
        <g id="Devices/SettingsApp/devices_apple_watch_offline" transform="translate(-121.000000, -72.000000)" fill="#DCDCDC" fill-rule="nonzero">
            <path d="M171.113043,264.001739 C172.586957,265.27913 173.815217,264.738696 173.913478,262.773478 L173.913478,260.955652 C173.864348,258.744783 172.93087,256.632174 171.358696,255.10913 L165.463043,249.901304 C163.98913,248.623913 162.76087,249.164348 162.711739,251.129565 L162.711739,252.898261 C162.76087,255.06 163.645217,257.172609 165.217391,258.695652 L171.113043,264.001739 Z M157.847826,250.048696 L151.755652,254.961739 C150.134348,256.484783 149.151739,258.548261 149.053478,260.75913 L149.053478,262.576957 C149.053478,264.542174 150.281739,265.131739 151.755652,263.854348 L157.896957,258.941304 C159.518261,257.418261 160.451739,255.354783 160.59913,253.143913 L160.59913,251.326087 C160.59913,249.36087 159.37087,248.869565 157.847826,250.048696 Z M146.94087,262.773478 L146.94087,260.955652 C146.891739,258.744783 145.958261,256.632174 144.386087,255.10913 L138.490435,249.901304 C138.490435,249.901304 138.195652,249.901304 138.048261,249.655652 C138.392174,251.031304 138.686957,252.406957 138.883478,253.782609 C139.178261,255.796957 139.325652,257.811304 139.374783,259.825652 L144.287826,264.001739 C145.565217,265.27913 146.842609,264.738696 146.94087,262.773478 Z M205.70087,255.158261 C204.079565,256.681304 203.096957,258.744783 202.998696,260.955652 L202.998696,262.773478 C202.998696,264.738696 204.226957,265.328261 205.70087,264.05087 L209.926087,260.513478 C210.171739,256.877826 210.908696,253.291304 212.136957,249.852174 L211.793043,249.852174 L205.70087,255.158261 Z M184.869565,250.048696 L178.777391,254.961739 C177.156087,256.484783 176.173478,258.548261 176.075217,260.75913 L176.075217,262.576957 C176.075217,264.542174 177.303478,265.131739 178.777391,263.854348 L184.918696,258.941304 C186.54,257.418261 187.473478,255.354783 187.62087,253.143913 L187.62087,251.326087 C187.571739,249.36087 186.343478,248.869565 184.869565,250.048696 Z M165.217391,261.938261 C163.694348,260.71 162.466087,261.299565 162.466087,263.215652 L162.466087,265.033478 C162.613478,267.244348 163.596087,269.307826 165.217391,270.83087 L171.358696,275.743913 C172.832609,277.021304 174.06087,276.431739 174.06087,274.515652 L174.06087,272.697826 C173.962609,270.486957 172.98,268.423478 171.358696,266.900435 L165.217391,261.938261 Z M162.711739,275.4 L162.711739,277.217826 C162.711739,277.512609 162.711739,277.758261 162.711739,278.053043 C165.217391,278.053043 167.624783,278.053043 170.179565,278.298696 L165.266522,274.171739 C163.98913,272.894348 162.76087,273.434783 162.711739,275.4 Z M157.847826,274.31913 L154.113913,277.463478 C156.07913,277.463478 158.24087,277.856522 160.50087,277.954783 C160.50087,277.758261 160.50087,277.61087 160.50087,277.414348 L160.50087,275.596522 C160.59913,273.680435 159.37087,273.09087 157.847826,274.31913 Z M160.304348,265.033478 L160.304348,263.215652 C160.304348,261.299565 159.026957,260.75913 157.553043,262.036522 L151.706522,267.244348 C150.134348,268.767391 149.20087,270.88 149.151739,273.09087 L149.151739,274.908696 C149.151739,276.873913 150.478261,277.414348 151.952174,276.136957 L157.896957,270.92913 C159.42,269.356957 160.304348,267.244348 160.304348,265.033478 Z M139.522174,263.01913 C139.571304,265.623043 139.816957,268.226957 140.25913,270.781739 C141.143478,273.631304 143.55087,275.743913 146.498696,276.235217 L146.498696,276.235217 C146.891739,275.842174 147.088261,275.252609 147.03913,274.712174 L147.03913,272.894348 C146.94087,270.683478 145.958261,268.62 144.336957,267.096957 L139.522174,263.01913 Z M203.391739,273.434783 L203.391739,275.252609 C203.293478,275.645652 203.293478,276.038696 203.391739,276.431739 L203.391739,276.431739 C206.388696,275.891304 208.796087,273.631304 209.434783,270.634348 C209.434783,269.602609 209.434783,267.146087 209.434783,264.05087 L205.651739,267.44087 C204.128696,269.062174 203.293478,271.223913 203.391739,273.434783 Z M192.23913,261.938261 C190.716087,260.71 189.487826,261.299565 189.487826,263.215652 L189.487826,265.033478 C189.586087,267.244348 190.568696,269.307826 192.19,270.83087 L198.331304,275.743913 C199.805217,277.021304 201.033478,276.431739 201.033478,274.515652 L201.033478,272.697826 C200.935217,270.486957 199.952609,268.423478 198.331304,266.900435 L192.23913,261.938261 Z M192.23913,249.950435 C190.716087,248.722174 189.487826,249.262609 189.487826,251.227826 L189.487826,253.045652 C189.684348,255.207391 190.617826,257.221739 192.19,258.695652 L198.331304,263.608696 C199.805217,264.836957 201.033478,264.296522 201.033478,262.331304 L201.033478,260.513478 C200.935217,258.302609 199.952609,256.23913 198.331304,254.716087 L192.23913,249.950435 Z M189.782609,275.4 L189.782609,277.217826 C189.782609,277.463478 189.782609,277.70913 189.782609,277.954783 L196.267826,277.463478 L192.533913,274.171739 C190.961739,272.894348 189.782609,273.434783 189.782609,275.4 Z M184.869565,274.31913 L179.956522,278.347826 C182.363913,278.347826 184.869565,278.347826 187.326087,278.102174 C187.326087,277.905652 187.326087,277.66 187.326087,277.463478 L187.326087,275.645652 C187.571739,273.680435 186.343478,273.09087 184.869565,274.31913 Z M187.424348,265.033478 L187.424348,263.215652 C187.424348,261.299565 186.146957,260.75913 184.673043,262.036522 L178.728261,267.244348 C177.156087,268.767391 176.222609,270.88 176.173478,273.09087 L176.173478,274.908696 C176.173478,276.873913 177.5,277.414348 178.973913,276.136957 L184.869565,270.92913 C186.441739,269.356957 187.375217,267.244348 187.424348,265.033478 Z M171.113043,85.56 L165.217391,90.7678261 C163.645217,92.2908696 162.711739,94.3543478 162.662609,96.5652174 L162.662609,98.3830435 C162.662609,100.29913 163.94,100.839565 165.413913,99.5621739 L171.358696,94.3543478 C172.93087,92.8313043 173.864348,90.7186957 173.913478,88.5078261 L173.913478,86.7391304 C173.815217,84.8230435 172.586957,84.2826087 171.113043,85.56 Z M157.847826,99.5130435 C159.37087,100.741304 160.59913,100.20087 160.59913,98.2356522 L160.59913,96.5652174 C160.451739,94.3543478 159.46913,92.2908696 157.896957,90.7678261 L151.755652,85.8547826 C150.281739,84.6265217 149.053478,85.1669565 149.053478,87.1321739 L149.053478,88.95 C149.151739,91.1608696 150.134348,93.2243478 151.755652,94.7473913 L157.847826,99.5130435 Z M144.435217,94.4526087 C146.007391,92.9295652 146.94087,90.8169565 146.99,88.606087 L146.99,86.7391304 C146.99,84.773913 145.663478,84.2334783 144.189565,85.5108696 L139.276522,89.8343478 C139.276522,90.8169565 139.276522,91.7504348 138.932609,92.5856522 C138.637826,95.1895652 138.097391,97.7443478 137.311304,100.25 C137.753478,100.151739 138.146522,99.906087 138.490435,99.6113043 L144.435217,94.4526087 Z M211.793043,99.5130435 C212.087826,99.7586957 212.431739,99.9552174 212.775652,100.053478 C212.775652,99.3656522 212.333478,98.6286957 212.136957,97.8917391 C211.596522,95.2878261 211.252609,92.683913 211.105217,90.0308696 L205.70087,85.5108696 C204.226957,84.2826087 202.998696,84.8230435 202.998696,86.7882609 L202.998696,88.606087 C203.096957,90.8169565 204.079565,92.8804348 205.70087,94.4034783 L211.793043,99.5130435 Z M184.869565,99.5130435 C186.392609,100.741304 187.62087,100.20087 187.62087,98.2356522 L187.62087,96.5652174 C187.522609,94.3052174 186.54,92.1926087 184.869565,90.6204348 L178.728261,85.7073913 C177.254348,84.4791304 176.026087,85.0195652 176.026087,86.9847826 L176.026087,88.8026087 C176.124348,91.0134783 177.106957,93.0769565 178.728261,94.6 L184.869565,99.5130435 Z M165.217391,87.6234783 L171.309565,82.7104348 C172.93087,81.1873913 173.913478,79.123913 174.06087,76.9130435 L174.06087,74.8495652 C174.06087,72.9334783 172.832609,72.343913 171.358696,73.6213043 L165.217391,78.7308696 C163.596087,80.253913 162.613478,82.3173913 162.515217,84.5282609 L162.515217,86.346087 C162.515217,88.2621739 163.743478,88.8517391 165.217391,87.6234783 Z M165.463043,75.39 L169.246087,72 L162.662609,72 L162.662609,73.916087 C162.76087,76.1269565 163.98913,76.9130435 165.463043,75.39 Z M160.59913,73.9652174 L160.59913,72.3930435 L154.9,72.7369565 L157.847826,75.2426087 C159.37087,76.4708696 160.59913,75.9304348 160.59913,73.9652174 Z M157.651304,87.5252174 C159.125217,88.8517391 160.353478,88.2621739 160.402609,86.346087 L160.402609,84.5282609 C160.353478,82.3173913 159.46913,80.2047826 157.896957,78.6817391 L152.001304,73.473913 C151.804783,73.3265217 151.608261,73.2282609 151.411739,73.13 L149.544783,73.13 C149.348261,73.5230435 149.20087,73.9652174 149.20087,74.4073913 L149.20087,76.2252174 C149.25,78.436087 150.183478,80.5486957 151.755652,82.0717391 L157.651304,87.5252174 Z M147.088261,76.9130435 L147.088261,74.8495652 C147.137391,74.5547826 147.137391,74.2108696 147.088261,73.916087 L146.253043,73.916087 C143.403478,74.603913 141.241739,76.863913 140.652174,79.7134783 C140.357391,81.1873913 140.111739,83.8404348 139.816957,86.4934783 L144.73,82.513913 C146.154783,80.9908696 146.99,79.0256522 147.088261,76.9130435 Z M210.810435,86.4443478 C210.663043,84.5282609 210.417391,82.6121739 210.073478,80.696087 C209.434783,77.3552174 206.83087,74.8004348 203.49,74.2108696 C203.49,74.2108696 203.49,74.2108696 203.49,74.4565217 L203.49,76.2743478 C203.53913,78.4852174 204.472609,80.5978261 206.044783,82.17 L210.810435,86.4443478 Z M192.23913,87.6234783 L198.331304,82.7104348 C199.952609,81.1873913 200.935217,79.123913 201.033478,76.9130435 L201.033478,74.8495652 C201.131739,74.4565217 201.131739,74.0634783 201.033478,73.6704348 L198.822609,73.4247826 L198.527826,73.4247826 L192.386522,78.3378261 C190.765217,79.8608696 189.782609,81.9243478 189.684348,84.1352174 L189.684348,85.9530435 C189.487826,88.2621739 190.716087,88.8517391 192.23913,87.6234783 Z M192.23913,99.6113043 L198.331304,94.6982609 C199.952609,93.1752174 200.935217,91.1117391 201.033478,88.9008696 L201.033478,86.7391304 C201.033478,84.773913 199.805217,84.2334783 198.331304,85.4617391 L192.19,90.3747826 C190.519565,91.996087 189.536957,94.2069565 189.487826,96.5652174 L189.487826,98.3830435 C189.487826,100.29913 190.716087,100.888696 192.23913,99.6113043 Z M192.435652,75.39 L195.088696,73.0808696 L189.782609,72.5895652 L189.782609,74.1617391 C189.782609,76.1269565 190.961739,76.9130435 192.435652,75.39 Z M187.571739,73.9652174 L187.571739,72.4421739 C185.45913,72.4421739 183.297391,72.1965217 181.135652,72.1473913 L184.820435,75.2426087 C186.343478,76.4708696 187.571739,75.9304348 187.571739,73.9652174 Z M184.869565,87.5252174 C186.343478,88.8517391 187.571739,88.2621739 187.62087,86.346087 L187.62087,84.5282609 C187.522609,82.2682609 186.54,80.1556522 184.869565,78.6817391 L178.973913,73.473913 C177.5,72.1473913 176.222609,72.6878261 176.173478,74.6530435 L176.173478,76.4708696 C176.222609,78.6817391 177.156087,80.7943478 178.728261,82.3173913 L184.869565,87.5252174 Z M229.086957,140.782609 L229.086957,132.626957 C229.086957,123.144783 222.798261,114.841739 213.70913,112.237826 C214.151304,111.844783 214.396957,111.206087 214.347826,110.616522 L214.347826,108.798696 C214.298696,106.587826 213.365217,104.475217 211.793043,102.952174 L205.897391,97.7443478 C204.423478,96.4669565 203.146087,97.0073913 203.096957,98.9234783 L203.096957,100.741304 C203.146087,102.952174 204.079565,105.064783 205.651739,106.636957 L211.4,111.55 C210.22087,111.353478 208.992609,111.206087 207.764348,111.206087 L193.025217,111.206087 L198.429565,106.686087 C200.05087,105.163043 201.033478,103.099565 201.131739,100.888696 L201.131739,99.0708696 C201.131739,97.1056522 199.903478,96.5652174 198.429565,97.7934783 L192.288261,102.706522 C190.666957,104.229565 189.733478,106.293043 189.586087,108.503913 L189.586087,110.321739 C189.586087,110.665652 189.635217,111.009565 189.782609,111.304348 L187.375217,111.304348 C187.424348,111.058696 187.424348,110.862174 187.375217,110.616522 L187.375217,108.798696 C187.326087,106.587826 186.441739,104.475217 184.869565,102.952174 L178.973913,97.7443478 C177.5,96.4669565 176.222609,97.0073913 176.173478,98.9234783 L176.173478,100.741304 C176.222609,102.952174 177.156087,105.064783 178.728261,106.636957 L184.083478,111.304348 L165.954348,111.304348 L171.358696,106.784348 C172.98,105.261304 173.962609,103.197826 174.06087,100.986957 L174.06087,99.1691304 C174.06087,97.203913 172.832609,96.6634783 171.358696,97.8917391 L165.217391,103.001304 C163.596087,104.524348 162.662609,106.587826 162.515217,108.798696 L162.515217,110.616522 C162.466087,110.862174 162.466087,111.058696 162.515217,111.304348 L160.304348,111.304348 C160.353478,111.058696 160.353478,110.862174 160.304348,110.616522 L160.304348,108.798696 C160.255217,106.587826 159.37087,104.524348 157.798696,102.952174 L152.001304,97.7443478 C150.527391,96.4669565 149.29913,97.0073913 149.20087,98.9234783 L149.20087,100.741304 C149.25,102.952174 150.183478,105.064783 151.755652,106.636957 L157.061739,111.304348 L142.322609,111.304348 C141.045217,111.304348 139.767826,111.451739 138.539565,111.697391 L144.386087,106.784348 C146.007391,105.261304 146.99,103.197826 147.088261,100.986957 L147.088261,99.1691304 C147.088261,97.203913 145.86,96.6634783 144.386087,97.8917391 L138.244783,102.804783 C136.672609,104.426087 135.788261,106.538696 135.73913,108.798696 L135.73913,110.616522 C135.69,111.255217 135.935652,111.893913 136.426957,112.286957 C127.337826,114.89087 121.04913,123.144783 121,132.626957 L121,217.72087 C121,226.957391 126.944783,235.113043 135.73913,237.913478 C135.69,238.306522 135.69,238.650435 135.73913,239.043478 L135.73913,240.861304 C135.886522,243.072174 136.82,245.135652 138.441304,246.658696 L144.582609,251.571739 C146.056522,252.84913 147.284783,252.259565 147.284783,250.294348 L147.284783,248.476522 C147.186522,246.265652 146.203913,244.202174 144.582609,242.67913 L139.669565,238.650435 C140.553913,238.797826 141.487391,238.896087 142.42087,238.945217 L156.177391,238.945217 L151.706522,242.826522 C150.085217,244.447826 149.20087,246.609565 149.151739,248.869565 L149.151739,250.687391 C149.151739,252.603478 150.478261,253.143913 151.952174,251.866522 L157.896957,246.658696 C159.42,245.086522 160.304348,242.973913 160.304348,240.763043 L160.304348,239.043478 L162.416957,239.043478 L162.416957,240.763043 C162.564348,242.973913 163.596087,245.037391 165.217391,246.560435 L171.358696,251.473478 C172.832609,252.75087 174.06087,252.161304 174.06087,250.196087 L174.06087,248.378261 C173.962609,246.167391 172.98,244.103913 171.358696,242.58087 L166.887826,239.043478 L183.15,239.043478 L178.67913,242.924783 C177.106957,244.496957 176.173478,246.609565 176.124348,248.820435 L176.124348,250.638261 C176.124348,252.554348 177.45087,253.094783 178.924783,251.817391 L184.869565,246.609565 C186.441739,245.086522 187.375217,242.973913 187.424348,240.763043 L187.424348,239.043478 L189.536957,239.043478 L189.536957,240.763043 C189.684348,242.973913 190.617826,245.037391 192.23913,246.560435 L198.380435,251.473478 C199.854348,252.75087 201.082609,252.161304 201.082609,250.196087 L201.082609,248.378261 C200.984348,246.167391 200.001739,244.103913 198.380435,242.58087 L193.860435,239.043478 L208.599565,239.043478 C209.238261,239.043478 209.827826,239.043478 210.466522,239.043478 L205.79913,243.121304 C204.226957,244.693478 203.293478,246.806087 203.244348,249.016957 L203.244348,250.834783 C203.244348,252.75087 204.57087,253.291304 206.044783,252.013913 L211.940435,246.806087 C213.512609,245.184783 214.396957,243.023043 214.347826,240.763043 L214.347826,239.043478 C214.396957,238.748696 214.396957,238.503043 214.347826,238.208261 C223.093043,235.653478 229.086957,227.645217 229.086957,218.556087 L229.086957,165.347826 L234,165.347826 L234,140.782609 L229.086957,140.782609 Z M224.173913,140.782609 L224.173913,218.408696 C224.124783,227.104783 217.148261,234.081304 208.452174,234.130435 L142.322609,234.130435 C133.282609,234.081304 125.962174,226.76087 125.913043,217.72087 L125.913043,132.626957 C125.962174,123.586957 133.282609,116.266522 142.322609,116.217391 L207.764348,116.217391 C216.804348,116.266522 224.124783,123.586957 224.173913,132.626957 L224.173913,140.782609 Z" id="applewatch"></path>
        </g>
    </g>
</svg>