<?xml version="1.0" encoding="UTF-8"?>
<svg width="228px" height="190px" viewBox="0 0 228 190" version="1.1" xmlns="http://www.w3.org/2000/svg" xmlns:xlink="http://www.w3.org/1999/xlink">
    <title>imac</title>
    <g id="Devices" stroke="none" stroke-width="1" fill="none" fill-rule="evenodd">
        <g id="Devices/SettingsApp/devices_imac_offline" transform="translate(-61.000000, -80.000000)" fill="#DCDCDC" fill-rule="nonzero">
            <path d="M281.72775,80 L68.27225,80 C64.94725,80 61,83.95675 61,87.27225 L61.1995,229.47775 C61.1995,232.79325 65.142,236.75 68.467,236.75 L160.75,236.75 L156.5225,256.31525 C155.088,262.82275 149.09825,267.112 142.61925,266.70825 C142.50525,266.71775 142.415,266.7225 142.2915,266.732 C141.38425,266.732 140.648,267.4635 140.648,268.37075 C140.648,269.0975 141.142,269.70075 141.80225,269.90975 C141.8735,269.943 141.93525,269.9715 142.00175,269.981 L142.00175,270 L142.7,270 L208.0125,270 L208.0125,269.97625 C208.08375,269.96675 208.15025,269.93825 208.212,269.905 C208.88175,269.70075 209.371,269.0975 209.371,268.366 C209.371,267.45875 208.6395,266.72725 207.7275,266.72725 C207.604,266.7225 207.5185,266.713 207.39975,266.7035 C200.9255,267.10725 194.92625,262.82275 193.49175,256.3105 L189.25,236.75 L281.72775,236.75 C285.05275,236.75 289,232.79325 289,229.47775 L289,87.27225 C289,83.95675 285.05275,80 281.72775,80 Z M179.4935,226.43775 C179.351,226.72275 179.20375,226.9935 179.05175,227.231 C178.89025,227.47325 178.73825,227.69175 178.59575,227.877 C178.439,228.06225 178.3155,228.1905 178.23475,228.28075 C178.0685,228.4185 177.90225,228.542 177.7265,228.6275 C177.56025,228.71775 177.3845,228.751 177.19925,228.751 C177.0805,228.751 176.938,228.72725 176.77175,228.675 C176.60075,228.62275 176.42975,228.5705 176.254,228.5135 C176.0735,228.4565 175.89775,228.40425 175.722,228.34725 C175.53675,228.29975 175.38,228.276 175.23275,228.276 C175.076,228.276 174.90025,228.29975 174.71975,228.35675 C174.52975,228.409 174.3445,228.466 174.15925,228.52775 C173.96925,228.5895 173.7935,228.64175 173.6415,228.694 C173.48475,228.7415 173.347,228.76525 173.24725,228.76525 C173.09525,228.76525 172.9575,228.7415 172.82925,228.694 C172.6915,228.64175 172.549,228.55625 172.40175,228.4375 C172.2545,228.31875 172.10725,228.162 171.94575,227.9625 C171.77475,227.763 171.59425,227.5255 171.39475,227.22625 C171.20475,226.95075 171.048,226.6515 170.8865,226.3285 C170.73925,225.996 170.59675,225.65875 170.49225,225.3025 C170.38775,224.95575 170.2975,224.60425 170.24525,224.24325 C170.1835,223.887 170.1455,223.545 170.1455,223.203 C170.1455,222.68525 170.2215,222.20075 170.3735,221.759 C170.5255,221.322 170.744,220.9325 171.01,220.6095 C171.28075,220.28175 171.59425,220.03475 171.9505,219.85425 C172.30675,219.6785 172.69625,219.58825 173.119,219.58825 C173.42775,219.58825 173.79825,219.6785 174.21625,219.85425 C174.6295,220.03475 174.91925,220.125 175.0855,220.125 C175.1425,220.125 175.247,220.10125 175.3895,220.04425 C175.5415,219.992 175.76475,219.916 176.045,219.80675 C176.32525,219.71175 176.539,219.64525 176.7005,219.60725 C176.86675,219.56925 177.03775,219.55025 177.20875,219.55025 C177.679,219.55025 178.11125,219.6595 178.53875,219.8875 C178.95675,220.106 179.294,220.4005 179.53625,220.771 C179.085,221.04175 178.75725,221.36475 178.54825,221.7495 C178.34875,222.12475 178.249,222.57125 178.249,223.0795 C178.249,223.6115 178.38675,224.096 178.67175,224.53775 C178.952,224.9795 179.34625,225.31675 179.84975,225.54 C179.75475,225.844 179.63125,226.148 179.4935,226.43775 Z M174.97625,219.2035 C174.97625,218.90425 175.04275,218.60975 175.17575,218.3105 C175.30875,218.016 175.475,217.73575 175.703,217.48875 C175.912,217.256 176.1685,217.05175 176.463,216.895 C176.75275,216.73825 177.05675,216.66225 177.37025,216.64325 C177.3845,216.686 177.38925,216.72875 177.38925,216.762 L177.38925,216.89025 C177.38925,217.19425 177.32275,217.50775 177.1945,217.8165 C177.06625,218.12525 176.90475,218.40075 176.691,218.643 C176.482,218.89 176.2445,219.08475 175.97375,219.22725 C175.70775,219.3745 175.437,219.441 175.1615,219.441 C175.0475,219.441 174.9905,219.42675 174.981,219.3745 C174.97625,219.346 174.97625,219.289 174.97625,219.2035 Z M279.5,208.25 L70.5,208.25 L70.5,89.5 L279.5,89.5 L279.5,208.25 Z" id="imac"></path>
        </g>
    </g>
</svg>