<svg xmlns="http://www.w3.org/2000/svg" width="174" height="174" viewBox="0 0 174 174">
  <path fill="#FFFFFF" fill-rule="evenodd" d="M134.997224,0 L39.0007759,0 C17.4618996,0 0,17.461 0,39 L0,135 C0,156.539 17.4618996,174 39.0007759,174 L134.998224,174 C156.5381,174 174,156.539 174,135 L174,39 C173.999,17.461 156.5371,0 134.997224,0 Z M120.986039,112.295132 C120.971002,119.478313 116.655439,124.895893 110.516179,126.693373 C109.234736,127.068463 107.868865,127.2847 106.535425,127.318037 C104.188135,127.376514 101.829613,127.329514 99.4870341,127.161917 C94.7585755,126.823808 90.5278017,123.084203 89.4778987,118.449958 C87.9806773,111.841709 92.1029279,105.498154 98.7280965,104.256477 C99.5522567,104.101996 108.495183,103.953162 112.114133,104.072484 C113.838003,104.129504 115.239202,102.57595 115.230143,100.975397 C115.163653,89.2882229 115.167457,77.6003203 115.222534,65.9129642 C115.231049,64.1098367 114.192198,62.8563187 112.093841,63.2696645 C105.943711,64.4814653 73.6682985,70.9875167 71.5389612,71.4467695 C69.9129251,71.7976307 68.7892843,73.6572312 68.7927267,74.9548345 C68.8358461,91.287002 68.8342155,107.619352 68.815011,123.951337 C68.8064959,131.147087 64.462126,136.565578 58.3440633,138.351764 C57.0622577,138.726125 55.6963874,138.94218 54.3631283,138.975517 C52.0156576,139.034176 49.6565918,138.989362 47.3143751,138.820125 C42.537543,138.474547 38.3172773,134.66335 37.2916517,130.015988 C35.8051195,123.279673 40.1692373,117.109362 46.4722786,115.938368 C47.3263326,115.779697 48.2075626,115.710472 49.0773787,115.70446 C52.6999516,115.679139 56.3257856,115.611189 59.9449162,115.729782 C61.6657063,115.786073 63.0620138,114.234523 63.0576656,112.629962 C63.003857,93.2316763 63.0226991,73.8333905 63.0226991,54.4351047 C63.0226991,49.8937664 65.4178185,47.1382494 69.8605658,46.2778562 C78.1891318,44.6652794 108.871482,38.4466937 115.906103,37.0641988 C118.047579,36.643384 120.39197,38.346864 120.797981,40.5485815 C120.923716,41.2295363 120.984047,41.9323516 120.984771,42.6249654 C120.996004,54.2216004 121.010317,100.668439 120.986039,112.295132 Z"/>
</svg>
