<svg xmlns="http://www.w3.org/2000/svg" width="48" height="48" viewBox="0 0 48 48" xmlns:xlink="http://www.w3.org/1999/xlink">
  <defs>
    <circle id="a" cx="24" cy="24" r="24"/>
  </defs>
  <g fill="none" fill-rule="evenodd">
    <mask id="b" fill="white">
      <use xlink:href="#a"/>
    </mask>
    <g mask="url(#b)">
      <rect width="48" height="48" fill="#FFFFFF"/>
      <g transform="rotate(-56.31 24.408 4.118)">
        <g fill="#000000" stroke="#000000" stroke-width="1.176" transform="translate(4.148 .597)">
          <path d="M-1.04671824e-12,-1.10131562e-12 L7.1,-1.10131562e-12 M-6.8967051e-13,1.75196232 L7.1,1.75196232 M-3.31290518e-13,3.50392465 L7.1,3.50392465"/>
          <path d="M1.57918118e-13,-4.06661884e-13 L7.1,-4.06661884e-13 M6.1994849e-14,1.75196232 L7.1,1.75196232 M4.17710306e-13,3.50392465 L7.1,3.50392465" transform="translate(0 25.695)"/>
        </g>
        <path fill="#000000" stroke="#FFFFFF" stroke-width=".588" d="M7.69847363,25.1246972 L7.69847363,30.9645716"/>
        <ellipse cx="7.698" cy="15.197" fill="#C60C30" rx="7.1" ry="7.008"/>
        <path fill="#003478" d="M7.69847363,8.18906142 C5.73786277,8.18906142 4.14847363,9.75782191 4.14847363,11.6929861 C4.14847363,13.6281502 5.73786277,15.1969107 7.69847363,15.1969107 C9.6590845,15.1969107 11.2484736,16.7656712 11.2484736,18.7008354 C11.2484736,20.6359995 9.6590845,22.20476 7.69847363,22.20476 C3.77725191,22.20476 0.598473634,19.067239 0.598473634,15.1969107 C0.598473634,11.3265824 3.77725191,8.18906142 7.69847363,8.18906142 L7.69847363,8.18906142 Z"/>
      </g>
      <g fill="#000000" transform="rotate(-123.69 16.408 14.38)">
        <g stroke="#000000" stroke-width="1.176">
          <path d="M-3.10862447e-13,2.31092923e-13 L6.90277778,2.31092923e-13 M3.73034936e-13,1.78631453 L6.90277778,1.78631453 M2.48689958e-14,3.57262905 L6.90277778,3.57262905"/>
          <path d="M0,0 L6.90277778,0 M-3.48165941e-13,1.78631453 L6.90277778,1.78631453 M3.35731443e-13,3.57262905 L6.90277778,3.57262905" transform="translate(0 26.2)"/>
        </g>
        <path stroke="#FFFFFF" stroke-width=".588" d="M3.45129301,0.893431536 L3.45129301,2.67974606 M3.45129301,25.0086776 L3.45129301,27.0927112 M3.45129301,28.8790258 L3.45129301,30.6653403"/>
      </g>
    </g>
  </g>
</svg>
