<?xml version="1.0" encoding="UTF-8"?>
<svg width="108px" height="210px" viewBox="0 0 108 210" version="1.1" xmlns="http://www.w3.org/2000/svg" xmlns:xlink="http://www.w3.org/1999/xlink">
    <title>iphone11</title>
    <g id="Devices" stroke="none" stroke-width="1" fill="none" fill-rule="evenodd">
        <g id="Devices/SettingsApp/devices_iphone_11_offline" transform="translate(-121.000000, -70.000000)" fill="#DCDCDC" fill-rule="nonzero">
            <path d="M213.340579,70 L136.660603,70 C132.485742,70.0126047 128.487759,71.6403794 125.54952,74.5238658 C122.611282,77.4073521 120.974495,81.3093476 121.000301,85.3681818 L121.000301,264.870455 C121.081189,273.230812 128.061045,279.97424 136.660603,280 L213.340579,280 C221.940138,279.97424 228.919994,273.230812 229.000882,264.870455 L229.000882,85.3681818 C229.026687,81.3093476 227.3899,77.4073521 224.451662,74.5238658 C221.513424,71.6403794 217.51544,70.0126047 213.340579,70 Z M184.644228,78.4245455 C185.489223,78.4245455 186.174228,79.1095498 186.174228,79.9545455 C186.174228,80.7995411 185.489223,81.4845455 184.644228,81.4845455 C183.799232,81.4845455 183.114228,80.7995411 183.114228,79.9545455 C183.114228,79.1095498 183.799232,78.4245455 184.644228,78.4245455 Z M170.364228,78.7954545 L179.636955,78.7954545 C180.277103,78.7954545 180.796046,79.3143972 180.796046,79.9545455 C180.796046,80.5946937 180.277103,81.1136364 179.636955,81.1136364 L170.364228,81.1136364 C169.724079,81.1136364 169.205137,80.5946937 169.205137,79.9545455 C169.205137,79.3143972 169.724079,78.7954545 170.364228,78.7954545 Z M221.364228,262.302727 C221.313345,267.87418 216.782276,272.363636 211.210591,272.363636 L138.790591,272.363636 C133.218906,272.363636 128.687838,267.87418 128.636955,262.302727 L128.636955,87.9290909 C128.599733,85.2121609 129.653034,82.5936669 131.561259,80.6593014 C133.469485,78.7249358 136.073406,77.6363636 138.790591,77.6363636 L149.500591,77.6363636 C150.780888,77.6363636 151.818773,78.674249 151.818773,79.9545455 L151.818773,82.2727273 C151.818773,84.8333202 153.894544,86.9090909 156.455137,86.9090909 L193.546046,86.9090909 C196.106639,86.9090909 198.182409,84.8333202 198.182409,82.2727273 L198.182409,79.9545455 C198.182409,78.674249 199.220295,77.6363636 200.500591,77.6363636 L211.210591,77.6363636 C213.927776,77.6363636 216.531698,78.7249358 218.439923,80.6593014 C220.348149,82.5936669 221.401449,85.2121609 221.364228,87.9290909 L221.364228,262.302727 Z" id="iphone11"></path>
        </g>
    </g>
</svg>