<svg xmlns="http://www.w3.org/2000/svg" width="640" height="360"><defs><linearGradient id="a" x1="0%" y1="0%" y2="100%"><stop stop-color="#33A2C6" offset="0%"/><stop stop-color="#35C591" offset="100%"/></linearGradient></defs><g fill="none"><g><path fill="#fff" d="M0 0h640v360H0z"/><rect width="256" height="255" x="192" y="52.5" stroke="#ccc" opacity=".3" rx="62"/><path fill="url(#a)" d="M335 173.7v16.8c0 6.6-5.4 12-12 12h-6c-6.6 0-12-5.4-12-12v-16.8c-6.7-4.7-11-12.5-11-21.3 0-14.3 11.6-26 26-26s26 11.7 26 26c0 8.8-4.3 16.6-11 21.3zm-77-20.3c0 44.4 59 119.6 62 119.6s62-75.2 62-119.6c0-46.6-35.4-66.4-62-66.4s-62 18.3-62 66.4z"/></g></g></svg>